<?xml version="1.0" encoding="UTF-8" standalone="no"?><!DOCTYPE svg PUBLIC "-//W3C//DTD SVG 1.1//EN" "http://www.w3.org/Graphics/SVG/1.1/DTD/svg11.dtd"><svg width="100%" height="100%" viewBox="0 0 155 180" version="1.1" xmlns="http://www.w3.org/2000/svg" xmlns:xlink="http://www.w3.org/1999/xlink" xml:space="preserve" xmlns:serif="http://www.serif.com/" style="fill-rule:evenodd;clip-rule:evenodd;stroke-linejoin:round;stroke-miterlimit:2;"><rect id="Página-2" serif:id="Página 2" x="-1272.559" y="-512.426" width="1920" height="1080" style="fill:none;"/><g id="Capa-1" serif:id="Capa 1"><path d="M57.914,77.367c2.483,-3.525 4.862,-6.157 6.408,-9.594c-6.896,0.457 -7.278,0.989 -6.408,9.594m0.527,78.87c-0.275,0.084 -0.55,0.168 -0.826,0.253c0,4.155 -0.003,8.312 0.002,12.468c0.002,1.213 0.569,1.952 1.833,1.961c3.408,0.024 6.818,0.04 10.226,0.014c1.471,-0.01 1.967,-0.685 0.876,-1.856c-4.01,-4.305 -8.07,-8.564 -12.111,-12.84m-10.861,-24.511c0.269,-0.109 0.536,-0.217 0.805,-0.326c0,-7.491 0.001,-14.981 -0.003,-22.471c0,-0.557 0.097,-1.262 -0.572,-1.452c-0.84,-0.239 -1.112,0.539 -1.502,1.086c-2.516,3.525 -5.05,7.037 -7.571,10.559c-0.668,0.933 -1.415,1.815 -0.28,2.99c3.069,3.178 6.086,6.406 9.123,9.614m-12.214,-24.381c0.276,0.096 0.552,0.193 0.827,0.29c1.173,-1.638 2.18,-3.43 3.544,-4.889c7.006,-7.488 9.951,-16.075 8.784,-26.451c-0.763,-6.782 -0.144,-6.852 -6.618,-8.817c-0.218,-0.066 -0.447,-0.11 -0.652,-0.206c-1.72,-0.796 -2.191,0.007 -2.318,1.626c-0.279,3.522 -0.704,7.031 -1.028,10.548c-0.858,9.299 -1.694,18.599 -2.539,27.899m-2.723,-68.135c-5.702,-0.004 -5.792,0.034 -3.746,4.978c3.253,7.858 9.001,13.039 17.184,15.451c13.123,3.868 28.139,-4.515 31.566,-17.625c0.24,-0.915 0.992,-1.962 -0.382,-2.674c-2.501,-1.294 -7.583,0.394 -8.872,2.875c-3.225,6.201 -8.259,9.54 -15.346,9.624c-7.112,0.083 -12.371,-3.158 -15.446,-9.385c-1.285,-2.6 -2.562,-3.861 -4.958,-3.244m20.332,-30.222c-11.146,-0.026 -21.094,7.012 -24.543,17.491c-0.394,1.194 -1.658,2.913 0.567,3.745c3.316,1.24 6.899,-0.316 8.608,-3.423c3.238,-5.882 8.292,-9.161 14.976,-9.263c6.501,-0.099 12.151,2.52 14.942,8.486c1.854,3.962 4.26,4.552 7.958,4.371c2.553,-0.124 2.78,-0.924 2.133,-3.131c-3.137,-10.709 -13.215,-18.25 -24.641,-18.276m-4.598,148.931c0,-2.738 -0.185,-5.491 0.049,-8.209c0.269,-3.128 -0.848,-5.4 -3.07,-7.537c-3.118,-3 -5.921,-6.324 -8.932,-9.439c-0.818,-0.846 -1.469,-2.528 -2.834,-2.025c-1.149,0.424 -0.601,2.041 -0.704,3.13c-1.085,11.336 -2.066,22.682 -3.247,34.008c-0.238,2.275 0.244,3.167 2.583,3.121c4.447,-0.088 8.898,-0.082 13.345,0.002c2.03,0.038 2.905,-0.682 2.839,-2.786c-0.106,-3.419 -0.028,-6.843 -0.029,-10.265m28.109,4.727c0,-1.546 0.037,-1.996 -0.005,-2.44c-1.328,-13.966 -2.683,-27.93 -3.992,-41.899c-1.171,-12.496 -2.289,-24.998 -3.435,-37.496c-0.061,-0.664 0.025,-1.492 -0.791,-1.714c-0.815,-0.22 -1.177,0.532 -1.569,1.076c-2.268,3.15 -4.449,6.369 -6.815,9.443c-1.684,2.186 -2.358,4.471 -2.331,7.266c0.128,13.253 0.22,26.511 -0.037,39.76c-0.083,4.228 1.068,7.307 4.113,10.249c4.964,4.796 9.506,10.028 14.862,15.755m8.549,-13.218c0.584,6.365 1.256,12.723 1.712,19.097c0.187,2.607 1.927,2.076 3.423,2.078c15.209,0.023 30.417,0.014 45.626,0.014c5.145,0 10.295,0.113 15.435,-0.05c2.606,-0.083 3.723,0.583 3.606,3.432c-0.28,6.846 0.846,5.768 -5.85,5.773c-48.255,0.032 -96.51,0.024 -144.766,-0.018c-1.336,-0.001 -3.459,0.864 -3.815,-1.145c-0.426,-2.407 -0.747,-5.018 0.276,-7.396c0.402,-0.935 1.64,-0.583 2.526,-0.587c4.688,-0.023 9.377,-0.062 14.064,0.018c1.831,0.032 2.594,-0.537 2.767,-2.491c1.272,-14.445 2.648,-28.881 4.02,-43.317c1.542,-16.256 3.116,-32.508 4.673,-48.762c0.425,-4.434 0.76,-8.877 1.305,-13.296c0.223,-1.807 -0.832,-2.715 -1.86,-3.781c-13.971,-14.502 -13.431,-36.163 1.239,-49.923c13.281,-12.457 34.589,-12.036 47.788,0.945c13.277,13.058 14.079,34.212 1.645,47.696c-1.848,2.004 -2.188,3.797 -1.912,6.412c1.393,13.174 2.483,26.38 3.733,39.568c1.098,11.594 2.268,23.181 3.408,34.77c-0.203,3.699 0.527,7.318 0.957,10.963" style="fill-rule:nonzero;"/><path d="M85.035,149.427c-0.43,-3.645 -1.16,-7.264 -0.957,-10.963c7.136,-3.825 13.306,-3.233 18.908,2.785c4.108,4.413 8,4.236 12.063,-0.051c6.681,-7.049 14.728,-6.833 22.118,-0.09c2.029,1.851 3.734,4.054 6.966,3.58c1.145,-0.169 1.557,0.726 1.561,1.778c0.003,0.686 0.005,1.371 0.007,2.057c0.016,5.66 -1.144,6.529 -6.665,5.026c-2.861,-0.778 -5.039,-2.57 -7.092,-4.606c-4.898,-4.863 -6.997,-5.024 -11.623,-0.055c-6.292,6.758 -16.285,6.702 -22.477,0.203c-4.901,-5.143 -6.295,-5.018 -11.662,-0.4c-0.341,0.294 -0.763,0.493 -1.147,0.736" style="fill-rule:nonzero;"/><path d="M133.943,128.845c-2.854,-1.38 -5.627,-2.206 -8.679,-2.098c-4.204,0.149 -7.748,1.531 -10.753,4.525c-4.422,4.406 -6.567,4.402 -10.933,0.118c-1.658,-1.628 -3.44,-3.072 -5.674,-3.714c-1.956,-0.561 -2.059,-1.76 -1.714,-3.404c1.748,-8.344 11.174,-15.248 19.978,-14.597c9.408,0.695 17.665,8.774 18.027,17.656c0.017,0.42 -0.137,0.848 -0.252,1.514" style="fill-rule:nonzero;"/></g></svg>