<?xml version="1.0" encoding="UTF-8" standalone="no"?><!DOCTYPE svg PUBLIC "-//W3C//DTD SVG 1.1//EN" "http://www.w3.org/Graphics/SVG/1.1/DTD/svg11.dtd"><svg width="100%" height="100%" viewBox="0 0 186 162" version="1.1" xmlns="http://www.w3.org/2000/svg" xmlns:xlink="http://www.w3.org/1999/xlink" xml:space="preserve" xmlns:serif="http://www.serif.com/" style="fill-rule:evenodd;clip-rule:evenodd;stroke-linejoin:round;stroke-miterlimit:2;"><rect id="Página-2" serif:id="Página 2" x="-1449.881" y="-339.755" width="1920" height="1080" style="fill:none;"/><g id="Capa-1" serif:id="Capa 1"><g><clipPath id="_clip1"><path d="M18.711,113.633c4.332,23.396 25.363,41.748 50.652,48.935l110.667,0c-3.785,-1.255 -123.973,-119.763 -123.973,-119.763c-18.888,7.727 -43.785,36.058 -37.346,70.828Zm161.319,48.935c0.041,0.014 0.068,0.014 0.082,0l-0.082,0Z" clip-rule="nonzero"/></clipPath><g clip-path="url(#_clip1)"><rect x="20.858" y="58.258" width="72.115" height="11.161"/><rect x="7.979" y="76.287" width="97.013" height="11.161"/><rect x="8.838" y="94.316" width="115.899" height="11.161"/><rect x="7.979" y="111.486" width="131.354" height="11.161"/><rect x="19.14" y="130.374" width="144.231" height="11.161"/><rect x="31.159" y="149.261" width="154.533" height="12.02"/></g></g><path d="M127.291,112.418c-4.156,-3.904 -4.09,-3.815 0.325,-7.112c2.636,-1.968 5.063,-4.225 7.504,-6.44c0.708,-0.642 1.96,-1.308 1.576,-2.406c-0.426,-1.223 -1.793,-0.612 -2.725,-0.62c-7.29,-0.062 -14.581,-0.051 -21.871,-0.063c-1.062,-0.432 -2.124,-0.864 -3.187,-1.296c-2.332,-2.261 -4.664,-4.522 -6.997,-6.782c-0.189,-0.381 -0.379,-0.761 -0.568,-1.142c12.569,-0.026 25.138,-0.056 37.708,-0.076c5.408,-0.009 5.315,-0.038 7.294,-5.045c1.022,-2.59 0.782,-3.616 -2.362,-3.536c-7.194,0.185 -14.397,0.034 -21.596,0.065c-9.82,0.043 -19.639,0.128 -29.458,0.195c-0.451,-0.016 -0.901,-0.033 -1.351,-0.049c-0.376,-0.967 -0.764,-1.926 -1.925,-2.21c-2.283,-2.31 -4.566,-4.62 -6.85,-6.93c0,0.001 -0.021,0.03 -0.021,0.03c1.196,-0.566 2.473,-0.354 3.719,-0.355c19.784,-0.008 39.568,-0.065 59.351,0.065c2.816,0.018 3.797,-0.828 3.93,-3.574c0.892,-18.468 -8.023,-38.194 -26.754,-48.802c-8.119,-4.598 -16.822,-7.073 -26.148,-7.097c-24.13,-0.061 -48.259,-0.039 -72.389,-0.041c-0.649,0 -1.3,0.114 -2.854,0.259c14.401,13.938 28.288,27.379 42.753,41.38l-22.39,0c0.201,-0.403 0.271,-0.76 0.488,-0.948c4.147,-3.605 4.16,-3.611 0.106,-7.536c-13.718,-13.279 -27.447,-26.548 -41.158,-39.836c-0.542,-0.525 -1.68,-0.831 -1.396,-1.754c0.362,-1.178 1.564,-0.639 2.388,-0.639c31.334,-0.018 62.67,-0.252 94.001,0.08c27.496,0.291 51.279,17.503 59.197,42.056c8.763,27.175 -0.345,54.439 -23.728,71.052c-0.458,0.325 -0.865,0.722 -1.296,1.086c-0.404,0.027 -0.809,0.054 -1.213,0.082c-0.702,-0.687 -1.402,-1.374 -2.103,-2.061" style="fill-rule:nonzero;"/><path d="M91.101,28.102c-5.271,0.049 -9.658,4.43 -9.602,9.586c0.057,5.082 4.638,9.477 9.82,9.422c5.15,-0.055 9.722,-4.628 9.627,-9.628c-0.099,-5.143 -4.597,-9.429 -9.845,-9.38m0.051,-8.841c10.346,-0.016 18.629,8.149 18.612,18.35c-0.017,10.132 -8.449,18.415 -18.683,18.351c-10.058,-0.062 -18.435,-8.335 -18.484,-18.256c-0.05,-10.179 8.249,-18.429 18.555,-18.445" style="fill-rule:nonzero;"/></g></svg>