<?xml version="1.0" encoding="UTF-8" standalone="no"?><!DOCTYPE svg PUBLIC "-//W3C//DTD SVG 1.1//EN" "http://www.w3.org/Graphics/SVG/1.1/DTD/svg11.dtd"><svg width="100%" height="100%" viewBox="0 0 399 141" version="1.1" xmlns="http://www.w3.org/2000/svg" xmlns:xlink="http://www.w3.org/1999/xlink" xml:space="preserve" xmlns:serif="http://www.serif.com/" style="fill-rule:evenodd;clip-rule:evenodd;stroke-linejoin:round;stroke-miterlimit:2;"><rect id="Página-2" serif:id="Página 2" x="-1250.081" y="-728.932" width="1920" height="1080" style="fill:none;"/><g id="Capa-1" serif:id="Capa 1"><path d="M81.449,3.625l0,-2.043c0,-0.63 0.51,-1.141 1.141,-1.141l5.959,0c0.473,0 0.857,0.383 0.857,0.857l0,1.845c0,0.473 -0.384,0.857 -0.857,0.857l-0.485,0c-0.473,0 -0.857,0.383 -0.857,0.856l0,15.191c0,0.474 0.384,0.857 0.857,0.857l0.485,0c0.473,0 0.857,0.383 0.857,0.858l0,1.843c0,0.474 -0.384,0.858 -0.857,0.858l-6.244,0c-0.473,0 -0.857,-0.384 -0.857,-0.858l0,-1.843c0,-0.475 0.384,-0.858 0.857,-0.858l0.485,0c0.473,0 0.857,-0.383 0.857,-0.857l0,-8.927c0,-0.48 -0.642,-0.642 -0.871,-0.219l-4.486,8.34c-0.323,0.601 -1.187,0.601 -1.51,0l-4.487,-8.34c-0.228,-0.423 -0.871,-0.261 -0.871,0.219l0,8.927c0,0.474 0.383,0.857 0.857,0.857l0.485,0c0.474,0 0.858,0.384 0.858,0.858l0,1.843c0,0.475 -0.384,0.858 -0.858,0.858l-6.244,0c-0.473,0 -0.857,-0.383 -0.857,-0.858l0,-1.843c0,-0.474 0.384,-0.858 0.857,-0.858l0.486,0c0.473,0 0.856,-0.383 0.856,-0.857l0,-15.189c0,-0.474 -0.383,-0.857 -0.856,-0.857l-0.486,0c-0.473,0 -0.857,-0.384 -0.857,-0.857l0,-1.845c0,-0.474 0.384,-0.857 0.857,-0.857l5.96,0c0.63,0 1.141,0.51 1.141,1.14l0,2.044c0,0.206 -0.168,0.374 -0.374,0.374c-0.283,0 -0.465,0.303 -0.33,0.552l4.29,7.973c0.139,0.26 0.514,0.26 0.654,0l4.289,-7.973c0.134,-0.25 -0.047,-0.552 -0.329,-0.552c-0.208,0 -0.375,-0.168 -0.372,-0.375" style="fill-rule:nonzero;"/><path d="M111.428,14.083l2.929,0c0.512,0 0.868,-0.51 0.689,-0.99l-1.547,-4.177c-0.208,-0.564 -1.006,-0.564 -1.215,0l-1.546,4.177c-0.177,0.48 0.178,0.99 0.69,0.99m10.043,6.111c0.158,0.427 0.564,0.71 1.019,0.71l0.872,0c0.599,0 1.086,0.486 1.086,1.086l0,1.386c0,0.601 -0.487,1.087 -1.086,1.087l-5.785,0c-0.6,0 -1.087,-0.486 -1.087,-1.087l0,-1.877c0,-0.328 0.267,-0.595 0.595,-0.595c0.415,0 0.701,-0.413 0.558,-0.801l-0.649,-1.751c-0.158,-0.427 -0.564,-0.71 -1.019,-0.71l-6.165,0c-0.455,0 -0.861,0.283 -1.02,0.71l-0.648,1.751c-0.144,0.388 0.143,0.801 0.557,0.801c0.329,0 0.595,0.267 0.595,0.595l0,1.877c0,0.601 -0.486,1.087 -1.087,1.087l-5.784,0c-0.599,0 -1.087,-0.486 -1.087,-1.087l0,-1.386c0,-0.6 0.488,-1.086 1.087,-1.086l0.872,0c0.454,0 0.862,-0.283 1.02,-0.71l7.044,-19.026c0.157,-0.423 0.558,-0.705 1.009,-0.71l1.015,-0.009c0.452,-0.004 0.858,0.272 1.024,0.692l0.19,0.488l6.874,18.565Z" style="fill-rule:nonzero;"/><path d="M149.23,3.142l0,-1.845c0,-0.473 0.384,-0.856 0.857,-0.856l6.244,0c0.474,0 0.857,0.383 0.857,0.856l0,1.845c0,0.474 -0.383,0.857 -0.857,0.857l-0.485,0c-0.473,0 -0.857,0.383 -0.857,0.857l0,15.19c0,0.474 0.384,0.858 0.857,0.858l0.485,0c0.474,0 0.857,0.383 0.857,0.857l0,1.844c0,0.474 -0.383,0.857 -0.857,0.857l-6.244,0c-0.473,0 -0.857,-0.383 -0.857,-0.857l0,-2.432c0,-0.148 0.121,-0.269 0.271,-0.269c0.212,0 0.342,-0.235 0.229,-0.415l-7.093,-11.294c-0.144,-0.231 -0.5,-0.128 -0.5,0.144l0,10.707c0,0.474 0.384,0.858 0.858,0.858l0.484,0c0.474,0 0.857,0.383 0.857,0.857l0,1.844c0,0.474 -0.383,0.857 -0.857,0.857l-6.243,0c-0.474,0 -0.858,-0.383 -0.858,-0.857l0,-1.844c0,-0.474 0.384,-0.857 0.858,-0.857l0.484,0c0.474,0 0.858,-0.384 0.858,-0.858l0,-15.19c0,-0.474 -0.384,-0.857 -0.858,-0.857l-0.484,0c-0.474,0 -0.858,-0.383 -0.858,-0.857l0,-1.845c0,-0.473 0.384,-0.856 0.858,-0.856l6.243,0c0.474,0 0.857,0.383 0.857,0.856l0,2.432c0,0.149 -0.121,0.27 -0.27,0.27c-0.213,0 -0.343,0.235 -0.23,0.414l7.093,11.294c0.145,0.231 0.5,0.128 0.5,-0.144l0,-10.707c0,-0.474 -0.384,-0.857 -0.857,-0.857l-0.485,0c-0.473,0 -0.857,-0.383 -0.857,-0.857" style="fill-rule:nonzero;"/><path d="M169.136,2.98l0,-1.52c0,-0.563 0.457,-1.019 1.021,-1.019l5.916,0c0.565,0 1.021,0.457 1.021,1.019l0,1.519c0,0.563 -0.457,1.021 -1.021,1.021l-0.159,0c-0.564,0 -1.02,0.457 -1.02,1.019l0,14.865c0,0.564 0.457,1.02 1.02,1.02l0.156,0c0.564,0 1.02,0.458 1.02,1.02l0,1.52c0,0.563 -0.457,1.02 -1.02,1.02l-5.918,0c-0.564,0 -1.02,-0.458 -1.02,-1.02l0,-1.52c0,-0.564 0.457,-1.02 1.02,-1.02l0.164,0c0.563,0 1.02,-0.456 1.02,-1.02l0,-14.865c0,-0.563 -0.457,-1.019 -1.02,-1.019l-0.159,0c-0.565,0 -1.021,-0.458 -1.021,-1.02" style="fill-rule:nonzero;"/><path d="M190.112,0.425l0.708,-0.019l13.531,0c0.607,0 1.1,0.494 1.1,1.1l0,1.192l-0.274,0.47l-10.781,17.14c-0.163,0.26 0.024,0.597 0.33,0.597l6.067,0c0.606,0 1.099,-0.492 1.099,-1.1l0,-1.548c0,-0.608 0.492,-1.101 1.101,-1.101l1.358,0c0.609,0 1.101,0.493 1.101,1.101l0,5.094c0,0.598 -0.48,1.088 -1.078,1.099l-0.701,0.013l-13.531,0c-0.607,0 -1.1,-0.492 -1.1,-1.1l0,-1.192l0.274,-0.47l10.781,-17.137c0.163,-0.261 -0.023,-0.599 -0.331,-0.599l-6.065,0c-0.608,0 -1.101,0.493 -1.101,1.101l0,1.561c0,0.607 -0.492,1.099 -1.099,1.099l-1.36,0c-0.607,0 -1.099,-0.492 -1.099,-1.099l0,-5.102c0,-0.596 0.475,-1.084 1.07,-1.1" style="fill-rule:nonzero;"/><path d="M227.471,14.083l2.93,0c0.511,0 0.867,-0.51 0.689,-0.99l-1.547,-4.177c-0.209,-0.564 -1.006,-0.564 -1.215,0l-1.546,4.177c-0.178,0.48 0.177,0.99 0.689,0.99m10.043,6.111c0.157,0.427 0.564,0.71 1.02,0.71l0.871,0c0.6,0 1.087,0.486 1.087,1.086l0,1.386c0,0.601 -0.487,1.087 -1.087,1.087l-5.785,0c-0.599,0 -1.087,-0.486 -1.087,-1.087l0,-1.877c0,-0.328 0.267,-0.595 0.595,-0.595c0.414,0 0.701,-0.413 0.558,-0.801l-0.649,-1.751c-0.158,-0.427 -0.564,-0.71 -1.019,-0.71l-6.165,0c-0.454,0 -0.861,0.283 -1.02,0.71l-0.648,1.751c-0.144,0.388 0.143,0.801 0.557,0.801c0.329,0 0.595,0.267 0.595,0.595l0,1.877c0,0.601 -0.486,1.087 -1.086,1.087l-5.785,0c-0.599,0 -1.086,-0.486 -1.086,-1.087l0,-1.386c0,-0.6 0.487,-1.086 1.086,-1.086l0.872,0c0.454,0 0.862,-0.283 1.019,-0.71l7.045,-19.026c0.157,-0.423 0.558,-0.705 1.009,-0.71l1.016,-0.009c0.451,-0.004 0.857,0.272 1.022,0.692l0.192,0.488l6.873,18.565Z" style="fill-rule:nonzero;"/><path d="M265.858,19.885l0,-1.596c0,-0.563 0.457,-1.019 1.021,-1.019l1.519,0c0.564,0 1.02,0.456 1.02,1.019l0,5.157c0,0.563 -0.457,1.019 -1.02,1.019l-14.955,0c-0.564,0 -1.02,-0.457 -1.02,-1.019l0,-1.52c0,-0.563 0.456,-1.02 1.02,-1.02l0.164,0c0.563,0 1.02,-0.458 1.02,-1.021l0,-14.863c0,-0.565 -0.457,-1.021 -1.02,-1.021l-0.16,0c-0.565,0 -1.021,-0.458 -1.021,-1.02l0,-1.52c0,-0.563 0.458,-1.019 1.021,-1.019l5.918,0c0.563,0 1.02,0.457 1.02,1.019l0,1.519c0,0.563 -0.458,1.02 -1.02,1.02l-0.16,0c-0.564,0 -1.02,0.457 -1.02,1.02l0,14.865c0,0.563 0.456,1.02 1.02,1.02l5.634,0c0.564,0 1.02,-0.457 1.02,-1.02l-0.001,0Z" style="fill-rule:nonzero;"/><path d="M283.082,8.921l0,-7.406c0,-0.593 0.48,-1.073 1.073,-1.073l11.947,0c0.593,0 1.073,0.48 1.073,1.073l0,1.412c0,0.593 -0.481,1.073 -1.073,1.073l-8.388,0c-0.594,0 -1.073,0.481 -1.073,1.073l0,3.636c0,0.593 0.48,1.072 1.073,1.072l3.842,0c0.593,0 1.073,0.482 1.073,1.074l0,1.413c0,0.593 -0.482,1.073 -1.073,1.073l-3.842,0c-0.594,0 -1.073,0.48 -1.073,1.073l0,5.417c0,0.593 0.48,1.073 1.073,1.073l8.388,0c0.593,0 1.073,0.481 1.073,1.074l0,1.411c0,0.593 -0.481,1.073 -1.073,1.073l-11.947,0c-0.594,0 -1.073,-0.481 -1.073,-1.073l0,-9.187c0,-0.475 -0.385,-0.861 -0.861,-0.861c-0.476,0 -0.862,-0.385 -0.862,-0.86l0,-1.836c0,-0.476 0.385,-0.862 0.862,-0.862c0.476,0 0.861,-0.385 0.861,-0.862" style="fill-rule:nonzero;"/><path d="M324.009,17.66c0,3.88 -3.102,6.805 -7.216,6.805c-1.47,0 -2.888,-0.494 -4.099,-1.313c0,0.246 -0.201,0.446 -0.446,0.446l-2.089,0c-0.566,0 -1.024,-0.459 -1.024,-1.025l0,-4.742c0,-0.566 0.458,-1.025 1.024,-1.025l1.609,0c0.482,0 0.91,0.324 1.026,0.792c0.438,1.742 2.233,3.306 3.998,3.306c1.761,0 3.657,-1.016 3.657,-3.246c0,-2.075 -1.419,-2.851 -4.66,-4.125c-2.965,-1.167 -6.654,-2.619 -6.654,-7.025c0,-3.832 2.967,-6.508 7.216,-6.508c1.336,0 2.584,0.372 3.656,1.006l0,-0.178c0,-0.245 0.199,-0.445 0.445,-0.445l2.09,0c0.566,0 1.025,0.459 1.025,1.024l0,4.785c0,0.566 -0.459,1.025 -1.025,1.025l-1.635,0c-0.479,0 -0.883,-0.34 -0.99,-0.808c-0.368,-1.63 -1.828,-2.851 -3.567,-2.851c-1.769,0 -3.657,0.775 -3.657,2.95c0,1.795 1.34,2.509 4.399,3.714c2.919,1.147 6.916,2.72 6.917,7.438" style="fill-rule:nonzero;"/><path d="M34.069,91.061l-1.521,2.649c-0.559,0.978 -1.745,1.377 -2.796,0.976c-2.848,-1.083 -6.071,-1.132 -8.951,-0.098c-0.205,0.075 -0.42,0.157 -0.632,0.248l-0.19,0.075c-2.222,0.805 -4.555,1.212 -6.932,1.212c-2.929,0 -5.805,-0.627 -8.444,-1.83c-1.228,-0.559 -1.657,-2.101 -0.949,-3.252l1.604,-2.603c0.594,-0.968 1.797,-1.316 2.847,-0.883c2.907,1.204 6.247,1.317 9.213,0.267c0.296,-0.123 0.596,-0.24 0.902,-0.352c4.78,-1.725 10.124,-1.567 14.782,0.362c1.254,0.518 1.74,2.053 1.067,3.229m-33.892,-25.193c-1.542,-11.233 7.188,-20.878 18.125,-20.878c6.349,0 12.197,3.307 15.511,8.603c0.72,1.15 0.2,2.68 -1.037,3.234l-2.795,1.25c-1.03,0.463 -2.207,0.072 -2.847,-0.859c-1.98,-2.876 -5.274,-4.655 -8.833,-4.655c-5.803,0 -10.544,4.629 -10.724,10.39c-0.161,5.151 3.561,9.856 8.617,10.86c4.332,0.859 8.572,-1.01 10.939,-4.446c0.639,-0.931 1.815,-1.322 2.846,-0.861l2.799,1.252c1.231,0.552 1.755,2.074 1.04,3.22c-4.234,6.78 -12.624,10.307 -20.9,7.815c-6.74,-2.028 -11.788,-7.957 -12.741,-14.925" style="fill-rule:nonzero;"/><path d="M70.609,63.934c0,-6.264 -5.097,-11.359 -11.36,-11.359l-1.683,0c-6.265,0 -11.36,5.095 -11.36,11.359l0,13.254c0,6.264 5.095,11.359 11.36,11.359l1.683,0c6.263,0 11.36,-5.095 11.36,-11.359l0,-13.254Zm7.573,0l0,13.254c0,10.439 -8.494,18.933 -18.933,18.933l-1.683,0c-10.439,0 -18.934,-8.494 -18.934,-18.933l0,-13.254c0,-10.439 8.495,-18.933 18.934,-18.933l1.683,0c10.439,0 18.933,8.494 18.933,18.933" style="fill-rule:nonzero;"/><path d="M116.014,51.777l0,-4.349c0,-1.339 1.085,-2.426 2.426,-2.426l12.683,0c1.008,0 1.825,0.816 1.825,1.824l0,3.925c0,1.007 -0.817,1.824 -1.825,1.824l-1.032,0c-1.008,0 -1.824,0.816 -1.824,1.824l0,32.324c0,1.009 0.816,1.825 1.824,1.825l1.032,0c1.008,0 1.825,0.816 1.825,1.825l0,3.924c0,1.008 -0.817,1.824 -1.825,1.824l-13.287,0c-1.009,0 -1.824,-0.816 -1.824,-1.824l0,-3.924c0,-1.009 0.815,-1.825 1.824,-1.825l1.032,0c1.007,0 1.824,-0.816 1.824,-1.825l0,-18.995c0,-1.023 -1.368,-1.368 -1.853,-0.467l-9.549,17.747c-0.688,1.28 -2.524,1.28 -3.213,0l-9.548,-17.747c-0.486,-0.901 -1.854,-0.556 -1.854,0.467l0,18.997c0,1.008 0.817,1.824 1.824,1.824l1.033,0c1.007,0 1.824,0.817 1.824,1.825l0,3.924c0,1.009 -0.817,1.825 -1.824,1.825l-13.288,0c-1.008,0 -1.824,-0.816 -1.824,-1.825l0,-3.924c0,-1.008 0.816,-1.825 1.824,-1.825l1.032,0c1.008,0 1.824,-0.816 1.824,-1.824l0,-32.324c0,-1.009 -0.816,-1.825 -1.824,-1.825l-1.032,0c-1.008,0 -1.824,-0.817 -1.824,-1.823l0,-3.926c0,-1.008 0.816,-1.824 1.824,-1.824l12.683,0c1.34,0 2.427,1.086 2.427,2.427l0,4.349c0,0.438 -0.357,0.796 -0.796,0.796c-0.603,0 -0.988,0.644 -0.702,1.175l9.13,16.966c0.298,0.555 1.093,0.555 1.392,0l9.128,-16.966c0.284,-0.533 -0.099,-1.175 -0.702,-1.175c-0.44,0 -0.796,-0.358 -0.79,-0.798" style="fill-rule:nonzero;"/><path d="M165.146,61.424c0.467,-4.797 -3.306,-8.849 -8.008,-8.849l-5.543,0c-1.209,0 -2.188,0.98 -2.188,2.188l0,11.719c0,1.208 0.979,2.187 2.188,2.187l5.185,0c4.201,0 7.959,-3.063 8.366,-7.245m7.578,-1.87c0.608,9.096 -6.617,16.688 -15.584,16.688l-5.544,0c-1.208,0 -2.187,0.98 -2.187,2.188l0,7.931c0,1.208 0.979,2.187 2.187,2.187l0.305,0c1.209,0 2.188,0.98 2.188,2.188l0,3.198c0,1.208 -0.979,2.187 -2.188,2.187l-12.558,0c-1.209,0 -2.188,-0.979 -2.188,-2.187l0,-3.198c0,-1.208 0.979,-2.188 2.188,-2.188l0.305,0c1.208,0 2.187,-0.979 2.187,-2.187l0,-31.598c0,-1.208 -0.979,-2.188 -2.187,-2.188l-0.256,0c-1.209,0 -2.188,-0.979 -2.188,-2.188l0,-3.197c0,-1.209 0.979,-2.188 2.188,-2.188l17.196,0c8.312,0 15.58,6.259 16.136,14.552" style="fill-rule:nonzero;"/><path d="M195.287,73.804l9.207,0c1.611,0 2.727,-1.603 2.168,-3.112l-4.862,-13.13c-0.657,-1.773 -3.162,-1.773 -3.819,0l-4.862,13.13c-0.557,1.509 0.56,3.112 2.168,3.112m31.567,19.211c0.497,1.34 1.776,2.23 3.204,2.23l2.74,0c1.887,0 3.416,1.529 3.416,3.415l0,4.356c0,1.887 -1.529,3.415 -3.416,3.415l-18.182,0c-1.887,0 -3.415,-1.528 -3.415,-3.415l0,-5.901c0,-1.033 0.838,-1.87 1.869,-1.87c1.303,0 2.205,-1.297 1.753,-2.518l-2.039,-5.506c-0.497,-1.34 -1.774,-2.23 -3.204,-2.23l-19.38,0c-1.43,0 -2.707,0.89 -3.203,2.23l-2.039,5.506c-0.452,1.221 0.45,2.518 1.753,2.518c1.031,0 1.869,0.837 1.869,1.87l0,5.901c0,1.887 -1.529,3.415 -3.416,3.415l-18.182,0c-1.886,0 -3.415,-1.528 -3.415,-3.415l0,-4.356c0,-1.886 1.529,-3.415 3.415,-3.415l2.74,0c1.429,0 2.708,-0.89 3.205,-2.23l22.143,-59.808c0.492,-1.329 1.755,-2.217 3.172,-2.229l3.192,-0.03c1.419,-0.012 2.698,0.852 3.214,2.172l0.602,1.537l21.604,58.358Z" style="fill-rule:nonzero;"/><path d="M263.798,60.288l10.957,0c5.633,0 10.091,-5.157 8.893,-10.999c-0.871,-4.249 -4.819,-7.18 -9.157,-7.18l-10.696,0c-1.8,0 -3.257,1.459 -3.257,3.256l0,11.666c0,1.798 1.459,3.257 3.26,3.257m17.788,13.839l10.297,19.39c0.563,1.061 1.67,1.728 2.876,1.728l3.857,0c1.801,0 3.257,1.459 3.257,3.256l0,4.674c0,1.799 -1.459,3.256 -3.257,3.256l-18.501,0c-1.8,0 -3.256,-1.459 -3.256,-3.256l0,-6.699c0,-0.68 0.551,-1.231 1.23,-1.231c0.927,0 1.522,-0.987 1.086,-1.808l-10.746,-20.235c-0.565,-1.063 -1.671,-1.73 -2.877,-1.73l-1.757,0c-1.8,0 -3.257,1.46 -3.257,3.256l0,17.26c0,1.8 1.459,3.257 3.257,3.257l0.4,0c1.799,0 3.256,1.459 3.256,3.256l0,4.674c0,1.799 -1.459,3.256 -3.256,3.256l-18.502,0c-1.8,0 -3.256,-1.459 -3.256,-3.256l0,-4.674c0,-1.8 1.459,-3.256 3.256,-3.256l0.4,0c1.8,0 3.257,-1.46 3.257,-3.257l0,-46.623c0,-1.799 -1.46,-3.256 -3.257,-3.256l-0.4,0c-1.8,0 -3.256,-1.459 -3.256,-3.257l0,-4.672c0,-1.801 1.459,-3.257 3.256,-3.257l28.716,0c10.315,0 19.261,7.572 20.475,17.813c1.094,9.215 -4.045,17.384 -11.741,20.894c-1.718,0.783 -2.444,2.829 -1.557,4.497" style="fill-rule:nonzero;"/><path d="M298.771,38.735l0,-4.437c0,-1.862 1.509,-3.374 3.373,-3.374l42.968,0c1.862,0 3.373,1.509 3.373,3.374l0,4.44c0,1.862 -1.509,3.373 -3.373,3.373l-12.516,0c-1.862,0 -3.373,1.509 -3.373,3.373l0,46.385c0,1.862 1.509,3.373 3.373,3.373l0.164,0c1.863,0 3.373,1.509 3.373,3.373l0,4.437c0,1.863 -1.508,3.373 -3.373,3.373l-18.266,0c-1.862,0 -3.373,-1.508 -3.373,-3.373l0,-4.437c0,-1.861 1.508,-3.373 3.373,-3.373l0.164,0c1.862,0 3.373,-1.509 3.373,-3.373l0,-46.387c0,-1.862 -1.509,-3.373 -3.373,-3.373l-12.516,0c-1.862,0 -3.374,-1.509 -3.371,-3.374" style="fill-rule:nonzero;"/><path d="M358.224,81.743l0,-47.561c0,-1.796 1.457,-3.253 3.255,-3.253l29.86,0c1.797,0 3.253,1.457 3.253,3.253l0,4.679c0,1.798 -1.456,3.255 -3.253,3.255l-18.675,0c-1.796,0 -3.253,1.456 -3.253,3.253l0,1.882c0,1.798 1.457,3.255 3.253,3.255l4.174,0c1.798,0 3.255,1.456 3.255,3.254l0,4.677c0,1.798 -1.457,3.254 -3.255,3.254l-4.174,0c-1.796,0 -3.253,1.457 -3.253,3.254l0,5.611c0,1.797 1.457,3.254 3.253,3.254l18.675,0c1.797,0 3.253,1.457 3.253,3.254l0,4.679c0,1.797 -1.456,3.254 -3.253,3.254l-29.86,0c-1.801,0 -3.255,-1.457 -3.255,-3.254m39.59,19.536c-1.275,2.228 -3.907,3.317 -6.366,2.583c-3.866,-1.153 -8.089,-1.069 -11.898,0.306c-0.303,0.109 -0.621,0.231 -0.934,0.365l-0.281,0.109c-3.282,1.191 -6.726,1.792 -10.239,1.792c-3.22,0 -6.396,-0.513 -9.419,-1.508c-3.451,-1.136 -4.957,-5.183 -3.053,-8.276l0.008,-0.012c1.364,-2.215 4.062,-3.16 6.534,-2.354c3.954,1.287 8.319,1.275 12.242,-0.112c0.437,-0.182 0.879,-0.356 1.332,-0.52c6.008,-2.165 12.616,-2.321 18.688,-0.566c3.524,1.016 5.214,5.015 3.386,8.193" style="fill-rule:nonzero;"/><path d="M16.949,136.413l0,-1.272c0,-0.451 0.365,-0.815 0.814,-0.815l1.212,0c0.451,0 0.814,0.365 0.814,0.815l0,4.113c0,0.45 -0.364,0.813 -0.814,0.813l-11.932,0c-0.449,0 -0.814,-0.364 -0.814,-0.813l0,-1.212c0,-0.45 0.365,-0.815 0.814,-0.815l0.131,0c0.45,0 0.814,-0.364 0.814,-0.813l0,-11.86c0,-0.451 -0.365,-0.814 -0.814,-0.814l-0.127,0c-0.451,0 -0.815,-0.365 -0.815,-0.814l0,-1.212c0,-0.45 0.364,-0.815 0.815,-0.815l4.721,0c0.45,0 0.814,0.366 0.814,0.815l0,1.211c0,0.45 -0.364,0.814 -0.814,0.814l-0.128,0c-0.449,0 -0.813,0.364 -0.813,0.814l0,11.86c0,0.45 0.364,0.814 0.813,0.814l4.496,0c0.45,0 0.814,-0.365 0.814,-0.814l-0.001,0Z" style="fill-rule:nonzero;"/><path d="M24.487,123.32c-0.469,-0.762 -0.138,-1.792 0.71,-2.076c1.629,-0.547 3.434,-0.543 5.054,0.045l0.068,0.026c0.078,0.032 0.158,0.064 0.238,0.093c0.967,0.35 2.038,0.372 3.021,0.078c0.625,-0.186 1.294,0.092 1.618,0.656l0.002,0.006c0.442,0.773 0.085,1.788 -0.767,2.05c-0.722,0.222 -1.477,0.336 -2.238,0.336c-0.892,0 -1.767,-0.153 -2.599,-0.455c-0.113,-0.04 -0.226,-0.085 -0.34,-0.132c-0.996,-0.353 -2.103,-0.356 -3.107,-0.029c-0.628,0.204 -1.314,-0.036 -1.66,-0.598m13.817,14.757l0,1.142c0,0.469 -0.379,0.849 -0.849,0.849l-4.652,0c-0.468,0 -0.848,-0.38 -0.848,-0.849l0,-1.142c0,-0.469 0.38,-0.849 0.848,-0.849l0.046,0l-2.494,-5.067c-0.211,-0.429 -0.823,-0.429 -1.034,0l-2.493,5.067l0.046,0c0.468,0 0.848,0.38 0.848,0.849l0,1.142c0,0.469 -0.38,0.849 -0.848,0.849l-4.653,0c-0.467,0 -0.848,-0.38 -0.848,-0.849l0,-1.142c0,-0.469 0.381,-0.849 0.848,-0.849l0.914,0c0.325,0 0.62,-0.183 0.762,-0.473l4.614,-9.378c0.257,-0.514 0.763,-0.828 1.328,-0.828l0.008,0l0.376,0.002c0.312,0.002 0.599,0.176 0.745,0.452l0.202,0.379l4.611,9.372c0.143,0.291 0.438,0.473 0.762,0.473l0.913,0c0.469,0 0.848,0.381 0.848,0.85" style="fill-rule:nonzero;"/><path d="M53.642,128.353l2.781,0c1.43,0 2.562,-1.309 2.257,-2.792c-0.221,-1.078 -1.223,-1.822 -2.323,-1.822l-2.716,0c-0.456,0 -0.826,0.37 -0.826,0.827l0,2.96c0,0.457 0.37,0.827 0.827,0.827m4.516,3.513l2.613,4.922c0.143,0.269 0.424,0.438 0.73,0.438l0.979,0c0.457,0 0.827,0.37 0.827,0.826l0,1.187c0,0.457 -0.37,0.826 -0.827,0.826l-4.696,0c-0.457,0 -0.827,-0.369 -0.827,-0.826l0,-1.7c0,-0.173 0.14,-0.313 0.312,-0.313c0.236,0 0.387,-0.251 0.276,-0.458l-2.727,-5.137c-0.144,-0.27 -0.424,-0.439 -0.731,-0.439l-0.446,0c-0.456,0 -0.826,0.37 -0.826,0.826l0,4.382c0,0.456 0.37,0.826 0.826,0.826l0.102,0c0.457,0 0.827,0.37 0.827,0.826l0,1.187c0,0.457 -0.371,0.826 -0.827,0.826l-4.697,0c-0.457,0 -0.826,-0.369 -0.826,-0.826l0,-1.187c0,-0.457 0.37,-0.826 0.826,-0.826l0.102,0c0.457,0 0.827,-0.37 0.827,-0.826l0,-11.834c0,-0.458 -0.371,-0.827 -0.827,-0.827l-0.102,0c-0.457,0 -0.826,-0.371 -0.826,-0.827l0,-1.186c0,-0.457 0.37,-0.827 0.826,-0.827l7.289,0c2.619,0 4.89,1.922 5.198,4.522c0.277,2.338 -1.028,4.412 -2.981,5.303c-0.435,0.199 -0.62,0.719 -0.394,1.142" style="fill-rule:nonzero;"/><path d="M73.121,120.899l2.874,0c0.478,0 0.864,0.385 0.867,0.861l0.004,0.559l0,11.455c0,3.612 -3.06,6.522 -6.724,6.277c-3.34,-0.223 -5.86,-3.151 -5.86,-6.5l0,-8.945c0,-0.478 -0.389,-0.866 -0.867,-0.866l-0.03,0c-0.48,0 -0.868,-0.389 -0.868,-0.868l0,-1.106c0,-0.479 0.388,-0.867 0.868,-0.867l2.869,0c0.479,0 0.867,0.388 0.867,0.867l0,12.008c0,2.018 1.738,3.637 3.797,3.437c1.794,-0.175 3.108,-1.788 3.108,-3.59l0,-9.015c0,-0.478 -0.388,-0.866 -0.867,-0.866l-0.039,0c-0.478,0 -0.866,-0.389 -0.866,-0.868l0,-1.106c0,-0.479 0.388,-0.867 0.867,-0.867" style="fill-rule:nonzero;"/><path d="M78.456,122.883l0,-1.126c0,-0.473 0.383,-0.856 0.856,-0.856l10.907,0c0.472,0 0.856,0.382 0.856,0.856l0,1.127c0,0.473 -0.383,0.856 -0.856,0.856l-3.177,0c-0.473,0 -0.857,0.383 -0.857,0.856l0,11.773c0,0.474 0.383,0.858 0.857,0.858l0.042,0c0.473,0 0.856,0.383 0.856,0.855l0,1.127c0,0.472 -0.383,0.856 -0.856,0.856l-4.637,0c-0.472,0 -0.856,-0.383 -0.856,-0.856l0,-1.127c0,-0.472 0.383,-0.855 0.856,-0.855l0.042,0c0.473,0 0.856,-0.384 0.856,-0.858l0,-11.773c0,-0.473 -0.383,-0.857 -0.856,-0.857l-3.178,0c-0.472,0 -0.856,-0.382 -0.855,-0.856" style="fill-rule:nonzero;"/><path d="M98.872,131.784l2.337,0c0.409,0 0.692,-0.406 0.551,-0.79l-1.235,-3.333c-0.166,-0.449 -0.802,-0.449 -0.968,0l-1.235,3.333c-0.141,0.384 0.142,0.79 0.55,0.79m8.013,4.877c0.127,0.34 0.451,0.565 0.813,0.565l0.695,0c0.48,0 0.868,0.389 0.868,0.868l0,1.105c0,0.479 -0.388,0.866 -0.868,0.866l-4.615,0c-0.478,0 -0.866,-0.387 -0.866,-0.866l0,-1.498c0,-0.263 0.212,-0.475 0.474,-0.475c0.331,0 0.56,-0.329 0.445,-0.639l-0.518,-1.398c-0.126,-0.34 -0.45,-0.566 -0.813,-0.566l-4.919,0c-0.362,0 -0.688,0.226 -0.813,0.566l-0.518,1.398c-0.114,0.31 0.115,0.639 0.445,0.639c0.262,0 0.475,0.212 0.475,0.475l0,1.498c0,0.479 -0.389,0.866 -0.867,0.866l-4.616,0c-0.478,0 -0.867,-0.387 -0.867,-0.866l0,-1.105c0,-0.479 0.389,-0.868 0.867,-0.868l0.696,0c0.363,0 0.687,-0.225 0.813,-0.565l5.621,-15.182c0.125,-0.337 0.446,-0.562 0.805,-0.565l0.811,-0.009c0.36,-0.003 0.684,0.217 0.815,0.552l0.153,0.39l5.484,14.814Z" style="fill-rule:nonzero;"/><path d="M130.441,129.401c0,-3.128 -2.535,-5.662 -5.662,-5.662l-0.204,0c-0.454,0 -0.822,0.368 -0.822,0.822l0,11.843c0,0.454 0.368,0.823 0.822,0.823l0.204,0c3.127,0 5.662,-2.535 5.662,-5.662l0,-2.164Zm2.839,0.001l0,2.163c0,4.696 -3.806,8.502 -8.501,8.502l-4.779,0c-0.455,0 -0.824,-0.368 -0.824,-0.822l0,-1.196c0,-0.454 0.369,-0.822 0.824,-0.822l0.09,0c0.455,0 0.824,-0.369 0.824,-0.823l0,-11.842c0,-0.454 -0.369,-0.822 -0.824,-0.822l-0.09,0c-0.455,0 -0.824,-0.369 -0.824,-0.823l0,-1.195c0,-0.454 0.369,-0.823 0.824,-0.823l4.779,0c4.695,0 8.501,3.807 8.501,8.503" style="fill-rule:nonzero;"/><path d="M135.748,133.799l0,-12.071c0,-0.457 0.37,-0.826 0.826,-0.826l7.579,0c0.456,0 0.826,0.369 0.826,0.826l0,1.187c0,0.456 -0.37,0.825 -0.826,0.825l-4.74,0c-0.456,0 -0.825,0.371 -0.825,0.827l0,0.478c0,0.456 0.369,0.825 0.825,0.825l1.06,0c0.456,0 0.826,0.37 0.826,0.826l0,1.188c0,0.456 -0.37,0.826 -0.826,0.826l-1.06,0c-0.456,0 -0.825,0.369 -0.825,0.825l0,1.425c0,0.456 0.369,0.826 0.825,0.826l4.74,0c0.456,0 0.826,0.369 0.826,0.826l0,1.187c0,0.456 -0.37,0.826 -0.826,0.826l-7.579,0c-0.457,0 -0.826,-0.37 -0.826,-0.826m10.05,4.96c-0.324,0.565 -0.992,0.842 -1.616,0.655c-0.982,-0.293 -2.054,-0.271 -3.021,0.078c-0.076,0.028 -0.157,0.059 -0.237,0.092l-0.072,0.028c-0.833,0.302 -1.707,0.456 -2.598,0.456c-0.818,0 -1.624,-0.131 -2.391,-0.384c-0.876,-0.288 -1.259,-1.316 -0.775,-2.1l0.002,-0.004c0.346,-0.561 1.031,-0.802 1.659,-0.597c1.003,0.327 2.111,0.324 3.106,-0.029c0.112,-0.046 0.224,-0.09 0.339,-0.132c1.525,-0.549 3.202,-0.588 4.743,-0.143c0.895,0.258 1.324,1.273 0.861,2.08" style="fill-rule:nonzero;"/><path d="M166.179,123.055l0,-1.473c0,-0.377 0.306,-0.683 0.684,-0.683l4.982,0c0.377,0 0.684,0.306 0.684,0.683l0,1.473c0,0.377 -0.307,0.684 -0.684,0.684l-0.388,0c-0.378,0 -0.683,0.305 -0.683,0.683l0,12.12c0,0.377 0.305,0.684 0.683,0.684l0.388,0c0.377,0 0.684,0.306 0.684,0.683l0,1.472c0,0.378 -0.307,0.684 -0.684,0.684l-4.982,0c-0.378,0 -0.684,-0.306 -0.684,-0.684l0,-1.939c0,-0.119 0.096,-0.216 0.216,-0.216c0.17,0 0.272,-0.188 0.182,-0.33l-5.659,-9.012c-0.115,-0.183 -0.398,-0.102 -0.398,0.115l0,8.543c0,0.377 0.305,0.684 0.683,0.684l0.387,0c0.378,0 0.684,0.306 0.684,0.683l0,1.472c0,0.378 -0.306,0.684 -0.684,0.684l-4.981,0c-0.378,0 -0.685,-0.306 -0.685,-0.684l0,-1.472c0,-0.377 0.307,-0.683 0.685,-0.683l0.386,0c0.378,0 0.684,-0.307 0.684,-0.684l0,-12.12c0,-0.378 -0.306,-0.683 -0.684,-0.683l-0.386,0c-0.378,0 -0.685,-0.307 -0.685,-0.684l0,-1.473c0,-0.377 0.307,-0.683 0.685,-0.683l4.981,0c0.378,0 0.684,0.306 0.684,0.683l0,1.941c0,0.119 -0.096,0.216 -0.216,0.216c-0.169,0 -0.273,0.186 -0.183,0.331l5.659,9.01c0.116,0.184 0.4,0.103 0.4,-0.115l0,-8.543c0,-0.378 -0.307,-0.683 -0.685,-0.683l-0.386,0c-0.378,0 -0.684,-0.307 -0.684,-0.684" style="fill-rule:nonzero;"/><path d="M184.719,120.899l2.874,0c0.477,0 0.863,0.385 0.867,0.861l0.003,0.559l0,11.455c0,3.612 -3.059,6.522 -6.723,6.277c-3.34,-0.223 -5.861,-3.151 -5.861,-6.5l0,-8.945c0,-0.478 -0.389,-0.866 -0.867,-0.866l-0.03,0c-0.479,0 -0.867,-0.389 -0.867,-0.868l0,-1.106c0,-0.479 0.388,-0.867 0.867,-0.867l2.87,0c0.478,0 0.866,0.388 0.866,0.867l0,12.008c0,2.018 1.739,3.637 3.797,3.437c1.794,-0.175 3.108,-1.788 3.108,-3.59l0,-9.015c0,-0.478 -0.387,-0.866 -0.867,-0.866l-0.038,0c-0.479,0 -0.867,-0.389 -0.867,-0.868l0,-1.106c0,-0.479 0.388,-0.867 0.868,-0.867" style="fill-rule:nonzero;"/><path d="M191.428,127.666l0,-5.91c0,-0.474 0.383,-0.857 0.855,-0.857l9.534,0c0.472,0 0.855,0.384 0.855,0.857l0,1.127c0,0.473 -0.384,0.856 -0.855,0.856l-6.694,0c-0.473,0 -0.856,0.384 -0.856,0.857l0,2.9c0,0.473 0.384,0.857 0.856,0.857l3.066,0c0.473,0 0.855,0.383 0.855,0.855l0,1.128c0,0.474 -0.384,0.856 -0.855,0.856l-3.066,0c-0.473,0 -0.856,0.384 -0.856,0.857l0,4.321c0,0.474 0.384,0.857 0.856,0.857l6.694,0c0.472,0 0.855,0.383 0.855,0.856l0,1.126c0,0.473 -0.384,0.856 -0.855,0.856l-9.534,0c-0.472,0 -0.855,-0.383 -0.855,-0.856l0,-7.329c0,-0.38 -0.309,-0.688 -0.687,-0.688c-0.379,0 -0.688,-0.307 -0.688,-0.687l0,-1.464c0,-0.38 0.308,-0.688 0.688,-0.688c0.378,0 0.687,-0.308 0.687,-0.687" style="fill-rule:nonzero;"/><path d="M216.138,134.638c0,3.096 -2.476,5.429 -5.758,5.429c-1.173,0 -2.305,-0.394 -3.27,-1.047c0,0.196 -0.16,0.355 -0.357,0.355l-1.666,0c-0.451,0 -0.817,-0.366 -0.817,-0.817l0,-3.783c0,-0.452 0.366,-0.818 0.817,-0.818l1.283,0c0.385,0 0.726,0.258 0.82,0.631c0.348,1.391 1.781,2.639 3.189,2.639c1.405,0 2.919,-0.812 2.919,-2.591c0,-1.655 -1.134,-2.274 -3.719,-3.291c-2.365,-0.931 -5.309,-2.09 -5.309,-5.606c0,-3.057 2.367,-5.192 5.758,-5.192c1.065,0 2.061,0.296 2.917,0.803l0,-0.142c0,-0.196 0.158,-0.356 0.355,-0.356l1.666,0c0.452,0 0.818,0.366 0.818,0.818l0,3.818c0,0.452 -0.366,0.817 -0.818,0.817l-1.303,0c-0.383,0 -0.705,-0.271 -0.79,-0.645c-0.294,-1.3 -1.459,-2.273 -2.846,-2.273c-1.411,0 -2.918,0.618 -2.918,2.352c0,1.433 1.07,2.003 3.509,2.963c2.33,0.916 5.518,2.171 5.52,5.936" style="fill-rule:nonzero;"/><path d="M217.721,122.883l0,-1.126c0,-0.473 0.383,-0.856 0.855,-0.856l10.908,0c0.472,0 0.856,0.382 0.856,0.856l0,1.127c0,0.473 -0.383,0.856 -0.856,0.856l-3.177,0c-0.474,0 -0.857,0.383 -0.857,0.856l0,11.773c0,0.474 0.383,0.858 0.857,0.858l0.042,0c0.472,0 0.855,0.383 0.855,0.855l0,1.127c0,0.472 -0.382,0.856 -0.855,0.856l-4.638,0c-0.471,0 -0.855,-0.383 -0.855,-0.856l0,-1.127c0,-0.472 0.383,-0.855 0.855,-0.855l0.042,0c0.473,0 0.857,-0.384 0.857,-0.858l0,-11.773c0,-0.473 -0.383,-0.857 -0.857,-0.857l-3.177,0c-0.472,0 -0.856,-0.382 -0.855,-0.856" style="fill-rule:nonzero;"/><path d="M237.36,128.353l2.781,0c1.43,0 2.562,-1.309 2.257,-2.792c-0.221,-1.078 -1.223,-1.822 -2.324,-1.822l-2.715,0c-0.457,0 -0.826,0.37 -0.826,0.827l0,2.96c0,0.457 0.37,0.827 0.827,0.827m4.515,3.513l2.613,4.922c0.143,0.269 0.425,0.438 0.73,0.438l0.98,0c0.457,0 0.827,0.37 0.827,0.826l0,1.187c0,0.457 -0.371,0.826 -0.827,0.826l-4.696,0c-0.457,0 -0.827,-0.369 -0.827,-0.826l0,-1.7c0,-0.173 0.14,-0.313 0.312,-0.313c0.235,0 0.387,-0.251 0.276,-0.458l-2.728,-5.137c-0.143,-0.27 -0.424,-0.439 -0.73,-0.439l-0.446,0c-0.457,0 -0.826,0.37 -0.826,0.826l0,4.382c0,0.456 0.37,0.826 0.826,0.826l0.102,0c0.457,0 0.826,0.37 0.826,0.826l0,1.187c0,0.457 -0.37,0.826 -0.826,0.826l-4.697,0c-0.457,0 -0.827,-0.369 -0.827,-0.826l0,-1.187c0,-0.457 0.371,-0.826 0.827,-0.826l0.102,0c0.457,0 0.826,-0.37 0.826,-0.826l0,-11.834c0,-0.458 -0.37,-0.827 -0.826,-0.827l-0.102,0c-0.457,0 -0.827,-0.371 -0.827,-0.827l0,-1.186c0,-0.457 0.371,-0.827 0.827,-0.827l7.289,0c2.619,0 4.889,1.922 5.198,4.522c0.277,2.338 -1.027,4.412 -2.981,5.303c-0.436,0.199 -0.62,0.719 -0.395,1.142" style="fill-rule:nonzero;"/><path d="M256.669,131.784l2.338,0c0.408,0 0.691,-0.406 0.55,-0.79l-1.235,-3.333c-0.166,-0.449 -0.802,-0.449 -0.968,0l-1.235,3.333c-0.141,0.384 0.142,0.79 0.55,0.79m8.014,4.877c0.126,0.34 0.45,0.565 0.812,0.565l0.696,0c0.479,0 0.867,0.389 0.867,0.868l0,1.105c0,0.479 -0.388,0.866 -0.867,0.866l-4.615,0c-0.479,0 -0.867,-0.387 -0.867,-0.866l0,-1.498c0,-0.263 0.213,-0.475 0.475,-0.475c0.331,0 0.559,-0.329 0.445,-0.639l-0.519,-1.398c-0.126,-0.34 -0.45,-0.566 -0.812,-0.566l-4.92,0c-0.362,0 -0.687,0.226 -0.813,0.566l-0.517,1.398c-0.115,0.31 0.114,0.639 0.444,0.639c0.262,0 0.475,0.212 0.475,0.475l0,1.498c0,0.479 -0.388,0.866 -0.867,0.866l-4.615,0c-0.479,0 -0.867,-0.387 -0.867,-0.866l0,-1.105c0,-0.479 0.388,-0.868 0.867,-0.868l0.695,0c0.363,0 0.687,-0.225 0.813,-0.565l5.621,-15.182c0.125,-0.337 0.446,-0.562 0.806,-0.565l0.81,-0.009c0.36,-0.003 0.684,0.217 0.816,0.552l0.152,0.39l5.485,14.814Z" style="fill-rule:nonzero;"/><path d="M286.596,123.054l0,-1.465c0,-0.379 0.308,-0.687 0.687,-0.687l4.975,0c0.379,0 0.687,0.307 0.687,0.687l0,1.465c0,0.379 -0.307,0.687 -0.687,0.687l-0.381,0c-0.38,0 -0.687,0.307 -0.687,0.687l0,12.112c0,0.379 0.307,0.688 0.687,0.688l0.381,0c0.379,0 0.687,0.306 0.687,0.686l0,1.465c0,0.379 -0.307,0.687 -0.687,0.687l-4.975,0c-0.379,0 -0.687,-0.307 -0.687,-0.687l0,-1.465c0,-0.379 0.308,-0.686 0.687,-0.686l0.38,0c0.38,0 0.688,-0.308 0.688,-0.688l0,-4.726c0,-0.379 -0.308,-0.688 -0.688,-0.688l-5.408,0c-0.379,0 -0.686,0.308 -0.686,0.688l0,4.726c0,0.379 0.306,0.688 0.686,0.688l0.381,0c0.379,0 0.687,0.306 0.687,0.686l0,1.465c0,0.379 -0.307,0.687 -0.687,0.687l-4.976,0c-0.377,0 -0.686,-0.307 -0.686,-0.687l0,-1.465c0,-0.379 0.308,-0.686 0.686,-0.686l0.381,0c0.38,0 0.688,-0.308 0.688,-0.688l0,-12.112c0,-0.38 -0.308,-0.687 -0.688,-0.687l-0.381,0c-0.377,0 -0.686,-0.308 -0.686,-0.687l0,-1.465c0,-0.379 0.308,-0.687 0.686,-0.687l4.976,0c0.379,0 0.687,0.307 0.687,0.687l0,1.465c0,0.379 -0.307,0.687 -0.687,0.687l-0.381,0c-0.379,0 -0.686,0.307 -0.686,0.687l0,3.171c0,0.379 0.306,0.687 0.686,0.687l5.408,0c0.38,0 0.688,-0.307 0.688,-0.687l0,-3.171c0,-0.38 -0.308,-0.687 -0.688,-0.687l-0.38,0c-0.379,0 -0.687,-0.308 -0.687,-0.687" style="fill-rule:nonzero;"/><path d="M303.544,127.182l0,1.161c0,0.464 -0.375,0.839 -0.838,0.839l-0.078,0c-0.463,0 -0.838,0.376 -0.838,0.839l0,6.368c0,0.463 0.375,0.838 0.838,0.838l0.078,0c0.463,0 0.838,0.376 0.838,0.839l0,1.163c0,0.463 -0.375,0.838 -0.838,0.838l-4.672,0c-0.463,0 -0.839,-0.375 -0.839,-0.838l0,-1.163c0,-0.463 0.376,-0.839 0.839,-0.839l0.077,0c0.463,0 0.839,-0.375 0.839,-0.838l0,-6.368c0,-0.463 -0.376,-0.839 -0.839,-0.839l-0.077,0c-0.463,0 -0.839,-0.375 -0.839,-0.839l0,-1.161c0,-0.464 0.376,-0.839 0.839,-0.839l4.672,0c0.463,0 0.838,0.375 0.838,0.839m2.136,-3.176c-0.933,0.391 -1.939,0.596 -2.956,0.596c-0.892,0 -1.766,-0.153 -2.599,-0.455c-0.113,-0.041 -0.227,-0.086 -0.343,-0.133c-1.121,-0.396 -2.374,-0.352 -3.465,0.104c-0.385,0.162 -0.829,0.033 -1.048,-0.325l-0.616,-0.997c-0.262,-0.427 -0.098,-0.998 0.359,-1.205c1.8,-0.814 3.902,-0.91 5.768,-0.236l0.076,0.03c0.108,0.046 0.217,0.086 0.329,0.123c1.09,0.363 2.244,0.211 3.35,-0.098c0.367,-0.102 0.76,0.048 0.952,0.385l0.585,1.02c0.249,0.433 0.069,0.997 -0.392,1.191" style="fill-rule:nonzero;"/><path d="M319.635,134.638c0,3.096 -2.476,5.429 -5.758,5.429c-1.173,0 -2.305,-0.394 -3.27,-1.047c0,0.196 -0.16,0.355 -0.357,0.355l-1.666,0c-0.451,0 -0.817,-0.366 -0.817,-0.817l0,-3.783c0,-0.452 0.366,-0.818 0.817,-0.818l1.283,0c0.385,0 0.726,0.258 0.82,0.631c0.348,1.391 1.781,2.639 3.189,2.639c1.405,0 2.919,-0.812 2.919,-2.591c0,-1.655 -1.134,-2.274 -3.719,-3.291c-2.365,-0.931 -5.309,-2.09 -5.309,-5.606c0,-3.057 2.367,-5.192 5.758,-5.192c1.065,0 2.06,0.296 2.916,0.803l0,-0.142c0,-0.196 0.159,-0.356 0.356,-0.356l1.666,0c0.452,0 0.818,0.366 0.818,0.818l0,3.818c0,0.452 -0.366,0.817 -0.818,0.817l-1.303,0c-0.383,0 -0.705,-0.271 -0.79,-0.645c-0.294,-1.3 -1.459,-2.273 -2.846,-2.273c-1.411,0 -2.918,0.618 -2.918,2.352c0,1.433 1.07,2.003 3.509,2.963c2.33,0.916 5.518,2.171 5.52,5.936" style="fill-rule:nonzero;"/><path d="M321.216,122.883l0,-1.126c0,-0.473 0.383,-0.856 0.855,-0.856l10.908,0c0.472,0 0.856,0.382 0.856,0.856l0,1.127c0,0.473 -0.383,0.856 -0.856,0.856l-3.177,0c-0.473,0 -0.857,0.383 -0.857,0.856l0,11.773c0,0.474 0.383,0.858 0.857,0.858l0.042,0c0.472,0 0.855,0.383 0.855,0.855l0,1.127c0,0.472 -0.382,0.856 -0.855,0.856l-4.637,0c-0.472,0 -0.856,-0.383 -0.856,-0.856l0,-1.127c0,-0.472 0.383,-0.855 0.856,-0.855l0.041,0c0.473,0 0.857,-0.384 0.857,-0.858l0,-11.773c0,-0.473 -0.383,-0.857 -0.857,-0.857l-3.177,0c-0.472,0 -0.856,-0.382 -0.855,-0.856" style="fill-rule:nonzero;"/><path d="M347.422,127.999c0,-2.35 -1.91,-4.26 -4.259,-4.26l-0.632,0c-2.347,0 -4.257,1.91 -4.257,4.26l0,4.969c0,2.348 1.91,4.259 4.257,4.259l0.632,0c2.349,0 4.259,-1.911 4.259,-4.259l0,-4.969Zm2.84,0l0,4.969c0,3.914 -3.185,7.097 -7.099,7.097l-0.632,0c-3.913,0 -7.097,-3.183 -7.097,-7.097l0,-4.969c0,-3.915 3.184,-7.1 7.097,-7.1l0.632,0c3.914,0 7.099,3.185 7.099,7.1" style="fill-rule:nonzero;"/><path d="M357.27,128.353l2.781,0c1.43,0 2.562,-1.309 2.257,-2.792c-0.221,-1.078 -1.223,-1.822 -2.323,-1.822l-2.715,0c-0.458,0 -0.827,0.37 -0.827,0.827l0,2.96c0,0.457 0.37,0.827 0.827,0.827m4.516,3.513l2.613,4.922c0.143,0.269 0.424,0.438 0.73,0.438l0.98,0c0.456,0 0.826,0.37 0.826,0.826l0,1.187c0,0.457 -0.37,0.826 -0.826,0.826l-4.697,0c-0.456,0 -0.827,-0.369 -0.827,-0.826l0,-1.7c0,-0.173 0.14,-0.313 0.313,-0.313c0.235,0 0.386,-0.251 0.275,-0.458l-2.727,-5.137c-0.144,-0.27 -0.424,-0.439 -0.731,-0.439l-0.445,0c-0.458,0 -0.827,0.37 -0.827,0.826l0,4.382c0,0.456 0.37,0.826 0.827,0.826l0.101,0c0.457,0 0.827,0.37 0.827,0.826l0,1.187c0,0.457 -0.371,0.826 -0.827,0.826l-4.697,0c-0.456,0 -0.826,-0.369 -0.826,-0.826l0,-1.187c0,-0.457 0.37,-0.826 0.826,-0.826l0.103,0c0.456,0 0.826,-0.37 0.826,-0.826l0,-11.834c0,-0.458 -0.37,-0.827 -0.826,-0.827l-0.103,0c-0.456,0 -0.826,-0.371 -0.826,-0.827l0,-1.186c0,-0.457 0.37,-0.827 0.826,-0.827l7.29,0c2.618,0 4.889,1.922 5.197,4.522c0.277,2.338 -1.027,4.412 -2.981,5.303c-0.435,0.199 -0.62,0.719 -0.394,1.142" style="fill-rule:nonzero;"/><path d="M368.532,122.926l0,-1.212c0,-0.45 0.365,-0.814 0.814,-0.814l4.722,0c0.449,0 0.814,0.365 0.814,0.814l0,1.211c0,0.45 -0.365,0.814 -0.814,0.814l-0.128,0c-0.45,0 -0.813,0.365 -0.813,0.814l0,11.86c0,0.451 0.364,0.815 0.813,0.815l0.125,0c0.449,0 0.814,0.364 0.814,0.813l0,1.213c0,0.449 -0.365,0.814 -0.814,0.814l-4.722,0c-0.45,0 -0.814,-0.365 -0.814,-0.814l0,-1.213c0,-0.45 0.364,-0.813 0.814,-0.813l0.13,0c0.451,0 0.814,-0.365 0.814,-0.815l0,-11.86c0,-0.45 -0.364,-0.814 -0.814,-0.814l-0.127,0c-0.45,0 -0.814,-0.364 -0.814,-0.813" style="fill-rule:nonzero;"/><path d="M379.585,123.32c-0.469,-0.762 -0.138,-1.792 0.71,-2.076c1.629,-0.547 3.434,-0.543 5.054,0.045l0.068,0.026c0.079,0.032 0.158,0.064 0.238,0.093c0.967,0.35 2.038,0.372 3.021,0.078c0.624,-0.186 1.293,0.092 1.618,0.656l0.002,0.006c0.442,0.773 0.085,1.788 -0.768,2.05c-0.721,0.222 -1.476,0.336 -2.237,0.336c-0.892,0 -1.767,-0.153 -2.6,-0.455c-0.112,-0.04 -0.226,-0.085 -0.34,-0.132c-0.995,-0.353 -2.102,-0.356 -3.106,-0.029c-0.628,0.204 -1.314,-0.036 -1.66,-0.598m13.816,14.757l0,1.142c0,0.469 -0.378,0.849 -0.848,0.849l-4.652,0c-0.468,0 -0.848,-0.38 -0.848,-0.849l0,-1.142c0,-0.469 0.38,-0.849 0.848,-0.849l0.046,0l-2.494,-5.067c-0.211,-0.429 -0.823,-0.429 -1.033,0l-2.494,5.067l0.046,0c0.468,0 0.848,0.38 0.848,0.849l0,1.142c0,0.469 -0.38,0.849 -0.848,0.849l-4.653,0c-0.467,0 -0.848,-0.38 -0.848,-0.849l0,-1.142c0,-0.469 0.381,-0.849 0.848,-0.849l0.914,0c0.324,0 0.62,-0.183 0.762,-0.473l4.614,-9.378c0.257,-0.514 0.763,-0.828 1.328,-0.828l0.008,0l0.376,0.002c0.312,0.002 0.599,0.176 0.745,0.452l0.201,0.379l4.611,9.372c0.144,0.291 0.439,0.473 0.763,0.473l0.913,0c0.469,0 0.848,0.381 0.847,0.85" style="fill-rule:nonzero;"/></g></svg>