<?xml version="1.0" encoding="UTF-8" standalone="no"?><!DOCTYPE svg PUBLIC "-//W3C//DTD SVG 1.1//EN" "http://www.w3.org/Graphics/SVG/1.1/DTD/svg11.dtd"><svg width="100%" height="100%" viewBox="0 0 399 599" version="1.1" xmlns="http://www.w3.org/2000/svg" xmlns:xlink="http://www.w3.org/1999/xlink" xml:space="preserve" xmlns:serif="http://www.serif.com/" style="fill-rule:evenodd;clip-rule:evenodd;stroke-linejoin:round;stroke-miterlimit:2;"><rect id="Página-2" serif:id="Página 2" x="-262.858" y="-280" width="1920" height="1080" style="fill:none;"/><g id="Capa-1" serif:id="Capa 1"><path d="M80.391,319.359c2.483,-3.525 4.861,-6.158 6.408,-9.594c-6.896,0.456 -7.278,0.989 -6.408,9.594m0.527,78.869c-0.275,0.085 -0.55,0.169 -0.826,0.253c0,4.156 -0.004,8.313 0.002,12.468c0.001,1.213 0.569,1.952 1.833,1.961c3.408,0.024 6.818,0.04 10.225,0.015c1.472,-0.01 1.968,-0.685 0.877,-1.856c-4.011,-4.305 -8.07,-8.564 -12.111,-12.841m-10.861,-24.511c0.268,-0.108 0.536,-0.217 0.805,-0.326c0,-7.49 0.001,-14.98 -0.003,-22.471c0,-0.557 0.097,-1.261 -0.572,-1.452c-0.84,-0.239 -1.113,0.54 -1.502,1.086c-2.516,3.526 -5.05,7.037 -7.571,10.559c-0.669,0.934 -1.415,1.815 -0.28,2.991c3.069,3.177 6.085,6.405 9.123,9.613m-12.215,-24.38c0.277,0.096 0.553,0.192 0.828,0.289c1.172,-1.638 2.18,-3.43 3.544,-4.888c7.006,-7.488 9.951,-16.075 8.784,-26.452c-0.763,-6.781 -0.144,-6.852 -6.618,-8.817c-0.218,-0.065 -0.447,-0.11 -0.653,-0.205c-1.719,-0.796 -2.19,0.007 -2.318,1.626c-0.278,3.521 -0.703,7.031 -1.028,10.548c-0.857,9.298 -1.693,18.599 -2.539,27.899m-2.722,-68.135c-5.702,-0.004 -5.793,0.033 -3.746,4.978c3.253,7.858 9.001,13.039 17.184,15.45c13.123,3.869 28.139,-4.514 31.566,-17.624c0.24,-0.916 0.992,-1.963 -0.382,-2.674c-2.501,-1.295 -7.583,0.394 -8.873,2.875c-3.224,6.2 -8.259,9.54 -15.345,9.623c-7.112,0.084 -12.371,-3.158 -15.447,-9.384c-1.285,-2.601 -2.561,-3.861 -4.957,-3.244m20.332,-30.222c-11.146,-0.026 -21.094,7.011 -24.543,17.49c-0.394,1.195 -1.659,2.913 0.567,3.745c3.316,1.241 6.899,-0.316 8.608,-3.422c3.238,-5.882 8.292,-9.162 14.976,-9.263c6.501,-0.099 12.151,2.519 14.942,8.485c1.854,3.962 4.259,4.552 7.958,4.372c2.553,-0.124 2.78,-0.924 2.133,-3.131c-3.138,-10.71 -13.215,-18.251 -24.641,-18.276m-4.598,148.931c0,-2.739 -0.185,-5.492 0.049,-8.209c0.269,-3.128 -0.848,-5.4 -3.07,-7.537c-3.118,-3 -5.921,-6.325 -8.932,-9.439c-0.819,-0.846 -1.47,-2.528 -2.835,-2.025c-1.148,0.423 -0.6,2.041 -0.703,3.13c-1.085,11.336 -2.066,22.682 -3.247,34.007c-0.238,2.275 0.244,3.168 2.583,3.122c4.447,-0.088 8.898,-0.083 13.345,0.002c2.03,0.038 2.905,-0.682 2.839,-2.786c-0.106,-3.419 -0.028,-6.843 -0.029,-10.265m28.109,4.727c0,-1.546 0.037,-1.997 -0.005,-2.44c-1.328,-13.967 -2.683,-27.931 -3.992,-41.899c-1.171,-12.497 -2.29,-24.998 -3.435,-37.497c-0.061,-0.664 0.025,-1.492 -0.791,-1.713c-0.816,-0.22 -1.177,0.531 -1.57,1.076c-2.267,3.15 -4.448,6.368 -6.814,9.442c-1.684,2.187 -2.358,4.472 -2.331,7.267c0.128,13.253 0.22,26.51 -0.037,39.759c-0.083,4.228 1.068,7.307 4.113,10.25c4.963,4.796 9.506,10.027 14.862,15.755m8.549,-13.218c0.584,6.364 1.255,12.722 1.712,19.096c0.187,2.607 1.927,2.077 3.423,2.079c15.208,0.022 30.417,0.014 45.625,0.013c5.146,0 10.296,0.113 15.436,-0.05c2.606,-0.083 3.723,0.583 3.606,3.433c-0.28,6.846 0.846,5.768 -5.85,5.772c-48.256,0.032 -96.51,0.025 -144.766,-0.017c-1.336,-0.002 -3.459,0.864 -3.815,-1.145c-0.426,-2.408 -0.748,-5.019 0.276,-7.397c0.402,-0.935 1.64,-0.582 2.526,-0.587c4.687,-0.022 9.377,-0.062 14.064,0.018c1.831,0.032 2.594,-0.537 2.766,-2.491c1.273,-14.445 2.649,-28.881 4.021,-43.317c1.542,-16.255 3.115,-32.508 4.673,-48.762c0.425,-4.433 0.76,-8.877 1.305,-13.295c0.223,-1.807 -0.833,-2.715 -1.86,-3.781c-13.971,-14.502 -13.431,-36.163 1.238,-49.923c13.282,-12.458 34.59,-12.037 47.789,0.945c13.277,13.058 14.079,34.211 1.645,47.696c-1.849,2.004 -2.189,3.797 -1.912,6.412c1.393,13.174 2.483,26.379 3.733,39.568c1.098,11.594 2.268,23.18 3.408,34.769c-0.203,3.7 0.527,7.318 0.957,10.964" style="fill:#52b9aa;fill-rule:nonzero;"/><path d="M67.691,222.817c2.885,0 6.17,-0.116 9.443,0.042c2.021,0.098 3.399,-0.643 4.788,-2.032c28.04,-28.033 56.122,-56.024 84.184,-84.033c0.797,-0.795 2.028,-1.45 2.062,-2.645c0.114,-4.047 0.044,-8.098 0.044,-12.662c-33.832,34.103 -67.176,67.717 -100.521,101.33m-28.697,-0.001c3.927,0 7.654,-0.111 11.371,0.041c2.228,0.09 3.826,-0.592 5.425,-2.19c36.124,-36.107 72.291,-72.171 108.493,-108.198c2.491,-2.479 4.656,-4.742 4.092,-8.76c-0.455,-3.244 -0.093,-6.602 -0.093,-10.415c-43.383,43.462 -86.136,86.292 -129.288,129.522m128.781,-74.409c-24.622,24.773 -49.222,49.522 -73.88,74.33c0.318,0.408 1.307,0.052 2.168,0.052c22.986,0.019 45.974,-0.028 68.961,0.07c2.629,0.011 3.234,-0.823 3.225,-3.329c-0.09,-22.873 -0.048,-45.746 -0.071,-68.619c-0.001,-0.845 0.405,-1.82 -0.403,-2.504m-36.356,-31.469c14.993,-15.041 29.985,-30.082 44.943,-45.088c1.364,0.884 0.811,1.887 0.812,2.705c0.024,50.988 -0.024,101.975 0.112,152.963c0.009,3.609 -1.023,4.298 -4.401,4.291c-48.014,-0.11 -96.028,-0.075 -144.043,-0.075c-6.471,0 -6.471,0 -5.658,-6.669c3.102,-2.909 6.393,-5.635 8.856,-9.162c1.06,-0.019 1.547,-0.884 2.175,-1.512c19.376,-19.357 38.747,-38.719 58.105,-58.094c0.551,-0.55 0.964,-1.238 1.44,-1.862c2.162,-1.58 3.929,-3.564 5.677,-5.54c0.855,-0.58 1.932,-0.953 2.238,-2.133c0.168,-0.01 0.261,-0.099 0.28,-0.266c0.128,-0.128 0.257,-0.255 0.385,-0.382c0.177,-0.022 0.277,-0.122 0.299,-0.298c0.127,-0.13 0.255,-0.26 0.383,-0.389c0.174,-0.028 0.274,-0.129 0.302,-0.303c0.13,-0.128 0.259,-0.256 0.388,-0.384c0.174,-0.025 0.274,-0.124 0.298,-0.299c0.131,-0.129 0.261,-0.259 0.392,-0.388c0.176,-0.021 0.273,-0.119 0.294,-0.294c0.129,-0.131 0.258,-0.262 0.387,-0.393c0.172,-0.027 0.272,-0.126 0.298,-0.299c0.13,-0.129 0.26,-0.258 0.391,-0.388c0.174,-0.024 0.273,-0.122 0.296,-0.296c0.131,-0.13 0.263,-0.26 0.394,-0.39c0.174,-0.02 0.272,-0.117 0.292,-0.292c0.129,-0.132 0.259,-0.263 0.388,-0.395c0.173,-0.026 0.272,-0.125 0.298,-0.297c0.13,-0.13 0.261,-0.259 0.391,-0.389c0.174,-0.023 0.273,-0.122 0.297,-0.296c0.129,-0.13 0.26,-0.259 0.391,-0.389c0.175,-0.022 0.273,-0.12 0.294,-0.295l0.387,-0.393c0.173,-0.026 0.272,-0.126 0.3,-0.298c0.13,-0.129 0.261,-0.258 0.392,-0.387c0.175,-0.022 0.273,-0.12 0.295,-0.294c0.131,-0.131 0.262,-0.262 0.393,-0.392c0.174,-0.021 0.272,-0.119 0.293,-0.293l0.389,-0.394c0.172,-0.026 0.271,-0.125 0.297,-0.297c0.131,-0.13 0.262,-0.259 0.393,-0.389c0.174,-0.022 0.271,-0.121 0.294,-0.294c0.132,-0.131 0.262,-0.261 0.393,-0.392c0.175,-0.021 0.273,-0.118 0.293,-0.292c0.129,-0.132 0.259,-0.264 0.388,-0.395c0.172,-0.026 0.271,-0.126 0.298,-0.297c0.131,-0.13 0.262,-0.259 0.393,-0.388c0.175,-0.022 0.273,-0.12 0.294,-0.294c0.131,-0.13 0.263,-0.261 0.394,-0.392c0.174,-0.021 0.271,-0.119 0.292,-0.293c0.131,-0.131 0.261,-0.263 0.39,-0.395c0.172,-0.025 0.271,-0.123 0.295,-0.295c0.131,-0.13 0.263,-0.261 0.395,-0.391c0.173,-0.022 0.27,-0.119 0.292,-0.293c0.133,-0.131 0.265,-0.262 0.396,-0.394c0.174,-0.019 0.271,-0.115 0.289,-0.289c0.131,-0.133 0.262,-0.266 0.392,-0.399c0.171,-0.024 0.27,-0.122 0.294,-0.293c0.132,-0.131 0.265,-0.262 0.396,-0.393c0.174,-0.02 0.271,-0.116 0.29,-0.289c0.133,-0.133 0.266,-0.264 0.398,-0.397c0.174,-0.019 0.269,-0.115 0.289,-0.288c0.131,-0.133 0.262,-0.265 0.394,-0.398c0.17,-0.024 0.268,-0.121 0.293,-0.293l0.395,-0.393c0.173,-0.021 0.271,-0.118 0.292,-0.291c0.132,-0.131 0.265,-0.263 0.398,-0.394c0.172,-0.019 0.269,-0.116 0.289,-0.289c0.129,-0.132 0.26,-0.265 0.391,-0.397c0.172,-0.025 0.27,-0.123 0.295,-0.295l0.396,-0.391c0.175,-0.024 0.269,-0.124 0.282,-0.301l0.302,-0.063l0.025,-0.306c0.215,-0.111 0.345,-0.286 0.39,-0.524c3.028,-2.384 5.646,-5.182 8.17,-8.077" style="fill:#e6323c;fill-rule:nonzero;"/><path d="M306.062,268.041c-0.016,0.001 -0.031,0.001 -0.047,0.002c0.519,10.493 1.026,20.986 1.576,31.477c0.043,0.83 -0.441,2 0.713,2.385c0.904,0.301 1.35,-0.684 1.881,-1.218c10.717,-10.767 21.395,-21.574 32.15,-32.302c1.382,-1.378 1.102,-2.15 -0.216,-3.239c-9.995,-8.247 -21.422,-12.89 -34.344,-13.933c-2.307,-0.186 -2.679,0.83 -2.529,2.807c0.351,4.667 0.553,9.346 0.816,14.021m-36.193,45.55c-0.001,-0.288 -0.001,-0.575 -0.002,-0.863c-7.647,-0.35 -15.303,-0.569 -22.936,-1.113c-3.031,-0.217 -3.748,0.788 -3.47,3.621c1.253,12.737 5.664,24.138 13.723,34.15c1.714,2.13 2.684,2.282 4.667,0.243c10.919,-11.221 21.994,-22.289 32.998,-33.427c0.583,-0.59 1.802,-1.013 1.207,-2.136c-0.433,-0.817 -1.457,-0.453 -2.207,-0.456c-7.993,-0.031 -15.987,-0.019 -23.98,-0.019m10.693,-9.285c-0.001,0.229 -0.001,0.459 -0.001,0.688c5.254,0 10.513,-0.133 15.76,0.063c2.23,0.083 2.788,-0.62 2.648,-2.699c-0.358,-5.359 -0.581,-10.727 -0.832,-16.093c-0.49,-10.506 -0.968,-21.013 -1.438,-31.52c-0.082,-1.839 -0.159,-3.492 -2.837,-2.954c-6.192,1.245 -12.166,3.062 -17.83,5.912c-1.795,0.902 -2.038,1.978 -1.699,3.832c2.368,12.894 -7.479,22.658 -20.276,20.085c-1.92,-0.387 -2.893,-0.041 -3.786,1.718c-2.654,5.233 -4.497,10.712 -5.779,16.43c-0.6,2.673 0.215,3.316 2.827,3.38c11.084,0.272 22.162,0.753 33.243,1.158m-46.49,8.913c0.172,-17.407 4.947,-31.198 13.807,-43.666c1.142,-1.607 1.975,-1.609 3.138,-0.248c0.073,0.086 0.165,0.158 0.253,0.231c4.807,4.053 8.822,4.408 12.132,1.074c3.196,-3.221 2.956,-7.176 -1.054,-11.852c-1.472,-1.717 -1.592,-2.448 0.443,-3.846c29.953,-20.564 66.932,-16.75 91.964,9.483c1.768,1.853 1.761,2.827 -0.027,4.623c-24.838,24.946 -49.603,49.964 -74.38,74.972c-6.114,6.171 -12.271,12.301 -18.263,18.589c-1.764,1.852 -2.797,2.174 -4.866,0.246c-15.008,-13.994 -22.59,-31.234 -23.147,-49.606" style="fill:#88be4c;fill-rule:nonzero;"/><path d="M331.425,351.438l0,0.34c2.97,0 5.955,-0.179 8.907,0.054c2.674,0.21 3.614,-0.436 3.379,-3.353c-0.898,-11.107 -4.661,-21.085 -10.906,-30.263c-1.701,-2.501 -2.706,-2.137 -4.565,-0.233c-9.662,9.901 -19.447,19.683 -29.167,29.527c-0.589,0.597 -1.856,1.039 -1.329,2.11c0.454,0.923 1.642,0.49 2.5,0.528c10.393,0.45 20.787,0.865 31.181,1.29m-45.872,10.892c-0.971,-0.309 -1.329,0.212 -1.707,0.592c-11.746,11.833 -23.458,23.7 -35.254,35.484c-1.707,1.706 -1.074,2.505 0.536,3.619c10.755,7.443 22.652,11.052 35.724,11.082c2.739,0.006 3.217,-1.07 3.088,-3.484c-0.592,-11.062 -1.027,-22.131 -1.558,-33.196c-0.228,-4.739 -0.555,-9.473 -0.829,-14.097m33.442,-2.545c0,-0.294 0,-0.588 0.001,-0.882c-7.306,0 -14.614,0.052 -21.92,-0.036c-1.853,-0.023 -2.67,0.337 -2.56,2.434c0.832,15.975 1.591,31.953 2.302,47.934c0.087,1.976 0.842,2.288 2.569,1.807c5.091,-1.418 9.868,-3.542 14.517,-6.033c1.927,-1.032 2.297,-2.062 1.717,-4.314c-3.18,-12.341 6.898,-23.084 19.487,-20.822c2.003,0.36 2.631,-0.341 3.313,-1.865c2.063,-4.608 3.431,-9.409 4.538,-14.329c0.542,-2.409 -0.119,-2.923 -2.39,-2.985c-7.195,-0.198 -14.383,-0.591 -21.574,-0.909m34.141,-8.997c-0.04,15.84 -3.92,28.414 -11.136,40.066c-1.402,2.266 -2.349,2.215 -4.11,0.617c-1.339,-1.216 -2.859,-2.325 -4.742,-2.612c-3.421,-0.521 -6.063,0.793 -7.871,3.67c-1.915,3.048 -1.407,6.196 1.36,9.397c2.905,3.362 2.905,3.362 -0.416,5.845c-28.286,21.148 -64.644,19.123 -90.7,-4.966c-1.796,-1.66 -1.787,-2.576 -0.084,-4.291c31.249,-31.451 62.444,-62.956 93.617,-94.482c1.325,-1.34 2.049,-1.931 3.727,-0.184c13.186,13.727 20.112,29.989 20.355,46.94" style="fill:#e6323c;fill-rule:nonzero;"/><path d="M327.091,181.739c-4.156,-3.904 -4.09,-3.815 0.325,-7.112c2.636,-1.968 5.063,-4.225 7.504,-6.44c0.708,-0.642 1.96,-1.308 1.576,-2.406c-0.426,-1.223 -1.793,-0.612 -2.725,-0.62c-7.291,-0.062 -14.581,-0.051 -21.871,-0.063c-1.062,-0.432 -2.124,-0.864 -3.187,-1.296c-2.332,-2.261 -4.664,-4.522 -6.997,-6.782c-0.189,-0.381 -0.379,-0.761 -0.568,-1.142c12.569,-0.026 25.138,-0.056 37.708,-0.076c5.408,-0.009 5.315,-0.038 7.293,-5.045c1.023,-2.59 0.783,-3.616 -2.361,-3.536c-7.194,0.185 -14.397,0.034 -21.596,0.065c-9.82,0.043 -19.639,0.128 -29.458,0.195c-0.451,-0.016 -0.901,-0.033 -1.351,-0.049c-0.376,-0.967 -0.764,-1.926 -1.925,-2.21c-2.283,-2.31 -4.566,-4.62 -6.85,-6.93c0,0.001 -0.021,0.03 -0.021,0.03c1.196,-0.566 2.473,-0.354 3.719,-0.355c19.784,-0.008 39.568,-0.065 59.351,0.065c2.816,0.018 3.797,-0.828 3.929,-3.574c0.893,-18.468 -8.022,-38.194 -26.753,-48.802c-8.12,-4.598 -16.822,-7.073 -26.149,-7.097c-24.129,-0.061 -48.258,-0.039 -72.388,-0.041c-0.649,0 -1.3,0.114 -2.854,0.259c14.4,13.938 28.288,27.379 42.753,41.38l-22.39,0c0.201,-0.403 0.271,-0.76 0.487,-0.948c4.148,-3.605 4.16,-3.611 0.107,-7.536c-13.719,-13.279 -27.448,-26.548 -41.158,-39.836c-0.542,-0.525 -1.68,-0.831 -1.396,-1.754c0.362,-1.178 1.563,-0.639 2.388,-0.639c31.334,-0.018 62.67,-0.252 94.001,0.08c27.496,0.291 51.279,17.503 59.197,42.056c8.763,27.175 -0.345,54.439 -23.728,71.052c-0.458,0.325 -0.865,0.722 -1.297,1.086c-0.404,0.027 -0.808,0.054 -1.212,0.082c-0.702,-0.687 -1.403,-1.374 -2.103,-2.061" style="fill:#52b9aa;fill-rule:nonzero;"/><path d="M31.927,93.956c0,9.87 -0.007,19.738 0.006,29.605c0.003,1.835 0.91,1.536 1.887,0.689c2.068,-1.792 4.184,-3.542 6.124,-5.467c1.627,-1.616 2.78,-1.695 4.421,0.113c3.522,3.885 7.272,7.564 10.939,11.317c4.857,4.972 4.761,4.862 9.814,0.074c1.944,-1.841 1.697,-2.795 -0.073,-4.534c-10.169,-9.997 -20.206,-20.128 -30.316,-30.185c-0.666,-0.663 -1.121,-1.76 -2.802,-1.612m0,58.114c3.281,-2.877 5.947,-5.008 8.355,-7.399c1.545,-1.533 2.479,-1.335 3.871,0.157c4.443,4.766 9.103,9.332 13.492,14.147c1.768,1.94 2.826,2.247 4.773,0.131c4.256,-4.623 8.812,-8.97 13.249,-13.426c4.713,-4.732 4.632,-4.647 -0.022,-9.342c-1.766,-1.78 -2.83,-1.558 -4.402,0.139c-3.028,3.27 -6.334,6.284 -9.346,9.567c-1.501,1.637 -2.438,1.427 -3.821,-0.078c-3.093,-3.367 -6.27,-6.663 -9.536,-9.863c-2.253,-2.208 -3.968,-6.212 -6.873,-6.17c-2.818,0.041 -4.932,3.69 -7.329,5.783c-1.082,0.944 -2.467,1.652 -2.433,3.481c0.072,3.972 0.022,7.947 0.022,12.873m0.113,63.834c-2.463,3.527 -5.754,6.252 -8.855,9.161c-0.108,-1.471 -0.309,-2.942 -0.309,-4.412c-0.017,-48.445 -0.019,-96.89 0.021,-145.335c0,-1.012 -0.801,-2.531 0.623,-2.994c1.049,-0.341 1.634,1.045 2.336,1.743c14.341,14.253 28.665,28.522 42.993,42.787c1.682,3.121 4.492,5.199 6.996,7.559c0.481,0.341 0.963,0.684 1.444,1.026c7.111,7.11 14.221,14.22 21.332,21.33c0.276,0.704 0.552,1.408 0.828,2.112c-1.759,1.991 -3.526,3.974 -5.688,5.554c-1.47,-1.434 -3.077,-2.754 -4.378,-4.328c-1.905,-2.304 -3.246,-2.593 -5.567,-0.138c-7.054,7.459 -14.469,14.575 -21.643,21.923c-1.625,1.664 -2.608,1.882 -4.316,0.024c-4.634,-5.036 -9.56,-9.802 -14.225,-14.811c-1.455,-1.561 -2.422,-1.569 -3.881,-0.138c-2.033,1.994 -4.208,3.849 -6.374,5.703c-1.035,0.885 -1.469,1.88 -1.463,3.264c0.072,16.656 0.092,33.313 0.126,49.97" style="fill:#88be4c;fill-rule:nonzero;"/><path d="M95.725,79.511c3.08,5.223 7.716,9.151 11.519,13.773c0.761,0.927 1.394,0.431 1.475,-0.693c4.522,-3.494 4.289,-3.531 2.727,-8.661c-1.697,-5.569 -3.164,-11.224 -4.607,-16.864c-2.177,-8.514 -4.191,-17.063 -7.002,-25.4c-0.127,-0.795 0.335,-1.787 -1.175,-2.663c-4.442,16.715 -8.809,33.152 -13.397,50.419c2.081,-1.345 2.228,-2.691 2.876,-3.716c1.432,0.02 2.065,-1.189 3.025,-1.919c1.671,-1.272 2.505,-3.424 4.559,-4.276m-19.881,44.902c-2.504,-2.36 -5.313,-4.439 -6.996,-7.559c2.743,-7.229 4.096,-14.847 6.146,-22.268c3.106,-11.253 5.734,-22.637 8.628,-33.949c2.693,-10.521 5.473,-21.019 8.205,-31.531c2.104,-8.1 4.072,-16.239 6.393,-24.277c0.459,-1.591 -1.082,-4.118 1.796,-4.829c-0.235,2.056 -0.173,4.054 0.444,6.089c1.252,4.132 2.377,8.307 3.43,12.495c3.799,15.108 7.5,30.24 11.325,45.341c3.794,14.978 7.188,30.086 11.777,44.82c2.073,6.657 1.617,11.332 -3.937,15.396c-1.111,-0.139 -1.684,-1.048 -1.689,-1.888c-0.022,-3.488 -1.602,-6.577 -2.353,-9.87c-0.945,-4.144 -2.258,-8.204 -3.411,-12.3c-0.378,-2.11 -1.3,-0.924 -1.966,-0.262c-1.907,1.896 -3.75,3.856 -5.618,5.791c-1.181,0.156 -1.736,-0.609 -2.451,-1.404c-3.359,-3.73 -6.331,-7.83 -10.337,-10.948c-1.477,-1.369 -2.116,0.262 -2.653,0.961c-2.869,3.742 -6.426,6.814 -9.651,10.206c-1.604,1.686 -2.7,3.534 -3.252,5.865c-1.122,4.743 -2.536,9.418 -3.83,14.121" style="fill:#fff;fill-rule:nonzero;"/><path d="M367.59,220.215c1.819,1.34 3.395,2.925 4.744,4.737c0.235,0.252 0.468,0.504 0.701,0.756l-0.013,-0.014c0.233,0.233 0.466,0.467 0.7,0.701l-0.012,-0.016c0.055,1.326 0.751,2.011 2.071,2.072l-0.012,-0.013c-0.011,0.444 -0.021,0.888 -0.032,1.332c-33.835,0.028 -67.672,0.055 -101.508,0.082c-9.148,-1.905 -18.322,-3.734 -27.202,-9.637l120.563,0Z" style="fill:#fff;fill-rule:nonzero;"/><path d="M348.383,201.682c1.576,1.121 2.926,2.47 4.05,4.045c0.233,0.254 0.466,0.508 0.699,0.761l-0.009,-0.013c0.269,0.831 0.538,1.661 0.891,2.75l-3.872,0c-35.23,0 -70.459,0.008 -105.688,-0.009c-4.895,-0.002 -9.997,0.952 -14.196,-2.727l0.012,0.011c0.028,-1.043 -0.01,-2.039 -1.438,-2.071c-0.207,-0.205 -0.415,-0.409 -0.622,-0.615c-0.121,-2.961 2.113,-2.113 3.621,-2.114c38.851,-0.03 77.701,-0.02 116.552,-0.018" style="fill:#fff;fill-rule:nonzero;"/><path d="M329.193,183.8c0.404,-0.027 0.809,-0.054 1.213,-0.082c1.725,2.626 5.213,3.654 6.257,6.898c-1.195,1.37 -2.792,0.739 -4.195,0.741c-36.814,0.039 -73.629,0.033 -110.444,0.035l0.008,0.009c-0.225,-1.108 -0.409,-2.226 -0.681,-3.321c-1.054,-4.25 -1.065,-4.247 3.418,-4.248c34.809,-0.011 69.616,-0.021 104.424,-0.032" style="fill:#fff;fill-rule:nonzero;"/><path d="M290.901,97.423c-5.271,0.049 -9.659,4.43 -9.602,9.586c0.057,5.082 4.637,9.477 9.82,9.422c5.15,-0.055 9.722,-4.628 9.627,-9.628c-0.099,-5.143 -4.597,-9.429 -9.845,-9.38m0.051,-8.841c10.346,-0.016 18.629,8.149 18.612,18.35c-0.017,10.132 -8.449,18.415 -18.683,18.351c-10.058,-0.062 -18.435,-8.335 -18.484,-18.256c-0.05,-10.179 8.249,-18.429 18.555,-18.445" style="fill:#ffd122;fill-rule:nonzero;"/><path d="M107.512,391.42c-0.43,-3.646 -1.16,-7.264 -0.957,-10.964c7.135,-3.824 13.306,-3.233 18.908,2.786c4.107,4.412 8,4.236 12.063,-0.051c6.681,-7.05 14.728,-6.834 22.118,-0.091c2.029,1.851 3.734,4.054 6.966,3.58c1.145,-0.168 1.557,0.727 1.561,1.778c0.003,0.686 0.005,1.372 0.007,2.058c0.016,5.659 -1.144,6.528 -6.666,5.026c-2.86,-0.779 -5.038,-2.57 -7.091,-4.607c-4.899,-4.862 -6.998,-5.024 -11.623,-0.055c-6.292,6.758 -16.285,6.702 -22.477,0.203c-4.901,-5.142 -6.295,-5.018 -11.662,-0.399c-0.341,0.293 -0.763,0.493 -1.147,0.736" style="fill:#98999c;fill-rule:nonzero;"/><path d="M156.42,370.838c-2.854,-1.381 -5.626,-2.207 -8.678,-2.099c-4.204,0.15 -7.748,1.532 -10.753,4.526c-4.422,4.405 -6.567,4.402 -10.933,0.118c-1.659,-1.628 -3.44,-3.072 -5.674,-3.714c-1.956,-0.562 -2.059,-1.761 -1.714,-3.405c1.748,-8.344 11.174,-15.248 19.978,-14.597c9.408,0.696 17.664,8.774 18.026,17.656c0.018,0.421 -0.136,0.849 -0.252,1.515" style="fill:#ffd122;fill-rule:nonzero;"/><path d="M289.458,145.222c1.161,0.284 1.549,1.243 1.925,2.21c-0.001,0 -0.187,0.197 -0.187,0.197c-0.682,-0.053 -1.365,-0.152 -2.047,-0.153c-21.389,-0.007 -42.779,-0.006 -64.169,-0.004c-0.571,0 -1.183,-0.107 -1.707,0.056c-2.934,0.915 -2.753,3.798 -3.096,5.907c-0.389,2.391 2.038,1.543 3.29,1.548c16.585,0.06 33.172,-0.066 49.756,0.086c7.862,0.071 15.756,-0.757 23.593,0.573c0.915,0.155 1.907,0.129 1.984,-1.222l0.178,-0.18c0.723,0.546 1.446,1.092 2.169,1.638c0.19,0.381 0.379,0.761 0.569,1.142c-26.53,0.011 -53.062,0.007 -79.593,0.056c-2.824,0.004 -4.248,-0.747 -3.052,-3.846c0.32,-0.829 0.226,-1.81 0.472,-2.679c0.856,-3.037 2.427,-4.577 6.062,-4.539c19.897,0.203 39.797,0.108 59.696,0.07c1.406,-0.003 3.017,0.592 4.157,-0.86" style="fill:#fff;fill-rule:nonzero;"/><path d="M329.193,183.8c-34.808,0.011 -69.615,0.021 -104.424,0.032c-4.483,0.001 -4.472,-0.002 -3.418,4.248c0.272,1.095 0.456,2.213 0.681,3.321c-2.249,-1.913 -2.351,-4.779 -3.209,-7.301c-0.324,-0.951 0.175,-1.459 1.152,-1.654c1.56,-0.313 3.084,-0.67 4.711,-0.668c31.841,0.033 63.683,0.068 95.524,-0.068c2.29,-0.01 4.603,1.882 6.879,0.029c0.702,0.687 1.403,1.374 2.104,2.061" style="fill:#fff;fill-rule:nonzero;"/><path d="M367.59,220.215l-120.563,0c8.88,5.903 18.054,7.732 27.201,9.637c-0.023,0.205 -0.021,0.411 0.005,0.616c-8.36,0.019 -15.917,-2.906 -23.229,-6.537c-1.805,-0.896 -3.859,-1.407 -5.373,-2.902c-0.419,-0.412 -0.933,-0.735 -0.767,-1.374c0.167,-0.644 0.756,-0.782 1.353,-0.793c0.685,-0.013 1.37,-0.013 2.055,-0.013c38.352,0 76.705,-0.004 115.057,0.012c1.534,0.001 3.286,-0.49 4.261,1.354" style="fill:#fff;fill-rule:nonzero;"/><path d="M230.258,206.489c4.199,3.679 9.301,2.726 14.196,2.728c35.229,0.017 70.458,0.009 105.688,0.009l3.872,0c-0.353,-1.09 -0.622,-1.92 -0.891,-2.751c1.017,0.007 1.666,0.658 2.304,1.321c0.552,0.573 1.242,1.152 0.903,2.051c-0.366,0.975 -1.314,0.695 -2.078,0.744c-0.454,0.029 -0.913,0.006 -1.369,0.006c-38.818,0 -77.636,-0.023 -116.453,0.042c-3.187,0.005 -5.203,-1.145 -6.172,-4.15" style="fill:#fff;fill-rule:nonzero;"/><path d="M348.383,201.682c-38.851,-0.002 -77.701,-0.012 -116.552,0.018c-1.508,0.001 -3.742,-0.847 -3.621,2.114c-0.909,-0.674 -2.178,-1.319 -1.832,-2.61c0.407,-1.519 1.923,-0.877 2.952,-0.878c38.377,-0.031 76.755,-0.027 115.133,-0.021c1.457,0 3.046,-0.31 3.92,1.377" style="fill:#fff;fill-rule:nonzero;"/><path d="M308.713,163.802c1.062,0.432 2.125,0.864 3.187,1.296c-0.233,1.488 1.484,2.214 1.422,3.636l-0.005,0.004c-4.8,-4.778 -10.894,-3.413 -16.651,-3.424c-24.478,-0.047 -48.957,-0.038 -73.434,-0.007c-5.837,0.008 -5.141,-0.939 -5.324,5.292c-0.063,2.189 0.569,2.997 2.877,2.992c31.341,-0.062 62.683,-0.039 94.024,-0.048c1.091,0 2.413,0.327 2.635,-1.382l-0.018,0.021c1.193,0.746 2.056,1.523 -0.118,2.007c-0.763,0.17 -1.594,0.036 -2.394,0.036c-31.073,0 -62.147,0 -93.221,-0.001c-4.477,0 -4.499,-0.003 -4.499,-4.406c0.001,-6.014 -0.389,-5.162 5.081,-5.167c27.417,-0.027 54.835,-0.004 82.253,-0.037c1.414,-0.002 3.01,0.564 4.185,-0.812" style="fill:#fff;fill-rule:nonzero;"/><path d="M222.024,191.391c36.814,-0.001 73.63,0.004 110.444,-0.035c1.403,-0.002 3,0.629 4.195,-0.74c0.556,0.263 1.657,0.569 0.584,1.217c-0.773,0.467 -1.992,0.245 -3.012,0.246c-36.107,0.008 -72.214,0.013 -108.321,-0.018c-1.303,-0.001 -2.767,0.535 -3.89,-0.67" style="fill:#fff;fill-rule:nonzero;"/><path d="M274.232,230.468c-0.025,-0.205 -0.027,-0.411 -0.005,-0.617c33.837,-0.027 67.674,-0.054 101.511,-0.081c0.468,0.018 0.935,0.035 1.402,0.053c-0.616,0.947 -1.592,0.741 -2.479,0.74c-33.477,-0.026 -66.952,-0.061 -100.429,-0.095" style="fill:#fff;fill-rule:nonzero;"/><path d="M230.944,130.296c0.149,-1.595 1.164,-2.048 2.602,-2.046c12.19,0.015 24.381,0.005 36.573,0.045c0.646,0.001 1.292,0.38 1.938,0.584c-0.029,0.273 -0.058,0.545 -0.087,0.816c-11.875,-0.024 -23.752,-0.026 -35.628,-0.093c-1.846,-0.011 -3.627,0.179 -5.383,0.707l-0.015,-0.013Z" style="fill:#fff;fill-rule:nonzero;"/><path d="M279.772,138.432c-17.356,0.038 -34.712,0.077 -52.068,0.105c-0.77,0.001 -1.745,0.204 -2.046,-0.784c-0.267,-0.871 0.415,-1.181 1.169,-1.283l0.014,0.014c0.545,2.265 2.395,1.321 3.664,1.326c16.404,0.075 32.808,0.064 49.211,0.074c0.012,0.183 0.031,0.366 0.056,0.548" style="fill:#fff;fill-rule:nonzero;"/><path d="M279.772,138.432c-0.025,-0.182 -0.044,-0.365 -0.056,-0.548c-1.874,-3.401 -5.848,-4.812 -7.748,-8.188c0.031,-0.272 0.06,-0.544 0.089,-0.817c4.352,2.208 7.315,5.966 10.528,9.444c0.001,0 0.022,-0.03 0.022,-0.031c-0.944,0.047 -1.89,0.094 -2.835,0.14" style="fill:#fff;fill-rule:nonzero;"/><path d="M228.201,133.73c0.084,-1.368 0.973,-2.134 2.061,-2.75l0.01,0.014c0.065,1.478 -0.288,2.643 -2.058,2.745l-0.013,-0.009Z" style="fill:#fff;fill-rule:nonzero;"/><path d="M375.781,228.451c-1.32,-0.061 -2.017,-0.746 -2.071,-2.072c1.29,0.092 1.982,0.78 2.071,2.072" style="fill:#fff;fill-rule:nonzero;"/><path d="M228.832,204.429c1.428,0.032 1.466,1.029 1.437,2.071c-0.919,-0.384 -1.331,-1.121 -1.437,-2.071" style="fill:#fff;fill-rule:nonzero;"/><path d="M377.14,229.823c-0.467,-0.018 -0.935,-0.035 -1.402,-0.053c0.009,-0.445 0.019,-0.888 0.03,-1.333c0.881,0.043 1.366,0.476 1.372,1.386" style="fill:#fff;fill-rule:nonzero;"/><path d="M227.51,135.098c0.016,-0.564 0.137,-1.076 0.691,-1.368c0,-0.001 0.013,0.009 0.013,0.009c-0.004,0.569 -0.12,1.083 -0.683,1.374l-0.021,-0.015Z" style="fill:#fff;fill-rule:nonzero;"/><path d="M226.827,136.47c0.006,-0.567 0.129,-1.077 0.683,-1.371c0,-0.001 0.021,0.015 0.021,0.015c-0.007,0.569 -0.131,1.079 -0.689,1.37l-0.015,-0.014Z" style="fill:#fff;fill-rule:nonzero;"/><path d="M316.053,171.494c0.578,-0.011 1.077,0.135 1.374,0.687c-0.001,0 0.018,-0.02 0.018,-0.02c-0.569,-0.009 -1.086,-0.118 -1.379,-0.682l-0.013,0.015Z" style="fill:#fff;fill-rule:nonzero;"/><path d="M373.721,226.394c-0.233,-0.233 -0.467,-0.467 -0.7,-0.701c0.233,0.234 0.467,0.468 0.7,0.701" style="fill:#fff;fill-rule:nonzero;"/><path d="M373.035,225.707c-0.233,-0.252 -0.467,-0.503 -0.701,-0.756c0.233,0.252 0.468,0.504 0.701,0.756" style="fill:#fff;fill-rule:nonzero;"/><path d="M353.132,206.489c-0.233,-0.253 -0.466,-0.507 -0.699,-0.761c0.233,0.253 0.466,0.507 0.699,0.761" style="fill:#fff;fill-rule:nonzero;"/><path d="M314.684,170.116l0.695,0.677l-0.695,-0.677Z" style="fill:#fff;"/><path d="M314.684,170.115l0.008,-0.008l-0.685,-0.686l-0.008,0.008l0.685,0.686Z" style="fill:#fff;"/><path d="M230.261,130.98l0.697,-0.671l-0.697,0.671Z" style="fill:#fff;"/><path d="M98.621,146.768c1.019,-0.002 2.037,-0.005 3.056,-0.007c-0.308,1.181 -1.385,1.554 -2.24,2.133c-0.264,-0.718 -0.541,-1.422 -0.816,-2.126" style="fill:#1d1d1b;fill-rule:nonzero;"/><path d="M119.794,128.659c0.047,-0.218 0.18,-0.349 0.396,-0.394c-0.132,0.132 -0.264,0.263 -0.396,0.394" style="fill:#1d1d1b;fill-rule:nonzero;"/><path d="M120.481,127.975c0.047,-0.219 0.18,-0.352 0.398,-0.396c-0.133,0.133 -0.266,0.265 -0.398,0.396" style="fill:#1d1d1b;fill-rule:nonzero;"/><path d="M121.854,126.6c0.047,-0.218 0.179,-0.349 0.396,-0.392c-0.132,0.131 -0.264,0.262 -0.396,0.392" style="fill:#1d1d1b;fill-rule:nonzero;"/><path d="M122.532,125.909c0.023,-0.201 0.133,-0.324 0.327,-0.37c0,0.001 -0.025,0.307 -0.025,0.307l-0.302,0.063Z" style="fill:#1d1d1b;fill-rule:nonzero;"/><path d="M111.559,136.892c0.046,-0.217 0.178,-0.347 0.394,-0.39c-0.132,0.131 -0.263,0.26 -0.394,0.39" style="fill:#1d1d1b;fill-rule:nonzero;"/><path d="M106.068,142.384c0.047,-0.217 0.179,-0.348 0.395,-0.392c-0.132,0.132 -0.264,0.262 -0.395,0.392" style="fill:#1d1d1b;fill-rule:nonzero;"/><path d="M106.755,141.701c0.044,-0.217 0.174,-0.349 0.389,-0.396c-0.13,0.133 -0.26,0.264 -0.389,0.396" style="fill:#1d1d1b;fill-rule:nonzero;"/><path d="M107.44,141.009c0.046,-0.216 0.177,-0.346 0.392,-0.39c-0.131,0.131 -0.262,0.26 -0.392,0.39" style="fill:#1d1d1b;fill-rule:nonzero;"/><path d="M108.128,140.324c0.046,-0.216 0.177,-0.347 0.393,-0.391c-0.132,0.132 -0.263,0.262 -0.393,0.391" style="fill:#1d1d1b;fill-rule:nonzero;"/><path d="M108.813,139.64c0.044,-0.216 0.174,-0.348 0.388,-0.394c-0.13,0.132 -0.259,0.263 -0.388,0.394" style="fill:#1d1d1b;fill-rule:nonzero;"/><path d="M109.5,138.949c0.047,-0.216 0.179,-0.346 0.394,-0.388c-0.132,0.13 -0.263,0.259 -0.394,0.388" style="fill:#1d1d1b;fill-rule:nonzero;"/><path d="M110.187,138.268c0.045,-0.218 0.177,-0.349 0.394,-0.393c-0.132,0.132 -0.263,0.263 -0.394,0.393" style="fill:#1d1d1b;fill-rule:nonzero;"/><path d="M110.873,137.583c0.044,-0.217 0.175,-0.349 0.391,-0.395c-0.131,0.132 -0.261,0.264 -0.391,0.395" style="fill:#1d1d1b;fill-rule:nonzero;"/><path d="M117.734,130.717c0.048,-0.218 0.181,-0.349 0.397,-0.394c-0.132,0.132 -0.265,0.263 -0.397,0.394" style="fill:#1d1d1b;fill-rule:nonzero;"/><path d="M112.246,136.209c0.046,-0.218 0.178,-0.349 0.395,-0.393c-0.132,0.132 -0.263,0.262 -0.395,0.393" style="fill:#1d1d1b;fill-rule:nonzero;"/><path d="M112.932,135.525c0.043,-0.217 0.173,-0.35 0.389,-0.396c-0.13,0.133 -0.26,0.265 -0.389,0.396" style="fill:#1d1d1b;fill-rule:nonzero;"/><path d="M113.618,134.833c0.047,-0.216 0.179,-0.347 0.395,-0.389c-0.132,0.13 -0.264,0.26 -0.395,0.389" style="fill:#1d1d1b;fill-rule:nonzero;"/><path d="M114.305,134.152c0.045,-0.219 0.177,-0.35 0.395,-0.394c-0.132,0.132 -0.264,0.263 -0.395,0.394" style="fill:#1d1d1b;fill-rule:nonzero;"/><path d="M114.991,133.466c0.044,-0.218 0.175,-0.35 0.392,-0.396c-0.131,0.133 -0.261,0.265 -0.392,0.396" style="fill:#1d1d1b;fill-rule:nonzero;"/><path d="M115.677,132.776c0.047,-0.217 0.179,-0.349 0.396,-0.392c-0.133,0.131 -0.265,0.262 -0.396,0.392" style="fill:#1d1d1b;fill-rule:nonzero;"/><path d="M116.363,132.093c0.047,-0.219 0.18,-0.351 0.397,-0.395c-0.132,0.132 -0.264,0.264 -0.397,0.395" style="fill:#1d1d1b;fill-rule:nonzero;"/><path d="M117.049,131.409c0.045,-0.219 0.176,-0.352 0.393,-0.399c-0.131,0.133 -0.262,0.266 -0.393,0.399" style="fill:#1d1d1b;fill-rule:nonzero;"/><path d="M101.955,146.496c0.044,-0.214 0.173,-0.342 0.387,-0.383c-0.13,0.129 -0.259,0.256 -0.387,0.383" style="fill:#1d1d1b;fill-rule:nonzero;"/><path d="M102.639,145.816c0.042,-0.215 0.17,-0.346 0.384,-0.39c-0.129,0.131 -0.257,0.26 -0.384,0.39" style="fill:#1d1d1b;fill-rule:nonzero;"/><path d="M121.168,127.292c0.044,-0.219 0.175,-0.352 0.393,-0.398c-0.132,0.133 -0.263,0.266 -0.393,0.398" style="fill:#1d1d1b;fill-rule:nonzero;"/><path d="M118.421,130.035c0.047,-0.219 0.181,-0.352 0.399,-0.397c-0.133,0.133 -0.266,0.265 -0.399,0.397" style="fill:#1d1d1b;fill-rule:nonzero;"/><path d="M104.011,144.441c0.046,-0.216 0.177,-0.347 0.393,-0.389c-0.132,0.13 -0.262,0.26 -0.393,0.389" style="fill:#1d1d1b;fill-rule:nonzero;"/><path d="M104.696,143.759c0.043,-0.217 0.173,-0.349 0.388,-0.395c-0.13,0.133 -0.259,0.264 -0.388,0.395" style="fill:#1d1d1b;fill-rule:nonzero;"/><path d="M119.107,129.35c0.045,-0.219 0.177,-0.353 0.394,-0.399c-0.132,0.133 -0.263,0.266 -0.394,0.399" style="fill:#1d1d1b;fill-rule:nonzero;"/><path d="M105.382,143.067c0.046,-0.215 0.177,-0.345 0.392,-0.389c-0.132,0.131 -0.262,0.26 -0.392,0.389" style="fill:#1d1d1b;fill-rule:nonzero;"/><path d="M103.324,145.124c0.045,-0.214 0.175,-0.343 0.389,-0.386c-0.13,0.13 -0.259,0.258 -0.389,0.386" style="fill:#1d1d1b;fill-rule:nonzero;"/><path d="M292.733,147.481c2.081,2.253 4.162,4.507 6.243,6.759c0.001,-0.001 -0.177,0.18 -0.176,0.178c-3.69,-0.967 -5.581,-3.952 -7.604,-6.789c0,0 0.185,-0.197 0.186,-0.197c0.451,0.016 0.901,0.033 1.351,0.049" style="fill:#fff;fill-rule:nonzero;"/><path d="M291.196,147.629c2.023,2.837 3.914,5.822 7.604,6.79c-0.078,1.352 -1.069,1.378 -1.984,1.223c-7.838,-1.33 -15.731,-0.502 -23.594,-0.574c-16.584,-0.151 -33.171,-0.025 -49.755,-0.085c-1.252,-0.005 -3.679,0.843 -3.291,-1.548c0.343,-2.11 0.163,-4.992 3.097,-5.907c0.524,-0.164 1.136,-0.056 1.707,-0.056c21.39,-0.002 42.779,-0.004 64.169,0.004c0.682,0.001 1.364,0.1 2.047,0.153" style="fill:#fff;fill-rule:nonzero;"/><path d="M313.316,168.738c0.229,0.228 0.46,0.456 0.689,0.684c0.229,0.229 0.458,0.457 0.687,0.686c0.229,0.228 0.458,0.457 0.687,0.685c0.229,0.229 0.458,0.458 0.686,0.687c0.293,0.564 0.811,0.673 1.379,0.682c-0.223,1.708 -1.545,1.381 -2.636,1.381c-31.341,0.009 -62.682,-0.014 -94.023,0.049c-2.309,0.004 -2.941,-0.804 -2.877,-2.993c0.182,-6.231 -0.514,-5.284 5.323,-5.291c24.478,-0.032 48.956,-0.041 73.435,0.007c5.756,0.01 11.85,-1.355 16.65,3.423" style="fill:#fff;fill-rule:nonzero;"/><path d="M230.272,130.994c0.229,-0.229 0.458,-0.457 0.687,-0.686c1.756,-0.527 3.537,-0.717 5.383,-0.707c11.876,0.068 23.753,0.07 35.628,0.094c1.898,3.377 5.872,4.788 7.746,8.189c-16.403,-0.01 -32.807,0.001 -49.211,-0.074c-1.269,-0.005 -3.119,0.939 -3.664,-1.326c0.559,-0.291 0.683,-0.801 0.69,-1.37c0.562,-0.292 0.678,-0.806 0.682,-1.375c1.771,-0.102 2.123,-1.267 2.059,-2.745" style="fill:#fff;fill-rule:nonzero;"/><path d="M81.449,462.123l0,-2.044c0,-0.63 0.51,-1.141 1.141,-1.141l5.959,0c0.473,0 0.857,0.384 0.857,0.858l0,1.845c0,0.473 -0.384,0.857 -0.857,0.857l-0.485,0c-0.473,0 -0.857,0.383 -0.857,0.856l0,15.19c0,0.474 0.384,0.857 0.857,0.857l0.485,0c0.473,0 0.857,0.384 0.857,0.858l0,1.843c0,0.474 -0.384,0.858 -0.857,0.858l-6.244,0c-0.473,0 -0.857,-0.384 -0.857,-0.858l0,-1.843c0,-0.474 0.384,-0.858 0.857,-0.858l0.485,0c0.473,0 0.857,-0.383 0.857,-0.857l0,-8.926c0,-0.481 -0.642,-0.642 -0.871,-0.219l-4.487,8.339c-0.323,0.602 -1.186,0.602 -1.51,0l-4.486,-8.339c-0.229,-0.423 -0.871,-0.262 -0.871,0.219l0,8.927c0,0.474 0.383,0.857 0.857,0.857l0.484,0c0.474,0 0.858,0.384 0.858,0.858l0,1.843c0,0.475 -0.384,0.858 -0.858,0.858l-6.243,0c-0.473,0 -0.857,-0.383 -0.857,-0.858l0,-1.843c0,-0.474 0.384,-0.858 0.857,-0.858l0.485,0c0.473,0 0.857,-0.383 0.857,-0.857l0,-15.19c0,-0.473 -0.384,-0.857 -0.857,-0.857l-0.485,0c-0.473,0 -0.857,-0.384 -0.857,-0.857l0,-1.844c0,-0.474 0.384,-0.858 0.857,-0.858l5.96,0c0.629,0 1.14,0.51 1.14,1.141l0,2.043c0,0.207 -0.167,0.375 -0.374,0.375c-0.282,0 -0.464,0.303 -0.329,0.552l4.29,7.972c0.139,0.261 0.513,0.261 0.654,0l4.289,-7.972c0.134,-0.25 -0.047,-0.552 -0.33,-0.552c-0.207,0 -0.374,-0.168 -0.371,-0.375" style="fill:#fff;fill-rule:nonzero;"/><path d="M111.428,472.581l2.929,0c0.512,0 0.867,-0.511 0.689,-0.99l-1.547,-4.178c-0.208,-0.563 -1.006,-0.563 -1.215,0l-1.546,4.178c-0.177,0.479 0.178,0.99 0.69,0.99m10.042,6.111c0.158,0.426 0.565,0.709 1.02,0.709l0.872,0c0.599,0 1.086,0.487 1.086,1.087l0,1.386c0,0.6 -0.487,1.086 -1.086,1.086l-5.785,0c-0.6,0 -1.087,-0.486 -1.087,-1.086l0,-1.878c0,-0.328 0.267,-0.595 0.595,-0.595c0.414,0 0.701,-0.413 0.558,-0.8l-0.649,-1.752c-0.158,-0.426 -0.564,-0.709 -1.019,-0.709l-6.165,0c-0.455,0 -0.861,0.283 -1.02,0.709l-0.648,1.752c-0.144,0.387 0.142,0.8 0.557,0.8c0.329,0 0.595,0.267 0.595,0.595l0,1.878c0,0.6 -0.486,1.086 -1.087,1.086l-5.784,0c-0.6,0 -1.087,-0.486 -1.087,-1.086l0,-1.386c0,-0.6 0.487,-1.087 1.087,-1.087l0.871,0c0.455,0 0.862,-0.283 1.02,-0.709l7.045,-19.027c0.156,-0.423 0.558,-0.705 1.009,-0.709l1.015,-0.01c0.452,-0.004 0.858,0.272 1.023,0.692l0.191,0.489l6.873,18.565Z" style="fill:#fff;fill-rule:nonzero;"/><path d="M149.23,461.64l0,-1.845c0,-0.473 0.384,-0.857 0.857,-0.857l6.244,0c0.473,0 0.857,0.384 0.857,0.857l0,1.845c0,0.474 -0.384,0.857 -0.857,0.857l-0.485,0c-0.473,0 -0.857,0.383 -0.857,0.857l0,15.189c0,0.474 0.384,0.858 0.857,0.858l0.485,0c0.473,0 0.857,0.384 0.857,0.857l0,1.844c0,0.474 -0.384,0.857 -0.857,0.857l-6.244,0c-0.473,0 -0.857,-0.383 -0.857,-0.857l0,-2.431c0,-0.149 0.121,-0.27 0.271,-0.27c0.212,0 0.341,-0.234 0.229,-0.414l-7.094,-11.294c-0.143,-0.231 -0.499,-0.128 -0.499,0.143l0,10.707c0,0.474 0.384,0.858 0.858,0.858l0.484,0c0.474,0 0.857,0.384 0.857,0.857l0,1.844c0,0.474 -0.383,0.857 -0.857,0.857l-6.243,0c-0.474,0 -0.858,-0.383 -0.858,-0.857l0,-1.844c0,-0.473 0.384,-0.857 0.858,-0.857l0.484,0c0.474,0 0.858,-0.384 0.858,-0.858l0,-15.189c0,-0.474 -0.384,-0.857 -0.858,-0.857l-0.484,0c-0.474,0 -0.858,-0.383 -0.858,-0.857l0,-1.845c0,-0.473 0.384,-0.857 0.858,-0.857l6.243,0c0.474,0 0.857,0.384 0.857,0.857l0,2.431c0,0.15 -0.121,0.271 -0.27,0.271c-0.213,0 -0.343,0.234 -0.23,0.414l7.093,11.294c0.145,0.23 0.5,0.128 0.5,-0.144l0,-10.707c0,-0.474 -0.384,-0.857 -0.857,-0.857l-0.485,0c-0.473,0 -0.857,-0.383 -0.857,-0.857" style="fill:#fff;fill-rule:nonzero;"/><path d="M169.136,461.478l0,-1.52c0,-0.563 0.457,-1.02 1.02,-1.02l5.917,0c0.565,0 1.021,0.457 1.021,1.02l0,1.519c0,0.563 -0.457,1.021 -1.021,1.021l-0.16,0c-0.563,0 -1.019,0.456 -1.019,1.019l0,14.864c0,0.565 0.457,1.021 1.019,1.021l0.157,0c0.563,0 1.02,0.457 1.02,1.02l0,1.519c0,0.563 -0.458,1.02 -1.02,1.02l-5.918,0c-0.564,0 -1.02,-0.457 -1.02,-1.02l0,-1.519c0,-0.564 0.457,-1.02 1.02,-1.02l0.164,0c0.563,0 1.02,-0.457 1.02,-1.021l0,-14.864c0,-0.563 -0.457,-1.019 -1.02,-1.019l-0.16,0c-0.564,0 -1.02,-0.458 -1.02,-1.02" style="fill:#fff;fill-rule:nonzero;"/><path d="M190.112,458.922l0.708,-0.018l13.531,0c0.607,0 1.1,0.493 1.1,1.1l0,1.191l-0.274,0.47l-10.781,17.14c-0.163,0.261 0.024,0.597 0.33,0.597l6.067,0c0.606,0 1.099,-0.492 1.099,-1.099l0,-1.549c0,-0.607 0.492,-1.1 1.101,-1.1l1.358,0c0.609,0 1.101,0.493 1.101,1.1l0,5.095c0,0.597 -0.48,1.087 -1.078,1.098l-0.701,0.014l-13.531,0c-0.607,0 -1.1,-0.492 -1.1,-1.101l0,-1.192l0.274,-0.47l10.781,-17.137c0.163,-0.26 -0.024,-0.598 -0.331,-0.598l-6.065,0c-0.608,0 -1.101,0.492 -1.101,1.1l0,1.561c0,0.608 -0.492,1.1 -1.099,1.1l-1.36,0c-0.607,0 -1.099,-0.492 -1.099,-1.1l0,-5.101c0,-0.597 0.474,-1.085 1.07,-1.101" style="fill:#fff;fill-rule:nonzero;"/><path d="M227.47,472.581l2.93,0c0.512,0 0.868,-0.511 0.689,-0.99l-1.547,-4.178c-0.209,-0.563 -1.006,-0.563 -1.215,0l-1.546,4.178c-0.177,0.479 0.178,0.99 0.689,0.99m10.044,6.111c0.157,0.426 0.564,0.709 1.019,0.709l0.872,0c0.599,0 1.086,0.487 1.086,1.087l0,1.386c0,0.6 -0.487,1.086 -1.086,1.086l-5.785,0c-0.6,0 -1.087,-0.486 -1.087,-1.086l0,-1.878c0,-0.328 0.267,-0.595 0.595,-0.595c0.414,0 0.701,-0.413 0.558,-0.8l-0.649,-1.752c-0.158,-0.426 -0.564,-0.709 -1.019,-0.709l-6.165,0c-0.455,0 -0.862,0.283 -1.02,0.709l-0.648,1.752c-0.144,0.387 0.143,0.8 0.557,0.8c0.329,0 0.595,0.267 0.595,0.595l0,1.878c0,0.6 -0.486,1.086 -1.087,1.086l-5.784,0c-0.6,0 -1.086,-0.486 -1.086,-1.086l0,-1.386c0,-0.6 0.486,-1.087 1.086,-1.087l0.872,0c0.454,0 0.861,-0.283 1.019,-0.709l7.045,-19.027c0.157,-0.423 0.558,-0.705 1.008,-0.709l1.017,-0.01c0.451,-0.004 0.857,0.272 1.022,0.692l0.191,0.489l6.874,18.565Z" style="fill:#fff;fill-rule:nonzero;"/><path d="M265.858,478.382l0,-1.595c0,-0.564 0.457,-1.02 1.021,-1.02l1.519,0c0.563,0 1.02,0.457 1.02,1.02l0,5.156c0,0.564 -0.457,1.02 -1.02,1.02l-14.955,0c-0.564,0 -1.021,-0.458 -1.021,-1.02l0,-1.52c0,-0.563 0.457,-1.02 1.021,-1.02l0.163,0c0.564,0 1.021,-0.457 1.021,-1.02l0,-14.864c0,-0.565 -0.457,-1.021 -1.021,-1.021l-0.159,0c-0.565,0 -1.021,-0.457 -1.021,-1.019l0,-1.52c0,-0.563 0.458,-1.02 1.021,-1.02l5.918,0c0.563,0 1.02,0.457 1.02,1.02l0,1.519c0,0.563 -0.458,1.02 -1.02,1.02l-0.16,0c-0.564,0 -1.02,0.456 -1.02,1.02l0,14.864c0,0.564 0.456,1.021 1.02,1.021l5.633,0c0.564,0 1.021,-0.458 1.021,-1.021l-0.001,0Z" style="fill:#fff;fill-rule:nonzero;"/><path d="M283.082,467.419l0,-7.407c0,-0.593 0.48,-1.073 1.073,-1.073l11.947,0c0.593,0 1.073,0.481 1.073,1.073l0,1.413c0,0.593 -0.481,1.073 -1.073,1.073l-8.388,0c-0.594,0 -1.073,0.481 -1.073,1.072l0,3.636c0,0.593 0.48,1.073 1.073,1.073l3.842,0c0.592,0 1.073,0.481 1.073,1.074l0,1.413c0,0.593 -0.482,1.073 -1.073,1.073l-3.842,0c-0.594,0 -1.073,0.48 -1.073,1.073l0,5.416c0,0.594 0.48,1.073 1.073,1.073l8.388,0c0.593,0 1.073,0.481 1.073,1.074l0,1.412c0,0.593 -0.481,1.073 -1.073,1.073l-11.947,0c-0.594,0 -1.073,-0.481 -1.073,-1.073l0,-9.187c0,-0.475 -0.386,-0.861 -0.861,-0.861c-0.476,0 -0.862,-0.385 -0.862,-0.861l0,-1.836c0,-0.476 0.385,-0.861 0.862,-0.861c0.475,0 0.861,-0.386 0.861,-0.862" style="fill:#fff;fill-rule:nonzero;"/><path d="M324.009,476.157c0,3.88 -3.103,6.806 -7.216,6.806c-1.47,0 -2.888,-0.494 -4.099,-1.314c0,0.246 -0.201,0.446 -0.447,0.446l-2.088,0c-0.566,0 -1.024,-0.458 -1.024,-1.025l0,-4.741c0,-0.567 0.458,-1.025 1.024,-1.025l1.609,0c0.482,0 0.91,0.324 1.026,0.791c0.438,1.743 2.233,3.307 3.998,3.307c1.761,0 3.657,-1.016 3.657,-3.247c0,-2.074 -1.419,-2.85 -4.66,-4.124c-2.965,-1.168 -6.654,-2.62 -6.654,-7.026c0,-3.831 2.967,-6.508 7.216,-6.508c1.336,0 2.584,0.372 3.656,1.007l0,-0.178c0,-0.246 0.199,-0.445 0.445,-0.445l2.089,0c0.567,0 1.026,0.458 1.026,1.024l0,4.784c0,0.567 -0.459,1.026 -1.026,1.026l-1.634,0c-0.479,0 -0.883,-0.341 -0.99,-0.809c-0.368,-1.63 -1.828,-2.851 -3.567,-2.851c-1.769,0 -3.657,0.776 -3.657,2.95c0,1.795 1.34,2.51 4.399,3.714c2.919,1.148 6.915,2.721 6.917,7.438" style="fill:#fff;fill-rule:nonzero;"/><path d="M34.068,549.559l-1.52,2.649c-0.56,0.978 -1.745,1.376 -2.796,0.976c-2.848,-1.084 -6.071,-1.133 -8.951,-0.098c-0.205,0.075 -0.421,0.157 -0.632,0.247l-0.19,0.075c-2.222,0.806 -4.555,1.213 -6.932,1.213c-2.929,0 -5.805,-0.627 -8.444,-1.83c-1.228,-0.56 -1.658,-2.101 -0.949,-3.253l1.603,-2.603c0.595,-0.968 1.798,-1.316 2.848,-0.882c2.907,1.203 6.247,1.316 9.213,0.266c0.296,-0.122 0.596,-0.24 0.902,-0.352c4.78,-1.724 10.124,-1.566 14.782,0.363c1.253,0.517 1.74,2.052 1.066,3.229m-33.891,-25.194c-1.542,-11.233 7.188,-20.877 18.125,-20.877c6.348,0 12.197,3.306 15.51,8.603c0.721,1.15 0.2,2.68 -1.036,3.233l-2.796,1.251c-1.029,0.463 -2.206,0.072 -2.846,-0.859c-1.98,-2.876 -5.274,-4.655 -8.834,-4.655c-5.802,0 -10.544,4.628 -10.723,10.39c-0.161,5.15 3.561,9.856 8.617,10.859c4.332,0.86 8.572,-1.01 10.939,-4.446c0.639,-0.931 1.814,-1.322 2.846,-0.86l2.799,1.252c1.231,0.552 1.755,2.074 1.039,3.219c-4.233,6.781 -12.623,10.307 -20.9,7.815c-6.739,-2.027 -11.787,-7.956 -12.74,-14.925" style="fill:#fff;fill-rule:nonzero;"/><path d="M70.608,522.432c0,-6.265 -5.096,-11.36 -11.359,-11.36l-1.683,0c-6.265,0 -11.36,5.095 -11.36,11.36l0,13.253c0,6.264 5.095,11.36 11.36,11.36l1.683,0c6.263,0 11.359,-5.096 11.359,-11.36l0,-13.253Zm7.574,0l0,13.253c0,10.439 -8.494,18.934 -18.933,18.934l-1.683,0c-10.439,0 -18.934,-8.495 -18.934,-18.934l0,-13.253c0,-10.439 8.495,-18.934 18.934,-18.934l1.683,0c10.439,0 18.933,8.495 18.933,18.934" style="fill:#fff;fill-rule:nonzero;"/><path d="M116.013,510.274l0,-4.349c0,-1.339 1.086,-2.426 2.427,-2.426l12.683,0c1.008,0 1.825,0.816 1.825,1.824l0,3.925c0,1.008 -0.817,1.824 -1.825,1.824l-1.032,0c-1.008,0 -1.824,0.816 -1.824,1.824l0,32.324c0,1.009 0.816,1.825 1.824,1.825l1.032,0c1.008,0 1.825,0.817 1.825,1.825l0,3.925c0,1.007 -0.817,1.824 -1.825,1.824l-13.287,0c-1.009,0 -1.825,-0.817 -1.825,-1.824l0,-3.925c0,-1.008 0.816,-1.825 1.825,-1.825l1.031,0c1.008,0 1.825,-0.816 1.825,-1.825l0,-18.995c0,-1.023 -1.368,-1.368 -1.853,-0.466l-9.55,17.747c-0.687,1.279 -2.523,1.279 -3.213,0l-9.548,-17.747c-0.485,-0.902 -1.853,-0.557 -1.853,0.466l0,18.997c0,1.009 0.817,1.825 1.824,1.825l1.033,0c1.007,0 1.824,0.816 1.824,1.824l0,3.924c0,1.009 -0.817,1.826 -1.824,1.826l-13.288,0c-1.008,0 -1.825,-0.817 -1.825,-1.826l0,-3.924c0,-1.008 0.817,-1.824 1.825,-1.824l1.032,0c1.008,0 1.824,-0.816 1.824,-1.825l0,-32.324c0,-1.008 -0.816,-1.824 -1.824,-1.824l-1.032,0c-1.008,0 -1.825,-0.817 -1.825,-1.824l0,-3.925c0,-1.009 0.817,-1.824 1.825,-1.824l12.683,0c1.34,0 2.427,1.085 2.427,2.426l0,4.349c0,0.439 -0.358,0.796 -0.796,0.796c-0.603,0 -0.988,0.645 -0.702,1.175l9.13,16.967c0.298,0.554 1.093,0.554 1.391,0l9.129,-16.967c0.284,-0.532 -0.099,-1.175 -0.702,-1.175c-0.44,0 -0.796,-0.357 -0.791,-0.798" style="fill:#fff;fill-rule:nonzero;"/><path d="M165.146,519.922c0.466,-4.797 -3.306,-8.85 -8.008,-8.85l-5.544,0c-1.208,0 -2.187,0.98 -2.187,2.189l0,11.718c0,1.208 0.979,2.188 2.187,2.188l5.186,0c4.201,0 7.959,-3.063 8.366,-7.245m7.578,-1.87c0.608,9.095 -6.617,16.688 -15.584,16.688l-5.544,0c-1.208,0 -2.187,0.98 -2.187,2.188l0,7.931c0,1.208 0.979,2.187 2.187,2.187l0.305,0c1.208,0 2.188,0.98 2.188,2.188l0,3.198c0,1.208 -0.98,2.187 -2.188,2.187l-12.558,0c-1.209,0 -2.188,-0.979 -2.188,-2.187l0,-3.198c0,-1.208 0.979,-2.188 2.188,-2.188l0.304,0c1.209,0 2.188,-0.979 2.188,-2.187l0,-31.598c0,-1.209 -0.979,-2.189 -2.188,-2.189l-0.256,0c-1.208,0 -2.187,-0.979 -2.187,-2.187l0,-3.197c0,-1.209 0.979,-2.189 2.187,-2.189l17.197,0c8.312,0 15.58,6.259 16.136,14.553" style="fill:#fff;fill-rule:nonzero;"/><path d="M195.286,532.302l9.208,0c1.611,0 2.727,-1.604 2.168,-3.112l-4.862,-13.131c-0.657,-1.773 -3.162,-1.773 -3.819,0l-4.862,13.131c-0.557,1.508 0.56,3.112 2.167,3.112m31.568,19.21c0.497,1.34 1.775,2.23 3.204,2.23l2.74,0c1.887,0 3.416,1.53 3.416,3.415l0,4.356c0,1.887 -1.529,3.416 -3.416,3.416l-18.182,0c-1.887,0 -3.416,-1.529 -3.416,-3.416l0,-5.901c0,-1.032 0.839,-1.87 1.87,-1.87c1.303,0 2.205,-1.297 1.753,-2.518l-2.039,-5.506c-0.497,-1.34 -1.774,-2.23 -3.204,-2.23l-19.38,0c-1.43,0 -2.707,0.89 -3.204,2.23l-2.038,5.506c-0.452,1.221 0.45,2.518 1.752,2.518c1.032,0 1.87,0.838 1.87,1.87l0,5.901c0,1.887 -1.529,3.416 -3.416,3.416l-18.182,0c-1.886,0 -3.415,-1.529 -3.415,-3.416l0,-4.356c0,-1.885 1.529,-3.415 3.415,-3.415l2.74,0c1.429,0 2.707,-0.89 3.205,-2.23l22.143,-59.807c0.492,-1.33 1.755,-2.217 3.172,-2.229l3.191,-0.03c1.42,-0.013 2.699,0.852 3.215,2.172l0.602,1.537l21.604,58.357Z" style="fill:#fff;fill-rule:nonzero;"/><path d="M263.797,518.786l10.958,0c5.633,0 10.09,-5.158 8.893,-11c-0.872,-4.249 -4.819,-7.18 -9.157,-7.18l-10.696,0c-1.801,0 -3.257,1.46 -3.257,3.257l0,11.666c0,1.797 1.459,3.257 3.259,3.257m17.789,13.839l10.297,19.39c0.563,1.061 1.67,1.727 2.876,1.727l3.857,0c1.801,0 3.257,1.459 3.257,3.257l0,4.673c0,1.8 -1.459,3.257 -3.257,3.257l-18.502,0c-1.799,0 -3.255,-1.46 -3.255,-3.257l0,-6.699c0,-0.679 0.55,-1.231 1.23,-1.231c0.927,0 1.521,-0.987 1.086,-1.808l-10.746,-20.234c-0.565,-1.064 -1.671,-1.73 -2.877,-1.73l-1.757,0c-1.801,0 -3.257,1.459 -3.257,3.256l0,17.259c0,1.8 1.459,3.257 3.257,3.257l0.399,0c1.8,0 3.257,1.459 3.257,3.257l0,4.673c0,1.8 -1.459,3.257 -3.257,3.257l-18.501,0c-1.8,0 -3.256,-1.46 -3.256,-3.257l0,-4.673c0,-1.801 1.459,-3.257 3.256,-3.257l0.4,0c1.8,0 3.257,-1.459 3.257,-3.257l0,-46.622c0,-1.8 -1.46,-3.257 -3.257,-3.257l-0.4,0c-1.8,0 -3.256,-1.459 -3.256,-3.257l0,-4.672c0,-1.8 1.459,-3.257 3.256,-3.257l28.716,0c10.315,0 19.261,7.572 20.474,17.814c1.094,9.215 -4.044,17.383 -11.74,20.894c-1.718,0.783 -2.445,2.829 -1.557,4.497" style="fill:#fff;fill-rule:nonzero;"/><path d="M298.771,497.233l0,-4.437c0,-1.862 1.509,-3.374 3.373,-3.374l42.968,0c1.862,0 3.373,1.509 3.373,3.374l0,4.439c0,1.862 -1.509,3.374 -3.373,3.374l-12.516,0c-1.862,0 -3.374,1.509 -3.374,3.373l0,46.384c0,1.862 1.509,3.374 3.374,3.374l0.164,0c1.862,0 3.373,1.509 3.373,3.373l0,4.437c0,1.862 -1.509,3.373 -3.373,3.373l-18.266,0c-1.862,0 -3.374,-1.508 -3.374,-3.373l0,-4.437c0,-1.862 1.509,-3.373 3.374,-3.373l0.164,0c1.861,0 3.373,-1.509 3.373,-3.374l0,-46.387c0,-1.861 -1.509,-3.373 -3.373,-3.373l-12.517,0c-1.861,0 -3.373,-1.509 -3.37,-3.373" style="fill:#fff;fill-rule:nonzero;"/><path d="M358.224,540.24l0,-47.56c0,-1.796 1.457,-3.253 3.254,-3.253l29.86,0c1.798,0 3.254,1.457 3.254,3.253l0,4.679c0,1.797 -1.456,3.254 -3.254,3.254l-18.674,0c-1.796,0 -3.253,1.457 -3.253,3.254l0,1.882c0,1.797 1.457,3.254 3.253,3.254l4.174,0c1.797,0 3.254,1.456 3.254,3.254l0,4.678c0,1.797 -1.457,3.254 -3.254,3.254l-4.174,0c-1.796,0 -3.253,1.457 -3.253,3.254l0,5.611c0,1.797 1.457,3.253 3.253,3.253l18.674,0c1.798,0 3.254,1.457 3.254,3.254l0,4.679c0,1.797 -1.456,3.254 -3.254,3.254l-29.86,0c-1.8,0 -3.254,-1.457 -3.254,-3.254m39.59,19.537c-1.275,2.227 -3.907,3.316 -6.366,2.582c-3.866,-1.153 -8.089,-1.068 -11.898,0.306c-0.303,0.109 -0.621,0.231 -0.934,0.366l-0.282,0.109c-3.281,1.191 -6.726,1.792 -10.238,1.792c-3.22,0 -6.396,-0.514 -9.419,-1.508c-3.451,-1.137 -4.957,-5.184 -3.053,-8.276l0.007,-0.012c1.365,-2.215 4.062,-3.16 6.535,-2.355c3.954,1.288 8.319,1.275 12.242,-0.111c0.437,-0.182 0.879,-0.356 1.332,-0.52c6.008,-2.166 12.616,-2.321 18.688,-0.567c3.524,1.016 5.214,5.016 3.386,8.194" style="fill:#fff;fill-rule:nonzero;"/><path d="M16.949,594.91l0,-1.271c0,-0.451 0.365,-0.815 0.814,-0.815l1.212,0c0.45,0 0.814,0.365 0.814,0.815l0,4.113c0,0.449 -0.364,0.813 -0.814,0.813l-11.932,0c-0.45,0 -0.814,-0.364 -0.814,-0.813l0,-1.213c0,-0.45 0.365,-0.814 0.814,-0.814l0.131,0c0.45,0 0.814,-0.365 0.814,-0.814l0,-11.86c0,-0.45 -0.365,-0.814 -0.814,-0.814l-0.128,0c-0.45,0 -0.814,-0.365 -0.814,-0.814l0,-1.212c0,-0.449 0.364,-0.814 0.814,-0.814l4.721,0c0.451,0 0.815,0.365 0.815,0.814l0,1.212c0,0.449 -0.365,0.813 -0.815,0.813l-0.127,0c-0.45,0 -0.813,0.365 -0.813,0.815l0,11.859c0,0.45 0.364,0.814 0.813,0.814l4.496,0c0.45,0 0.814,-0.364 0.814,-0.814l-0.001,0Z" style="fill:#fff;fill-rule:nonzero;"/><path d="M24.487,581.818c-0.469,-0.762 -0.138,-1.792 0.71,-2.077c1.629,-0.546 3.434,-0.543 5.054,0.045l0.068,0.026c0.078,0.033 0.158,0.065 0.238,0.093c0.967,0.351 2.038,0.372 3.021,0.079c0.625,-0.187 1.293,0.091 1.618,0.656l0.002,0.005c0.442,0.774 0.085,1.789 -0.767,2.051c-0.722,0.222 -1.477,0.335 -2.238,0.335c-0.892,0 -1.767,-0.152 -2.6,-0.455c-0.112,-0.039 -0.226,-0.085 -0.34,-0.132c-0.995,-0.352 -2.103,-0.355 -3.106,-0.028c-0.628,0.204 -1.314,-0.036 -1.66,-0.598m13.817,14.757l0,1.142c0,0.468 -0.379,0.849 -0.849,0.849l-4.652,0c-0.468,0 -0.848,-0.381 -0.848,-0.849l0,-1.142c0,-0.469 0.38,-0.849 0.848,-0.849l0.046,0l-2.494,-5.067c-0.211,-0.429 -0.823,-0.429 -1.034,0l-2.493,5.067l0.046,0c0.468,0 0.848,0.38 0.848,0.849l0,1.142c0,0.468 -0.38,0.849 -0.848,0.849l-4.653,0c-0.468,0 -0.848,-0.381 -0.848,-0.849l0,-1.142c0,-0.469 0.38,-0.849 0.848,-0.849l0.914,0c0.324,0 0.62,-0.183 0.762,-0.473l4.613,-9.378c0.257,-0.514 0.764,-0.828 1.329,-0.828l0.008,0l0.375,0.002c0.313,0.002 0.599,0.175 0.746,0.452l0.202,0.379l4.611,9.372c0.143,0.29 0.438,0.473 0.762,0.473l0.913,0c0.469,0 0.848,0.38 0.848,0.85" style="fill:#fff;fill-rule:nonzero;"/><path d="M53.642,586.851l2.781,0c1.43,0 2.562,-1.31 2.257,-2.793c-0.221,-1.078 -1.223,-1.822 -2.323,-1.822l-2.716,0c-0.457,0 -0.826,0.37 -0.826,0.827l0,2.961c0,0.456 0.37,0.827 0.827,0.827m4.516,3.512l2.613,4.922c0.143,0.27 0.424,0.439 0.729,0.439l0.98,0c0.457,0 0.827,0.37 0.827,0.826l0,1.187c0,0.457 -0.371,0.826 -0.827,0.826l-4.696,0c-0.457,0 -0.827,-0.37 -0.827,-0.826l0,-1.701c0,-0.172 0.14,-0.312 0.312,-0.312c0.236,0 0.387,-0.251 0.276,-0.459l-2.727,-5.137c-0.144,-0.27 -0.425,-0.439 -0.731,-0.439l-0.446,0c-0.457,0 -0.826,0.371 -0.826,0.827l0,4.381c0,0.457 0.37,0.827 0.826,0.827l0.102,0c0.457,0 0.827,0.37 0.827,0.826l0,1.187c0,0.457 -0.371,0.826 -0.827,0.826l-4.697,0c-0.457,0 -0.827,-0.37 -0.827,-0.826l0,-1.187c0,-0.457 0.371,-0.826 0.827,-0.826l0.102,0c0.457,0 0.827,-0.371 0.827,-0.827l0,-11.834c0,-0.457 -0.371,-0.827 -0.827,-0.827l-0.102,0c-0.457,0 -0.827,-0.37 -0.827,-0.826l0,-1.187c0,-0.457 0.371,-0.826 0.827,-0.826l7.289,0c2.619,0 4.889,1.922 5.198,4.521c0.277,2.339 -1.028,4.412 -2.981,5.304c-0.436,0.198 -0.62,0.718 -0.394,1.141" style="fill:#fff;fill-rule:nonzero;"/><path d="M73.121,579.397l2.874,0c0.478,0 0.864,0.385 0.867,0.861l0.003,0.559l0,11.454c0,3.613 -3.059,6.523 -6.723,6.278c-3.34,-0.223 -5.861,-3.152 -5.861,-6.5l0,-8.945c0,-0.478 -0.388,-0.867 -0.866,-0.867l-0.03,0c-0.48,0 -0.868,-0.388 -0.868,-0.867l0,-1.106c0,-0.479 0.388,-0.867 0.868,-0.867l2.869,0c0.479,0 0.867,0.388 0.867,0.867l0,12.008c0,2.017 1.738,3.636 3.797,3.436c1.794,-0.175 3.108,-1.788 3.108,-3.589l0,-9.015c0,-0.478 -0.388,-0.867 -0.867,-0.867l-0.039,0c-0.478,0 -0.866,-0.388 -0.866,-0.867l0,-1.106c0,-0.479 0.388,-0.867 0.867,-0.867" style="fill:#fff;fill-rule:nonzero;"/><path d="M78.456,581.381l0,-1.127c0,-0.473 0.383,-0.856 0.856,-0.856l10.907,0c0.472,0 0.856,0.382 0.856,0.856l0,1.127c0,0.473 -0.383,0.856 -0.856,0.856l-3.177,0c-0.473,0 -0.857,0.383 -0.857,0.857l0,11.773c0,0.473 0.383,0.857 0.857,0.857l0.041,0c0.473,0 0.856,0.383 0.856,0.856l0,1.126c0,0.473 -0.382,0.857 -0.856,0.857l-4.636,0c-0.472,0 -0.856,-0.384 -0.856,-0.857l0,-1.126c0,-0.472 0.383,-0.856 0.856,-0.856l0.041,0c0.473,0 0.857,-0.383 0.857,-0.857l0,-11.774c0,-0.473 -0.383,-0.857 -0.857,-0.857l-3.177,0c-0.472,0 -0.856,-0.382 -0.855,-0.855" style="fill:#fff;fill-rule:nonzero;"/><path d="M98.872,590.282l2.337,0c0.409,0 0.692,-0.407 0.551,-0.79l-1.235,-3.333c-0.167,-0.45 -0.802,-0.45 -0.969,0l-1.235,3.333c-0.14,0.383 0.143,0.79 0.551,0.79m8.013,4.876c0.126,0.34 0.451,0.566 0.813,0.566l0.695,0c0.479,0 0.868,0.388 0.868,0.867l0,1.105c0,0.48 -0.389,0.867 -0.868,0.867l-4.615,0c-0.478,0 -0.867,-0.387 -0.867,-0.867l0,-1.498c0,-0.262 0.213,-0.474 0.475,-0.474c0.331,0 0.559,-0.33 0.445,-0.639l-0.518,-1.399c-0.126,-0.34 -0.45,-0.565 -0.813,-0.565l-4.919,0c-0.363,0 -0.688,0.225 -0.813,0.565l-0.518,1.399c-0.114,0.309 0.114,0.639 0.445,0.639c0.262,0 0.475,0.212 0.475,0.474l0,1.498c0,0.48 -0.389,0.867 -0.867,0.867l-4.616,0c-0.478,0 -0.867,-0.387 -0.867,-0.867l0,-1.105c0,-0.479 0.389,-0.867 0.867,-0.867l0.696,0c0.363,0 0.687,-0.226 0.813,-0.566l5.621,-15.181c0.125,-0.338 0.446,-0.563 0.805,-0.566l0.811,-0.008c0.36,-0.003 0.684,0.217 0.815,0.552l0.153,0.389l5.484,14.814Z" style="fill:#fff;fill-rule:nonzero;"/><path d="M130.441,587.898c0,-3.127 -2.536,-5.662 -5.662,-5.662l-0.204,0c-0.454,0 -0.823,0.368 -0.823,0.823l0,11.843c0,0.454 0.369,0.822 0.823,0.822l0.204,0c3.127,0 5.662,-2.535 5.662,-5.662l0,-2.164Zm2.839,0.001l0,2.164c0,4.695 -3.806,8.501 -8.501,8.501l-4.78,0c-0.454,0 -0.823,-0.368 -0.823,-0.822l0,-1.196c0,-0.454 0.369,-0.822 0.823,-0.822l0.091,0c0.455,0 0.823,-0.368 0.823,-0.822l0,-11.843c0,-0.454 -0.368,-0.822 -0.823,-0.822l-0.091,0c-0.454,0 -0.823,-0.369 -0.823,-0.823l0,-1.195c0,-0.454 0.369,-0.822 0.823,-0.822l4.78,0c4.695,0 8.501,3.806 8.501,8.502" style="fill:#fff;fill-rule:nonzero;"/><path d="M135.748,592.297l0,-12.072c0,-0.456 0.369,-0.826 0.826,-0.826l7.579,0c0.456,0 0.826,0.37 0.826,0.826l0,1.187c0,0.456 -0.37,0.826 -0.826,0.826l-4.74,0c-0.456,0 -0.825,0.371 -0.825,0.827l0,0.477c0,0.456 0.369,0.826 0.825,0.826l1.06,0c0.456,0 0.826,0.369 0.826,0.826l0,1.187c0,0.457 -0.37,0.826 -0.826,0.826l-1.06,0c-0.456,0 -0.825,0.37 -0.825,0.826l0,1.425c0,0.456 0.369,0.826 0.825,0.826l4.74,0c0.456,0 0.826,0.369 0.826,0.826l0,1.187c0,0.456 -0.37,0.826 -0.826,0.826l-7.579,0c-0.457,0 -0.826,-0.37 -0.826,-0.826m10.049,4.959c-0.323,0.565 -0.992,0.842 -1.615,0.655c-0.982,-0.292 -2.054,-0.271 -3.021,0.078c-0.077,0.028 -0.157,0.059 -0.237,0.093l-0.072,0.027c-0.833,0.303 -1.707,0.456 -2.598,0.456c-0.818,0 -1.624,-0.13 -2.392,-0.383c-0.875,-0.288 -1.258,-1.316 -0.774,-2.101l0.002,-0.003c0.346,-0.562 1.031,-0.802 1.659,-0.597c1.003,0.327 2.111,0.323 3.106,-0.03c0.112,-0.045 0.224,-0.09 0.339,-0.131c1.525,-0.549 3.202,-0.589 4.743,-0.143c0.895,0.258 1.324,1.272 0.86,2.079" style="fill:#fff;fill-rule:nonzero;"/><path d="M166.179,581.553l0,-1.472c0,-0.378 0.306,-0.683 0.684,-0.683l4.981,0c0.378,0 0.685,0.305 0.685,0.683l0,1.472c0,0.378 -0.307,0.684 -0.685,0.684l-0.387,0c-0.378,0 -0.683,0.306 -0.683,0.684l0,12.119c0,0.378 0.305,0.685 0.683,0.685l0.387,0c0.378,0 0.685,0.306 0.685,0.683l0,1.472c0,0.378 -0.307,0.684 -0.685,0.684l-4.981,0c-0.378,0 -0.684,-0.306 -0.684,-0.684l0,-1.939c0,-0.12 0.096,-0.216 0.216,-0.216c0.169,0 0.272,-0.188 0.182,-0.331l-5.659,-9.011c-0.115,-0.184 -0.399,-0.102 -0.399,0.114l0,8.543c0,0.378 0.306,0.685 0.684,0.685l0.387,0c0.378,0 0.684,0.306 0.684,0.683l0,1.472c0,0.378 -0.306,0.684 -0.684,0.684l-4.981,0c-0.378,0 -0.685,-0.306 -0.685,-0.684l0,-1.472c0,-0.377 0.307,-0.683 0.685,-0.683l0.386,0c0.378,0 0.684,-0.307 0.684,-0.685l0,-12.119c0,-0.378 -0.306,-0.684 -0.684,-0.684l-0.386,0c-0.378,0 -0.685,-0.306 -0.685,-0.684l0,-1.472c0,-0.378 0.307,-0.683 0.685,-0.683l4.981,0c0.378,0 0.684,0.305 0.684,0.683l0,1.94c0,0.119 -0.096,0.216 -0.216,0.216c-0.17,0 -0.273,0.187 -0.183,0.331l5.659,9.01c0.116,0.184 0.4,0.103 0.4,-0.114l0,-8.543c0,-0.378 -0.307,-0.684 -0.685,-0.684l-0.386,0c-0.378,0 -0.684,-0.306 -0.684,-0.684" style="fill:#fff;fill-rule:nonzero;"/><path d="M184.719,579.397l2.874,0c0.477,0 0.863,0.385 0.866,0.861l0.004,0.559l0,11.454c0,3.613 -3.06,6.523 -6.723,6.278c-3.341,-0.223 -5.861,-3.152 -5.861,-6.5l0,-8.945c0,-0.478 -0.389,-0.867 -0.867,-0.867l-0.03,0c-0.48,0 -0.867,-0.388 -0.867,-0.867l0,-1.106c0,-0.479 0.387,-0.867 0.867,-0.867l2.869,0c0.479,0 0.867,0.388 0.867,0.867l0,12.008c0,2.017 1.738,3.636 3.797,3.436c1.794,-0.175 3.108,-1.788 3.108,-3.589l0,-9.015c0,-0.478 -0.387,-0.867 -0.867,-0.867l-0.038,0c-0.479,0 -0.867,-0.388 -0.867,-0.867l0,-1.106c0,-0.479 0.388,-0.867 0.868,-0.867" style="fill:#fff;fill-rule:nonzero;"/><path d="M191.427,586.163l0,-5.909c0,-0.474 0.384,-0.857 0.856,-0.857l9.533,0c0.473,0 0.856,0.383 0.856,0.857l0,1.127c0,0.472 -0.384,0.855 -0.856,0.855l-6.693,0c-0.473,0 -0.856,0.384 -0.856,0.857l0,2.901c0,0.473 0.384,0.856 0.856,0.856l3.066,0c0.472,0 0.855,0.383 0.855,0.856l0,1.128c0,0.474 -0.384,0.855 -0.855,0.855l-3.066,0c-0.473,0 -0.856,0.384 -0.856,0.858l0,4.32c0,0.474 0.384,0.858 0.856,0.858l6.693,0c0.473,0 0.856,0.383 0.856,0.855l0,1.127c0,0.473 -0.384,0.855 -0.856,0.855l-9.533,0c-0.472,0 -0.856,-0.383 -0.856,-0.855l0,-7.33c0,-0.379 -0.308,-0.688 -0.687,-0.688c-0.379,0 -0.687,-0.306 -0.687,-0.686l0,-1.465c0,-0.379 0.308,-0.687 0.687,-0.687c0.379,0 0.687,-0.308 0.687,-0.688" style="fill:#fff;fill-rule:nonzero;"/><path d="M216.138,593.136c0,3.096 -2.476,5.43 -5.758,5.43c-1.173,0 -2.305,-0.395 -3.27,-1.047c0,0.195 -0.16,0.355 -0.357,0.355l-1.666,0c-0.451,0 -0.817,-0.366 -0.817,-0.818l0,-3.783c0,-0.451 0.366,-0.818 0.817,-0.818l1.283,0c0.385,0 0.726,0.258 0.82,0.631c0.348,1.391 1.78,2.639 3.189,2.639c1.405,0 2.919,-0.811 2.919,-2.59c0,-1.656 -1.134,-2.275 -3.719,-3.292c-2.365,-0.931 -5.309,-2.089 -5.309,-5.605c0,-3.057 2.367,-5.193 5.758,-5.193c1.065,0 2.06,0.297 2.916,0.803l0,-0.142c0,-0.196 0.159,-0.355 0.356,-0.355l1.666,0c0.452,0 0.818,0.366 0.818,0.817l0,3.818c0,0.452 -0.366,0.818 -0.818,0.818l-1.304,0c-0.382,0 -0.705,-0.272 -0.789,-0.646c-0.294,-1.299 -1.459,-2.273 -2.846,-2.273c-1.411,0 -2.918,0.618 -2.918,2.353c0,1.432 1.07,2.002 3.509,2.962c2.33,0.916 5.518,2.172 5.52,5.936" style="fill:#fff;fill-rule:nonzero;"/><path d="M217.719,581.381l0,-1.127c0,-0.473 0.384,-0.856 0.856,-0.856l10.907,0c0.473,0 0.857,0.382 0.857,0.856l0,1.127c0,0.473 -0.384,0.856 -0.857,0.856l-3.176,0c-0.474,0 -0.857,0.383 -0.857,0.857l0,11.773c0,0.473 0.383,0.857 0.857,0.857l0.041,0c0.473,0 0.856,0.383 0.856,0.856l0,1.126c0,0.473 -0.382,0.857 -0.856,0.857l-4.637,0c-0.472,0 -0.855,-0.384 -0.855,-0.857l0,-1.126c0,-0.472 0.383,-0.856 0.855,-0.856l0.042,0c0.473,0 0.857,-0.383 0.857,-0.857l0,-11.774c0,-0.473 -0.384,-0.857 -0.857,-0.857l-3.178,0c-0.471,0 -0.855,-0.382 -0.855,-0.855" style="fill:#fff;fill-rule:nonzero;"/><path d="M237.36,586.851l2.781,0c1.43,0 2.562,-1.31 2.257,-2.793c-0.221,-1.078 -1.224,-1.822 -2.324,-1.822l-2.715,0c-0.457,0 -0.826,0.37 -0.826,0.827l0,2.961c0,0.456 0.369,0.827 0.827,0.827m4.515,3.512l2.613,4.922c0.143,0.27 0.425,0.439 0.73,0.439l0.98,0c0.457,0 0.827,0.37 0.827,0.826l0,1.187c0,0.457 -0.371,0.826 -0.827,0.826l-4.696,0c-0.457,0 -0.827,-0.37 -0.827,-0.826l0,-1.701c0,-0.172 0.14,-0.312 0.312,-0.312c0.235,0 0.387,-0.251 0.276,-0.459l-2.728,-5.137c-0.143,-0.27 -0.424,-0.439 -0.731,-0.439l-0.445,0c-0.457,0 -0.826,0.371 -0.826,0.827l0,4.381c0,0.457 0.369,0.827 0.826,0.827l0.102,0c0.456,0 0.826,0.37 0.826,0.826l0,1.187c0,0.457 -0.37,0.826 -0.826,0.826l-4.697,0c-0.457,0 -0.827,-0.37 -0.827,-0.826l0,-1.187c0,-0.457 0.371,-0.826 0.827,-0.826l0.102,0c0.457,0 0.826,-0.371 0.826,-0.827l0,-11.834c0,-0.457 -0.37,-0.827 -0.826,-0.827l-0.102,0c-0.457,0 -0.827,-0.37 -0.827,-0.826l0,-1.187c0,-0.457 0.371,-0.826 0.827,-0.826l7.289,0c2.619,0 4.889,1.922 5.197,4.521c0.278,2.339 -1.027,4.412 -2.98,5.304c-0.436,0.198 -0.62,0.718 -0.395,1.141" style="fill:#fff;fill-rule:nonzero;"/><path d="M256.669,590.282l2.337,0c0.409,0 0.692,-0.407 0.551,-0.79l-1.235,-3.333c-0.166,-0.45 -0.802,-0.45 -0.968,0l-1.235,3.333c-0.141,0.383 0.142,0.79 0.55,0.79m8.013,4.876c0.127,0.34 0.451,0.566 0.813,0.566l0.695,0c0.48,0 0.868,0.388 0.868,0.867l0,1.105c0,0.48 -0.388,0.867 -0.868,0.867l-4.614,0c-0.479,0 -0.867,-0.387 -0.867,-0.867l0,-1.498c0,-0.262 0.212,-0.474 0.475,-0.474c0.33,0 0.559,-0.33 0.444,-0.639l-0.518,-1.399c-0.126,-0.34 -0.45,-0.565 -0.813,-0.565l-4.919,0c-0.362,0 -0.688,0.225 -0.813,0.565l-0.517,1.399c-0.115,0.309 0.114,0.639 0.444,0.639c0.262,0 0.475,0.212 0.475,0.474l0,1.498c0,0.48 -0.389,0.867 -0.867,0.867l-4.616,0c-0.478,0 -0.867,-0.387 -0.867,-0.867l0,-1.105c0,-0.479 0.389,-0.867 0.867,-0.867l0.696,0c0.363,0 0.687,-0.226 0.813,-0.566l5.621,-15.181c0.125,-0.338 0.446,-0.563 0.806,-0.566l0.81,-0.008c0.36,-0.003 0.684,0.217 0.816,0.552l0.152,0.389l5.484,14.814Z" style="fill:#fff;fill-rule:nonzero;"/><path d="M286.595,581.551l0,-1.464c0,-0.38 0.308,-0.688 0.687,-0.688l4.975,0c0.379,0 0.687,0.307 0.687,0.688l0,1.465c0,0.379 -0.307,0.686 -0.687,0.686l-0.381,0c-0.38,0 -0.687,0.308 -0.687,0.688l0,12.112c0,0.379 0.307,0.687 0.687,0.687l0.381,0c0.379,0 0.687,0.307 0.687,0.687l0,1.464c0,0.38 -0.307,0.688 -0.687,0.688l-4.975,0c-0.379,0 -0.687,-0.307 -0.687,-0.688l0,-1.464c0,-0.38 0.308,-0.687 0.687,-0.687l0.38,0c0.379,0 0.688,-0.308 0.688,-0.687l0,-4.727c0,-0.379 -0.308,-0.687 -0.688,-0.687l-5.408,0c-0.38,0 -0.687,0.308 -0.687,0.687l0,4.727c0,0.379 0.307,0.687 0.687,0.687l0.381,0c0.379,0 0.687,0.307 0.687,0.687l0,1.464c0,0.38 -0.307,0.688 -0.687,0.688l-4.976,0c-0.378,0 -0.686,-0.307 -0.686,-0.688l0,-1.464c0,-0.38 0.308,-0.687 0.686,-0.687l0.381,0c0.38,0 0.688,-0.308 0.688,-0.687l0,-12.113c0,-0.379 -0.308,-0.687 -0.688,-0.687l-0.381,0c-0.378,0 -0.686,-0.307 -0.686,-0.687l0,-1.464c0,-0.38 0.308,-0.688 0.686,-0.688l4.976,0c0.379,0 0.687,0.307 0.687,0.688l0,1.465c0,0.379 -0.307,0.686 -0.687,0.686l-0.381,0c-0.38,0 -0.687,0.308 -0.687,0.688l0,3.17c0,0.38 0.307,0.688 0.687,0.688l5.408,0c0.379,0 0.688,-0.307 0.688,-0.688l0,-3.171c0,-0.379 -0.308,-0.687 -0.688,-0.687l-0.38,0c-0.379,0 -0.687,-0.308 -0.687,-0.687" style="fill:#fff;fill-rule:nonzero;"/><path d="M303.544,585.679l0,1.162c0,0.464 -0.375,0.839 -0.839,0.839l-0.077,0c-0.464,0 -0.839,0.375 -0.839,0.839l0,6.367c0,0.464 0.375,0.839 0.839,0.839l0.077,0c0.464,0 0.839,0.376 0.839,0.839l0,1.162c0,0.463 -0.375,0.839 -0.839,0.839l-4.672,0c-0.463,0 -0.838,-0.376 -0.838,-0.839l0,-1.162c0,-0.463 0.375,-0.839 0.838,-0.839l0.078,0c0.463,0 0.838,-0.375 0.838,-0.839l0,-6.367c0,-0.464 -0.375,-0.839 -0.838,-0.839l-0.078,0c-0.463,0 -0.838,-0.375 -0.838,-0.839l0,-1.162c0,-0.463 0.375,-0.839 0.838,-0.839l4.672,0c0.464,0 0.839,0.376 0.839,0.839m2.136,-3.175c-0.933,0.391 -1.94,0.595 -2.956,0.595c-0.892,0 -1.766,-0.152 -2.599,-0.455c-0.114,-0.04 -0.228,-0.085 -0.343,-0.133c-1.121,-0.396 -2.374,-0.352 -3.465,0.105c-0.385,0.161 -0.829,0.032 -1.048,-0.325l-0.616,-0.997c-0.262,-0.427 -0.098,-0.998 0.359,-1.205c1.8,-0.814 3.901,-0.91 5.768,-0.236l0.076,0.03c0.108,0.046 0.217,0.085 0.329,0.123c1.09,0.362 2.244,0.21 3.35,-0.098c0.367,-0.103 0.76,0.048 0.952,0.384l0.585,1.02c0.249,0.433 0.069,0.998 -0.392,1.192" style="fill:#fff;fill-rule:nonzero;"/><path d="M319.635,593.136c0,3.096 -2.476,5.43 -5.758,5.43c-1.173,0 -2.305,-0.395 -3.27,-1.047c0,0.195 -0.16,0.355 -0.357,0.355l-1.666,0c-0.452,0 -0.818,-0.366 -0.818,-0.818l0,-3.783c0,-0.451 0.366,-0.818 0.818,-0.818l1.283,0c0.385,0 0.726,0.258 0.82,0.631c0.348,1.391 1.78,2.639 3.189,2.639c1.405,0 2.919,-0.811 2.919,-2.59c0,-1.656 -1.134,-2.275 -3.719,-3.292c-2.365,-0.931 -5.31,-2.089 -5.31,-5.605c0,-3.057 2.368,-5.193 5.759,-5.193c1.064,0 2.06,0.297 2.916,0.803l0,-0.142c0,-0.196 0.159,-0.355 0.356,-0.355l1.666,0c0.452,0 0.818,0.366 0.818,0.817l0,3.818c0,0.452 -0.366,0.818 -0.818,0.818l-1.304,0c-0.382,0 -0.705,-0.272 -0.79,-0.646c-0.294,-1.299 -1.458,-2.273 -2.845,-2.273c-1.411,0 -2.918,0.618 -2.918,2.353c0,1.432 1.07,2.002 3.509,2.962c2.329,0.916 5.518,2.172 5.52,5.936" style="fill:#fff;fill-rule:nonzero;"/><path d="M321.216,581.381l0,-1.127c0,-0.473 0.383,-0.856 0.855,-0.856l10.908,0c0.472,0 0.856,0.382 0.856,0.856l0,1.127c0,0.473 -0.383,0.856 -0.856,0.856l-3.177,0c-0.474,0 -0.857,0.383 -0.857,0.857l0,11.773c0,0.473 0.383,0.857 0.857,0.857l0.042,0c0.472,0 0.855,0.383 0.855,0.856l0,1.126c0,0.473 -0.382,0.857 -0.855,0.857l-4.638,0c-0.471,0 -0.855,-0.384 -0.855,-0.857l0,-1.126c0,-0.472 0.383,-0.856 0.855,-0.856l0.042,0c0.473,0 0.857,-0.383 0.857,-0.857l0,-11.774c0,-0.473 -0.383,-0.857 -0.857,-0.857l-3.177,0c-0.472,0 -0.856,-0.382 -0.855,-0.855" style="fill:#fff;fill-rule:nonzero;"/><path d="M347.422,586.496c0,-2.349 -1.911,-4.26 -4.259,-4.26l-0.632,0c-2.347,0 -4.258,1.911 -4.258,4.26l0,4.969c0,2.348 1.911,4.26 4.258,4.26l0.632,0c2.348,0 4.259,-1.912 4.259,-4.26l0,-4.969Zm2.84,0l0,4.969c0,3.914 -3.185,7.098 -7.099,7.098l-0.632,0c-3.913,0 -7.098,-3.184 -7.098,-7.098l0,-4.969c0,-3.914 3.185,-7.099 7.098,-7.099l0.632,0c3.914,0 7.099,3.185 7.099,7.099" style="fill:#fff;fill-rule:nonzero;"/><path d="M357.27,586.851l2.781,0c1.43,0 2.562,-1.31 2.257,-2.793c-0.221,-1.078 -1.223,-1.822 -2.323,-1.822l-2.715,0c-0.458,0 -0.827,0.37 -0.827,0.827l0,2.961c0,0.456 0.37,0.827 0.827,0.827m4.516,3.512l2.613,4.922c0.143,0.27 0.424,0.439 0.729,0.439l0.981,0c0.456,0 0.826,0.37 0.826,0.826l0,1.187c0,0.457 -0.37,0.826 -0.826,0.826l-4.697,0c-0.457,0 -0.827,-0.37 -0.827,-0.826l0,-1.701c0,-0.172 0.14,-0.312 0.313,-0.312c0.234,0 0.386,-0.251 0.275,-0.459l-2.728,-5.137c-0.143,-0.27 -0.423,-0.439 -0.73,-0.439l-0.445,0c-0.458,0 -0.827,0.371 -0.827,0.827l0,4.381c0,0.457 0.37,0.827 0.827,0.827l0.101,0c0.457,0 0.827,0.37 0.827,0.826l0,1.187c0,0.457 -0.371,0.826 -0.827,0.826l-4.697,0c-0.456,0 -0.826,-0.37 -0.826,-0.826l0,-1.187c0,-0.457 0.37,-0.826 0.826,-0.826l0.102,0c0.457,0 0.826,-0.371 0.826,-0.827l0,-11.834c0,-0.457 -0.369,-0.827 -0.826,-0.827l-0.102,0c-0.456,0 -0.826,-0.37 -0.826,-0.826l0,-1.187c0,-0.457 0.37,-0.826 0.826,-0.826l7.29,0c2.618,0 4.888,1.922 5.197,4.521c0.277,2.339 -1.027,4.412 -2.981,5.304c-0.435,0.198 -0.62,0.718 -0.394,1.141" style="fill:#fff;fill-rule:nonzero;"/><path d="M368.532,581.423l0,-1.212c0,-0.449 0.364,-0.813 0.814,-0.813l4.722,0c0.449,0 0.814,0.364 0.814,0.813l0,1.212c0,0.449 -0.365,0.813 -0.814,0.813l-0.128,0c-0.45,0 -0.814,0.366 -0.814,0.815l0,11.859c0,0.451 0.365,0.815 0.814,0.815l0.124,0c0.45,0 0.815,0.364 0.815,0.814l0,1.212c0,0.45 -0.366,0.814 -0.815,0.814l-4.721,0c-0.45,0 -0.815,-0.365 -0.815,-0.814l0,-1.212c0,-0.45 0.365,-0.814 0.815,-0.814l0.13,0c0.451,0 0.814,-0.364 0.814,-0.815l0,-11.859c0,-0.45 -0.364,-0.815 -0.814,-0.815l-0.127,0c-0.45,0 -0.814,-0.364 -0.814,-0.813" style="fill:#fff;fill-rule:nonzero;"/><path d="M379.585,581.818c-0.469,-0.762 -0.138,-1.792 0.71,-2.077c1.628,-0.546 3.434,-0.543 5.054,0.045l0.067,0.026c0.08,0.033 0.159,0.065 0.239,0.093c0.967,0.351 2.038,0.372 3.021,0.079c0.624,-0.187 1.293,0.091 1.618,0.656l0.002,0.005c0.442,0.774 0.085,1.789 -0.768,2.051c-0.721,0.222 -1.476,0.335 -2.237,0.335c-0.892,0 -1.767,-0.152 -2.6,-0.455c-0.112,-0.039 -0.226,-0.085 -0.34,-0.132c-0.995,-0.352 -2.103,-0.355 -3.106,-0.028c-0.629,0.204 -1.314,-0.036 -1.66,-0.598m13.816,14.757l0,1.142c0,0.468 -0.378,0.849 -0.848,0.849l-4.652,0c-0.468,0 -0.848,-0.381 -0.848,-0.849l0,-1.142c0,-0.469 0.38,-0.849 0.848,-0.849l0.045,0l-2.493,-5.067c-0.212,-0.429 -0.823,-0.429 -1.034,0l-2.493,5.067l0.046,0c0.468,0 0.848,0.38 0.848,0.849l0,1.142c0,0.468 -0.38,0.849 -0.848,0.849l-4.653,0c-0.468,0 -0.848,-0.381 -0.848,-0.849l0,-1.142c0,-0.469 0.38,-0.849 0.848,-0.849l0.914,0c0.324,0 0.62,-0.183 0.762,-0.473l4.613,-9.378c0.258,-0.514 0.764,-0.828 1.329,-0.828l0.008,0l0.376,0.002c0.312,0.002 0.598,0.175 0.745,0.452l0.201,0.379l4.611,9.372c0.144,0.29 0.438,0.473 0.762,0.473l0.914,0c0.469,0 0.848,0.38 0.847,0.85" style="fill:#fff;fill-rule:nonzero;"/></g></svg>