<?xml version="1.0" encoding="UTF-8" standalone="no"?><!DOCTYPE svg PUBLIC "-//W3C//DTD SVG 1.1//EN" "http://www.w3.org/Graphics/SVG/1.1/DTD/svg11.dtd"><svg width="100%" height="100%" viewBox="0 0 155 232" version="1.1" xmlns="http://www.w3.org/2000/svg" xmlns:xlink="http://www.w3.org/1999/xlink" xml:space="preserve" xmlns:serif="http://www.serif.com/" style="fill-rule:evenodd;clip-rule:evenodd;stroke-linejoin:round;stroke-miterlimit:2;"><rect id="Página-2" serif:id="Página 2" x="-1272.754" y="-270.434" width="1920" height="1080" style="fill:none;"/><g id="Capa-1" serif:id="Capa 1"><path d="M45.02,222.817c2.884,0 6.17,-0.116 9.442,0.042c2.021,0.098 3.399,-0.643 4.789,-2.032c28.04,-28.033 56.121,-56.024 84.183,-84.033c0.797,-0.795 2.028,-1.45 2.063,-2.645c0.113,-4.047 0.043,-8.098 0.043,-12.663c-33.832,34.104 -67.176,67.718 -100.52,101.331m-28.697,-0.001c3.926,0 7.654,-0.111 11.37,0.041c2.228,0.09 3.826,-0.592 5.425,-2.19c36.124,-36.107 72.291,-72.171 108.494,-108.198c2.49,-2.479 4.655,-4.742 4.091,-8.76c-0.455,-3.244 -0.092,-6.602 -0.092,-10.415c-43.384,43.462 -86.137,86.292 -129.288,129.522m128.78,-74.409c-24.622,24.773 -49.221,49.522 -73.879,74.33c0.318,0.408 1.306,0.052 2.167,0.052c22.987,0.018 45.975,-0.028 68.961,0.07c2.629,0.011 3.234,-0.823 3.225,-3.329c-0.089,-22.873 -0.048,-45.746 -0.071,-68.619c-0.001,-0.845 0.405,-1.82 -0.403,-2.504m-36.356,-31.469c14.993,-15.041 29.986,-30.082 44.943,-45.088c1.364,0.884 0.812,1.887 0.812,2.704c0.024,50.989 -0.024,101.976 0.112,152.964c0.01,3.609 -1.023,4.298 -4.401,4.29c-48.014,-0.109 -96.028,-0.074 -144.043,-0.074c-6.47,0 -6.47,0 -5.658,-6.669c3.102,-2.909 6.393,-5.635 8.856,-9.162c1.06,-0.019 1.548,-0.884 2.175,-1.512c19.376,-19.357 38.747,-38.719 58.106,-58.094c0.55,-0.55 0.963,-1.238 1.439,-1.862c2.162,-1.58 3.929,-3.564 5.677,-5.54c0.855,-0.58 1.932,-0.953 2.238,-2.133c0.168,-0.01 0.261,-0.099 0.28,-0.266c0.129,-0.128 0.257,-0.255 0.385,-0.382c0.178,-0.022 0.277,-0.122 0.299,-0.298c0.128,-0.13 0.255,-0.26 0.383,-0.389c0.174,-0.028 0.274,-0.129 0.302,-0.303c0.13,-0.128 0.259,-0.256 0.388,-0.384c0.175,-0.025 0.275,-0.124 0.299,-0.299c0.13,-0.129 0.261,-0.259 0.391,-0.388c0.176,-0.021 0.273,-0.119 0.294,-0.294c0.129,-0.131 0.258,-0.262 0.387,-0.393c0.172,-0.027 0.272,-0.126 0.298,-0.299c0.13,-0.129 0.261,-0.258 0.391,-0.388c0.174,-0.024 0.273,-0.122 0.296,-0.296c0.132,-0.13 0.263,-0.26 0.394,-0.39c0.174,-0.02 0.272,-0.117 0.293,-0.292c0.128,-0.132 0.258,-0.263 0.388,-0.395c0.172,-0.026 0.272,-0.125 0.297,-0.297c0.13,-0.13 0.261,-0.259 0.391,-0.389c0.174,-0.023 0.273,-0.122 0.297,-0.296c0.13,-0.13 0.26,-0.259 0.391,-0.389c0.175,-0.022 0.274,-0.12 0.295,-0.295c0.129,-0.131 0.258,-0.262 0.386,-0.393c0.173,-0.026 0.272,-0.126 0.3,-0.298c0.13,-0.13 0.261,-0.258 0.392,-0.387c0.175,-0.022 0.274,-0.12 0.295,-0.294c0.131,-0.131 0.262,-0.262 0.393,-0.392c0.175,-0.021 0.272,-0.119 0.294,-0.293c0.129,-0.131 0.258,-0.263 0.388,-0.394c0.172,-0.026 0.271,-0.125 0.297,-0.297c0.131,-0.13 0.262,-0.259 0.393,-0.389c0.174,-0.022 0.272,-0.121 0.295,-0.294c0.131,-0.131 0.261,-0.261 0.393,-0.392c0.174,-0.021 0.272,-0.118 0.292,-0.292c0.129,-0.132 0.259,-0.264 0.388,-0.395c0.172,-0.026 0.271,-0.126 0.298,-0.297c0.131,-0.13 0.262,-0.259 0.393,-0.388c0.175,-0.022 0.273,-0.12 0.294,-0.294c0.132,-0.13 0.263,-0.261 0.394,-0.392c0.174,-0.021 0.271,-0.119 0.293,-0.293c0.13,-0.131 0.26,-0.263 0.389,-0.395c0.172,-0.025 0.271,-0.123 0.295,-0.295c0.132,-0.13 0.263,-0.261 0.395,-0.391c0.174,-0.022 0.27,-0.119 0.293,-0.293l0.395,-0.394c0.174,-0.019 0.271,-0.115 0.29,-0.289c0.13,-0.133 0.261,-0.266 0.391,-0.399c0.172,-0.024 0.27,-0.122 0.294,-0.293c0.132,-0.131 0.265,-0.262 0.397,-0.393c0.173,-0.02 0.27,-0.116 0.29,-0.289c0.132,-0.133 0.265,-0.264 0.398,-0.397c0.173,-0.019 0.269,-0.115 0.288,-0.288c0.131,-0.133 0.262,-0.265 0.394,-0.398c0.17,-0.024 0.268,-0.121 0.293,-0.293l0.395,-0.393c0.173,-0.021 0.271,-0.118 0.292,-0.291c0.133,-0.131 0.265,-0.263 0.398,-0.394c0.173,-0.019 0.269,-0.116 0.289,-0.289c0.129,-0.132 0.26,-0.265 0.391,-0.397c0.172,-0.025 0.27,-0.123 0.295,-0.295c0.132,-0.131 0.264,-0.261 0.397,-0.391c0.174,-0.024 0.268,-0.124 0.281,-0.301l0.303,-0.063l0.024,-0.306c0.215,-0.111 0.346,-0.286 0.39,-0.524c3.028,-2.384 5.646,-5.182 8.17,-8.077" style="fill-rule:nonzero;"/><path d="M9.254,93.956c0,9.87 -0.007,19.738 0.007,29.605c0.002,1.835 0.909,1.536 1.886,0.689c2.068,-1.792 4.184,-3.542 6.124,-5.467c1.627,-1.616 2.781,-1.695 4.421,0.113c3.522,3.885 7.272,7.564 10.939,11.317c4.857,4.972 4.761,4.862 9.814,0.074c1.945,-1.841 1.697,-2.795 -0.073,-4.534c-10.169,-9.997 -20.206,-20.128 -30.315,-30.185c-0.666,-0.663 -1.122,-1.76 -2.803,-1.612m0,58.114c3.282,-2.877 5.947,-5.008 8.356,-7.399c1.544,-1.533 2.478,-1.335 3.87,0.157c4.443,4.766 9.103,9.332 13.492,14.147c1.768,1.94 2.826,2.247 4.773,0.131c4.256,-4.623 8.812,-8.97 13.249,-13.426c4.713,-4.732 4.632,-4.647 -0.022,-9.342c-1.766,-1.78 -2.83,-1.558 -4.402,0.139c-3.028,3.27 -6.334,6.284 -9.346,9.567c-1.501,1.637 -2.438,1.427 -3.821,-0.078c-3.093,-3.367 -6.27,-6.663 -9.536,-9.863c-2.253,-2.208 -3.968,-6.212 -6.873,-6.17c-2.818,0.041 -4.931,3.69 -7.329,5.783c-1.082,0.944 -2.467,1.652 -2.433,3.481c0.072,3.972 0.022,7.947 0.022,12.873m0.113,63.834c-2.463,3.527 -5.754,6.252 -8.855,9.161c-0.107,-1.471 -0.309,-2.942 -0.309,-4.412c-0.016,-48.445 -0.019,-96.89 0.021,-145.335c0.001,-1.012 -0.801,-2.531 0.623,-2.994c1.049,-0.341 1.634,1.045 2.336,1.743c14.341,14.253 28.665,28.522 42.993,42.787c1.682,3.121 4.492,5.199 6.996,7.559c0.481,0.341 0.963,0.684 1.444,1.026c7.111,7.11 14.221,14.22 21.332,21.33c0.276,0.704 0.552,1.408 0.828,2.112c-1.759,1.991 -3.526,3.974 -5.688,5.554c-1.47,-1.434 -3.077,-2.754 -4.378,-4.328c-1.905,-2.304 -3.246,-2.593 -5.567,-0.138c-7.054,7.459 -14.469,14.575 -21.643,21.923c-1.625,1.664 -2.607,1.882 -4.316,0.024c-4.634,-5.036 -9.56,-9.802 -14.225,-14.811c-1.454,-1.561 -2.421,-1.569 -3.88,-0.138c-2.034,1.994 -4.209,3.849 -6.375,5.703c-1.035,0.885 -1.469,1.88 -1.463,3.264c0.072,16.656 0.092,33.313 0.126,49.97" style="fill-rule:nonzero;"/><path d="M73.053,79.511c3.08,5.223 7.716,9.151 11.519,13.773c0.761,0.927 1.395,0.431 1.475,-0.693c4.522,-3.494 4.289,-3.531 2.727,-8.661c-1.697,-5.569 -3.164,-11.224 -4.607,-16.864c-2.177,-8.514 -4.191,-17.063 -7.002,-25.4c-0.126,-0.795 0.335,-1.787 -1.175,-2.663c-4.442,16.715 -8.809,33.152 -13.396,50.419c2.08,-1.345 2.228,-2.691 2.876,-3.716c1.431,0.02 2.065,-1.189 3.024,-1.919c1.671,-1.272 2.505,-3.424 4.559,-4.276m-19.88,44.902c-2.505,-2.36 -5.314,-4.439 -6.997,-7.559c2.743,-7.229 4.096,-14.847 6.146,-22.268c3.107,-11.253 5.734,-22.637 8.628,-33.949c2.693,-10.521 5.473,-21.019 8.205,-31.531c2.104,-8.1 4.072,-16.239 6.393,-24.277c0.459,-1.591 -1.082,-4.118 1.796,-4.829c-0.235,2.056 -0.172,4.054 0.444,6.089c1.252,4.132 2.377,8.307 3.43,12.495c3.799,15.108 7.5,30.24 11.325,45.341c3.795,14.978 7.188,30.086 11.777,44.82c2.074,6.657 1.617,11.332 -3.937,15.396c-1.111,-0.14 -1.684,-1.048 -1.688,-1.888c-0.023,-3.488 -1.603,-6.577 -2.354,-9.87c-0.945,-4.144 -2.257,-8.204 -3.411,-12.3c-0.378,-2.11 -1.299,-0.924 -1.965,-0.262c-1.908,1.896 -3.751,3.856 -5.619,5.791c-1.181,0.156 -1.736,-0.609 -2.451,-1.404c-3.358,-3.73 -6.331,-7.83 -10.337,-10.948c-1.477,-1.369 -2.116,0.262 -2.653,0.961c-2.869,3.742 -6.426,6.814 -9.651,10.206c-1.604,1.686 -2.7,3.534 -3.252,5.865c-1.122,4.743 -2.536,9.418 -3.829,14.121" style="fill-rule:nonzero;"/><path d="M75.948,146.768c1.019,-0.002 2.038,-0.005 3.056,-0.007c-0.308,1.181 -1.385,1.554 -2.24,2.133c-0.264,-0.718 -0.541,-1.422 -0.816,-2.126" style="fill:#1d1d1b;fill-rule:nonzero;"/><path d="M97.121,128.659c0.047,-0.218 0.18,-0.349 0.396,-0.394c-0.132,0.132 -0.264,0.263 -0.396,0.394" style="fill:#1d1d1b;fill-rule:nonzero;"/><path d="M97.809,127.975c0.047,-0.219 0.18,-0.352 0.398,-0.396c-0.133,0.133 -0.265,0.265 -0.398,0.396" style="fill:#1d1d1b;fill-rule:nonzero;"/><path d="M99.182,126.6c0.047,-0.218 0.18,-0.349 0.397,-0.392c-0.133,0.131 -0.265,0.262 -0.397,0.392" style="fill:#1d1d1b;fill-rule:nonzero;"/><path d="M99.86,125.909c0.023,-0.201 0.133,-0.324 0.328,-0.37c-0.001,0.001 -0.025,0.307 -0.025,0.307l-0.303,0.063Z" style="fill:#1d1d1b;fill-rule:nonzero;"/><path d="M88.887,136.892c0.046,-0.217 0.178,-0.347 0.394,-0.39c-0.132,0.131 -0.263,0.26 -0.394,0.39" style="fill:#1d1d1b;fill-rule:nonzero;"/><path d="M83.396,142.383c0.047,-0.217 0.179,-0.348 0.396,-0.391c-0.133,0.131 -0.264,0.261 -0.396,0.391" style="fill:#1d1d1b;fill-rule:nonzero;"/><path d="M84.082,141.701c0.044,-0.217 0.174,-0.349 0.389,-0.396c-0.13,0.133 -0.26,0.264 -0.389,0.396" style="fill:#1d1d1b;fill-rule:nonzero;"/><path d="M84.768,141.009c0.046,-0.216 0.177,-0.346 0.393,-0.39c-0.132,0.131 -0.263,0.26 -0.393,0.39" style="fill:#1d1d1b;fill-rule:nonzero;"/><path d="M85.455,140.324c0.046,-0.216 0.177,-0.347 0.393,-0.391c-0.132,0.132 -0.262,0.261 -0.393,0.391" style="fill:#1d1d1b;fill-rule:nonzero;"/><path d="M86.142,139.64c0.043,-0.216 0.173,-0.348 0.387,-0.394c-0.129,0.132 -0.258,0.263 -0.387,0.394" style="fill:#1d1d1b;fill-rule:nonzero;"/><path d="M86.827,138.949c0.047,-0.216 0.179,-0.346 0.394,-0.388c-0.132,0.13 -0.263,0.259 -0.394,0.388" style="fill:#1d1d1b;fill-rule:nonzero;"/><path d="M87.515,138.268c0.046,-0.218 0.177,-0.349 0.394,-0.393c-0.132,0.132 -0.263,0.263 -0.394,0.393" style="fill:#1d1d1b;fill-rule:nonzero;"/><path d="M88.201,137.583c0.043,-0.217 0.174,-0.349 0.39,-0.395c-0.131,0.132 -0.261,0.264 -0.39,0.395" style="fill:#1d1d1b;fill-rule:nonzero;"/><path d="M95.062,130.717c0.048,-0.218 0.181,-0.349 0.398,-0.394c-0.133,0.132 -0.266,0.263 -0.398,0.394" style="fill:#1d1d1b;fill-rule:nonzero;"/><path d="M89.574,136.209c0.045,-0.218 0.177,-0.349 0.395,-0.392c-0.133,0.131 -0.264,0.262 -0.395,0.392" style="fill:#1d1d1b;fill-rule:nonzero;"/><path d="M90.26,135.525c0.043,-0.217 0.173,-0.35 0.389,-0.396c-0.13,0.133 -0.26,0.265 -0.389,0.396" style="fill:#1d1d1b;fill-rule:nonzero;"/><path d="M90.946,134.833c0.047,-0.216 0.179,-0.347 0.396,-0.389c-0.133,0.13 -0.265,0.26 -0.396,0.389" style="fill:#1d1d1b;fill-rule:nonzero;"/><path d="M91.633,134.151c0.046,-0.218 0.177,-0.35 0.395,-0.394c-0.132,0.133 -0.263,0.264 -0.395,0.394" style="fill:#1d1d1b;fill-rule:nonzero;"/><path d="M92.32,133.466c0.044,-0.218 0.174,-0.35 0.391,-0.396c-0.131,0.133 -0.261,0.265 -0.391,0.396" style="fill:#1d1d1b;fill-rule:nonzero;"/><path d="M93.004,132.776c0.047,-0.217 0.179,-0.349 0.396,-0.392c-0.133,0.131 -0.264,0.262 -0.396,0.392" style="fill:#1d1d1b;fill-rule:nonzero;"/><path d="M93.692,132.093c0.046,-0.219 0.179,-0.351 0.396,-0.395c-0.132,0.132 -0.264,0.264 -0.396,0.395" style="fill:#1d1d1b;fill-rule:nonzero;"/><path d="M94.377,131.409c0.044,-0.219 0.175,-0.352 0.392,-0.399c-0.131,0.133 -0.262,0.266 -0.392,0.399" style="fill:#1d1d1b;fill-rule:nonzero;"/><path d="M79.282,146.496c0.044,-0.214 0.173,-0.342 0.387,-0.383c-0.13,0.129 -0.258,0.256 -0.387,0.383" style="fill:#1d1d1b;fill-rule:nonzero;"/><path d="M79.967,145.816c0.042,-0.215 0.17,-0.346 0.384,-0.39c-0.129,0.131 -0.256,0.26 -0.384,0.39" style="fill:#1d1d1b;fill-rule:nonzero;"/><path d="M98.495,127.292c0.044,-0.219 0.175,-0.352 0.393,-0.398c-0.132,0.133 -0.263,0.266 -0.393,0.398" style="fill:#1d1d1b;fill-rule:nonzero;"/><path d="M95.749,130.035c0.047,-0.219 0.18,-0.352 0.398,-0.397c-0.133,0.133 -0.266,0.265 -0.398,0.397" style="fill:#1d1d1b;fill-rule:nonzero;"/><path d="M81.339,144.441c0.045,-0.216 0.176,-0.347 0.392,-0.389c-0.131,0.13 -0.262,0.26 -0.392,0.389" style="fill:#1d1d1b;fill-rule:nonzero;"/><path d="M82.024,143.759c0.044,-0.217 0.173,-0.349 0.388,-0.395c-0.13,0.133 -0.259,0.264 -0.388,0.395" style="fill:#1d1d1b;fill-rule:nonzero;"/><path d="M96.435,129.35c0.045,-0.219 0.177,-0.353 0.395,-0.399c-0.133,0.133 -0.264,0.266 -0.395,0.399" style="fill:#1d1d1b;fill-rule:nonzero;"/><path d="M82.709,143.067c0.046,-0.215 0.177,-0.345 0.392,-0.389c-0.131,0.131 -0.262,0.26 -0.392,0.389" style="fill:#1d1d1b;fill-rule:nonzero;"/><path d="M80.652,145.124c0.046,-0.214 0.176,-0.343 0.39,-0.386c-0.131,0.13 -0.26,0.258 -0.39,0.386" style="fill:#1d1d1b;fill-rule:nonzero;"/></g></svg>