<?xml version="1.0" encoding="UTF-8" standalone="no"?>
<!DOCTYPE svg PUBLIC "-//W3C//DTD SVG 1.1//EN" "http://www.w3.org/Graphics/SVG/1.1/DTD/svg11.dtd">
<svg width="100%" height="100%" viewBox="0 0 1661 2495" version="1.1" xmlns="http://www.w3.org/2000/svg" xmlns:xlink="http://www.w3.org/1999/xlink" xml:space="preserve" xmlns:serif="http://www.serif.com/" style="fill-rule:evenodd;clip-rule:evenodd;stroke-linejoin:round;stroke-miterlimit:2;">
    <g transform="matrix(1,0,0,1,-1647.302228,-977.206477)">
        <g transform="matrix(4.166667,0,0,4.166667,-3561.369518,-149.603106)">
            <clipPath id="_clip1">
                <path d="M1468.592,453.388C1472.924,476.784 1493.955,495.136 1519.244,502.323L1629.911,502.323C1626.126,501.068 1505.938,382.56 1505.938,382.56C1487.05,390.287 1462.153,418.618 1468.592,453.388ZM1629.911,502.323C1629.952,502.337 1629.979,502.337 1629.993,502.323L1629.911,502.323Z" clip-rule="nonzero"/>
            </clipPath>
            <g clip-path="url(#_clip1)">
                <g transform="matrix(-1,0,0,1,3013.593,-272.813)">
                    <rect x="1470.739" y="670.826" width="72.115" height="11.161"/>
                </g>
                <g transform="matrix(-1,0,0,1,3012.733,-236.755)">
                    <rect x="1457.86" y="652.797" width="97.013" height="11.161"/>
                </g>
                <g transform="matrix(-1,0,0,1,3033.337,-200.697)">
                    <rect x="1458.719" y="634.768" width="115.899" height="11.161"/>
                </g>
                <g transform="matrix(-1,0,0,1,3047.074,-166.357)">
                    <rect x="1457.86" y="617.598" width="131.354" height="11.161"/>
                </g>
                <g transform="matrix(-1,0,0,1,3082.273,-128.581)">
                    <rect x="1469.021" y="598.71" width="144.231" height="11.161"/>
                </g>
                <g transform="matrix(-1,0,0,1,3116.613,-89.948)">
                    <rect x="1481.04" y="578.964" width="154.533" height="12.02"/>
                </g>
            </g>
        </g>
        <g transform="matrix(4.166667,0,0,4.166667,1982.266732,2402.567727)">
            <path d="M0,-22.728C2.483,-26.253 4.862,-28.885 6.408,-32.322C-0.488,-31.865 -0.87,-31.333 0,-22.728M0.527,56.142C0.252,56.226 -0.023,56.31 -0.299,56.395C-0.299,60.55 -0.302,64.707 -0.297,68.863C-0.295,70.076 0.272,70.815 1.536,70.824C4.944,70.848 8.354,70.864 11.762,70.838C13.233,70.828 13.729,70.153 12.638,68.982C8.628,64.677 4.568,60.418 0.527,56.142M-10.334,31.631C-10.065,31.522 -9.798,31.414 -9.529,31.305C-9.529,23.814 -9.528,16.324 -9.532,8.834C-9.532,8.277 -9.435,7.572 -10.104,7.382C-10.944,7.143 -11.216,7.921 -11.606,8.468C-14.122,11.993 -16.656,15.505 -19.177,19.027C-19.845,19.96 -20.592,20.842 -19.457,22.017C-16.388,25.195 -13.371,28.423 -10.334,31.631M-22.548,7.25C-22.272,7.346 -21.996,7.443 -21.721,7.54C-20.548,5.902 -19.541,4.11 -18.177,2.651C-11.171,-4.837 -8.226,-13.424 -9.393,-23.8C-10.156,-30.582 -9.537,-30.652 -16.011,-32.617C-16.229,-32.683 -16.458,-32.727 -16.663,-32.823C-18.383,-33.619 -18.854,-32.816 -18.981,-31.197C-19.26,-27.675 -19.685,-24.166 -20.009,-20.649C-20.867,-11.35 -21.703,-2.05 -22.548,7.25M-25.271,-60.885C-30.973,-60.889 -31.063,-60.851 -29.017,-55.907C-25.764,-48.049 -20.016,-42.868 -11.833,-40.456C1.29,-36.588 16.306,-44.971 19.733,-58.081C19.973,-58.996 20.725,-60.043 19.351,-60.755C16.85,-62.049 11.768,-60.361 10.479,-57.88C7.254,-51.679 2.22,-48.34 -4.867,-48.256C-11.979,-48.173 -17.238,-51.414 -20.313,-57.641C-21.598,-60.241 -22.875,-61.502 -25.271,-60.885M-4.939,-91.107C-16.085,-91.133 -26.033,-84.095 -29.482,-73.616C-29.876,-72.422 -31.14,-70.703 -28.915,-69.871C-25.599,-68.631 -22.016,-70.187 -20.307,-73.294C-17.069,-79.176 -12.015,-82.455 -5.331,-82.557C1.17,-82.656 6.82,-80.037 9.611,-74.071C11.465,-70.109 13.871,-69.519 17.569,-69.7C20.122,-69.824 20.349,-70.624 19.702,-72.831C16.565,-83.54 6.487,-91.081 -4.939,-91.107M-9.537,57.824C-9.537,55.086 -9.722,52.333 -9.488,49.615C-9.219,46.487 -10.336,44.215 -12.558,42.078C-15.676,39.078 -18.479,35.754 -21.49,32.639C-22.308,31.793 -22.959,30.111 -24.324,30.614C-25.473,31.038 -24.925,32.655 -25.028,33.744C-26.113,45.08 -27.094,56.426 -28.275,67.752C-28.513,70.027 -28.031,70.919 -25.692,70.873C-21.245,70.785 -16.794,70.791 -12.347,70.875C-10.317,70.913 -9.442,70.193 -9.508,68.089C-9.614,64.67 -9.536,61.246 -9.537,57.824M18.572,62.551C18.572,61.005 18.609,60.555 18.567,60.111C17.239,46.145 15.884,32.181 14.575,18.212C13.404,5.716 12.286,-6.786 11.14,-19.284C11.079,-19.948 11.165,-20.776 10.349,-20.998C9.534,-21.218 9.172,-20.466 8.78,-19.922C6.512,-16.772 4.331,-13.553 1.965,-10.479C0.281,-8.293 -0.393,-6.008 -0.366,-3.213C-0.238,10.04 -0.146,23.298 -0.403,36.547C-0.486,40.775 0.665,43.854 3.71,46.796C8.674,51.592 13.216,56.824 18.572,62.551M27.121,49.333C27.705,55.698 28.377,62.056 28.833,68.43C29.02,71.037 30.76,70.506 32.256,70.508C47.465,70.531 62.673,70.522 77.882,70.522C83.027,70.522 88.177,70.635 93.317,70.472C95.923,70.389 97.04,71.055 96.923,73.904C96.643,80.75 97.769,79.672 91.073,79.677C42.818,79.709 -5.437,79.701 -53.693,79.659C-55.029,79.658 -57.152,80.523 -57.508,78.514C-57.934,76.107 -58.255,73.496 -57.232,71.118C-56.83,70.183 -55.592,70.535 -54.706,70.531C-50.018,70.508 -45.329,70.469 -40.642,70.549C-38.811,70.581 -38.048,70.012 -37.875,68.058C-36.603,53.613 -35.227,39.177 -33.855,24.741C-32.313,8.485 -30.739,-7.767 -29.182,-24.021C-28.757,-28.455 -28.422,-32.898 -27.877,-37.317C-27.654,-39.124 -28.709,-40.032 -29.737,-41.098C-43.708,-55.6 -43.168,-77.261 -28.498,-91.021C-15.217,-103.478 6.091,-103.057 19.29,-90.076C32.567,-77.018 33.369,-55.864 20.935,-42.38C19.087,-40.376 18.747,-38.583 19.023,-35.968C20.416,-22.794 21.506,-9.588 22.756,3.6C23.854,15.194 25.024,26.781 26.164,38.37C25.961,42.069 26.691,45.688 27.121,49.333" style="fill-rule:nonzero;"/>
        </g>
        <g transform="matrix(4.166667,0,0,4.166667,1929.352982,1314.078144)">
            <path d="M0,141.968C2.884,141.968 6.17,141.852 9.442,142.01C11.463,142.108 12.841,141.367 14.231,139.978C42.271,111.945 70.352,83.954 98.414,55.945C99.211,55.15 100.442,54.495 100.477,53.3C100.59,49.253 100.52,45.202 100.52,40.637C66.688,74.741 33.344,108.355 0,141.968M-28.697,141.967C-24.771,141.967 -21.043,141.856 -17.327,142.008C-15.099,142.098 -13.501,141.416 -11.902,139.818C24.222,103.711 60.389,67.647 96.592,31.62C99.082,29.141 101.247,26.878 100.683,22.86C100.228,19.616 100.591,16.258 100.591,12.445C57.207,55.907 14.454,98.737 -28.697,141.967M100.083,67.558C75.461,92.331 50.862,117.08 26.204,141.888C26.522,142.296 27.51,141.94 28.371,141.94C51.358,141.958 74.346,141.912 97.332,142.01C99.961,142.021 100.566,141.187 100.557,138.681C100.468,115.808 100.509,92.935 100.486,70.062C100.485,69.217 100.891,68.242 100.083,67.558M63.727,36.089C78.72,21.048 93.713,6.007 108.67,-8.999C110.034,-8.115 109.482,-7.112 109.482,-6.295C109.506,44.694 109.458,95.681 109.594,146.669C109.604,150.278 108.571,150.967 105.193,150.959C57.179,150.85 9.165,150.885 -38.85,150.885C-45.32,150.885 -45.32,150.885 -44.508,144.216C-41.406,141.307 -38.115,138.581 -35.652,135.054C-34.592,135.035 -34.104,134.17 -33.477,133.542C-14.101,114.185 5.27,94.823 24.629,75.448C25.179,74.898 25.592,74.21 26.068,73.586C28.23,72.006 29.997,70.022 31.745,68.046C32.6,67.466 33.677,67.093 33.983,65.913C34.151,65.903 34.244,65.814 34.263,65.647C34.392,65.519 34.52,65.392 34.648,65.265C34.826,65.243 34.925,65.143 34.947,64.967C35.075,64.837 35.202,64.707 35.33,64.578C35.504,64.55 35.604,64.449 35.632,64.275C35.762,64.147 35.891,64.019 36.02,63.891C36.195,63.866 36.295,63.767 36.319,63.592C36.449,63.463 36.58,63.333 36.71,63.204C36.886,63.183 36.983,63.085 37.004,62.91C37.133,62.779 37.262,62.648 37.391,62.517C37.563,62.49 37.663,62.391 37.689,62.218C37.819,62.089 37.95,61.96 38.08,61.83C38.254,61.806 38.353,61.708 38.376,61.534C38.508,61.404 38.639,61.274 38.77,61.144C38.944,61.124 39.042,61.027 39.063,60.852C39.191,60.72 39.321,60.589 39.451,60.457C39.623,60.431 39.723,60.332 39.748,60.16C39.878,60.03 40.009,59.901 40.139,59.771C40.313,59.748 40.412,59.649 40.436,59.475C40.566,59.345 40.696,59.216 40.827,59.086C41.002,59.064 41.101,58.966 41.122,58.791C41.251,58.66 41.38,58.529 41.508,58.398C41.681,58.372 41.78,58.272 41.808,58.1C41.938,57.97 42.069,57.842 42.2,57.713C42.375,57.691 42.474,57.593 42.495,57.419C42.626,57.288 42.757,57.157 42.888,57.027C43.063,57.006 43.16,56.908 43.182,56.734C43.311,56.603 43.44,56.471 43.57,56.34C43.742,56.314 43.841,56.215 43.867,56.043C43.998,55.913 44.129,55.784 44.26,55.654C44.434,55.632 44.532,55.533 44.555,55.36C44.686,55.229 44.816,55.099 44.948,54.968C45.122,54.947 45.22,54.85 45.24,54.676C45.369,54.544 45.499,54.412 45.628,54.281C45.8,54.255 45.899,54.155 45.926,53.984C46.057,53.854 46.188,53.725 46.319,53.596C46.494,53.574 46.592,53.476 46.613,53.302C46.745,53.172 46.876,53.041 47.007,52.91C47.181,52.889 47.278,52.791 47.3,52.617C47.43,52.486 47.56,52.354 47.689,52.222C47.861,52.197 47.96,52.099 47.984,51.927C48.116,51.797 48.247,51.666 48.379,51.536C48.553,51.514 48.649,51.417 48.672,51.243L49.067,50.849C49.241,50.83 49.338,50.734 49.357,50.56C49.487,50.427 49.618,50.294 49.748,50.161C49.92,50.137 50.018,50.039 50.042,49.868C50.174,49.737 50.307,49.606 50.439,49.475C50.612,49.455 50.709,49.359 50.729,49.186C50.861,49.053 50.994,48.922 51.127,48.789C51.3,48.77 51.396,48.674 51.415,48.501C51.546,48.368 51.677,48.236 51.809,48.103C51.979,48.079 52.077,47.982 52.102,47.81L52.497,47.417C52.67,47.396 52.768,47.299 52.789,47.126C52.922,46.995 53.054,46.863 53.187,46.732C53.36,46.713 53.456,46.616 53.476,46.443C53.605,46.311 53.736,46.178 53.867,46.046C54.039,46.021 54.137,45.923 54.162,45.751C54.294,45.62 54.426,45.49 54.559,45.36C54.733,45.336 54.827,45.236 54.84,45.059L55.143,44.996L55.167,44.69C55.382,44.579 55.513,44.404 55.557,44.166C58.585,41.782 61.203,38.984 63.727,36.089" style="fill-rule:nonzero;"/>
        </g>
        <g transform="matrix(4.166667,0,0,4.166667,2922.562148,2356.618144)">
            <path d="M0,-63.018C-0.016,-63.017 -0.031,-63.017 -0.047,-63.016C0.472,-52.523 0.98,-42.03 1.529,-31.539C1.572,-30.71 1.088,-29.539 2.242,-29.154C3.146,-28.853 3.592,-29.838 4.123,-30.372C14.84,-41.139 25.519,-51.945 36.274,-62.674C37.655,-64.052 37.375,-64.824 36.057,-65.913C26.062,-74.16 14.635,-78.803 1.713,-79.846C-0.594,-80.032 -0.965,-79.016 -0.816,-77.039C-0.465,-72.372 -0.263,-67.692 0,-63.018M-36.193,-17.469C-36.193,-17.756 -36.194,-18.044 -36.195,-18.332C-43.842,-18.681 -51.498,-18.899 -59.131,-19.444C-62.161,-19.66 -62.879,-18.655 -62.601,-15.823C-61.348,-3.086 -56.937,8.315 -48.878,18.327C-47.164,20.456 -46.194,20.608 -44.211,18.57C-33.292,7.35 -22.217,-3.719 -11.213,-14.857C-10.63,-15.446 -9.411,-15.87 -10.006,-16.992C-10.439,-17.81 -11.463,-17.446 -12.213,-17.449C-20.206,-17.48 -28.199,-17.469 -36.193,-17.469M-25.5,-26.753C-25.5,-26.523 -25.501,-26.294 -25.501,-26.064C-20.247,-26.064 -14.988,-26.197 -9.741,-26.002C-7.511,-25.919 -6.953,-26.622 -7.092,-28.701C-7.451,-34.06 -7.674,-39.429 -7.925,-44.795C-8.415,-55.301 -8.893,-65.808 -9.363,-76.314C-9.445,-78.153 -9.521,-79.806 -12.2,-79.268C-18.392,-78.023 -24.365,-76.206 -30.03,-73.356C-31.825,-72.454 -32.068,-71.378 -31.728,-69.524C-29.361,-56.631 -39.208,-46.866 -52.005,-49.439C-53.925,-49.825 -54.898,-49.48 -55.791,-47.721C-58.445,-42.487 -60.287,-37.009 -61.57,-31.291C-62.17,-28.617 -61.354,-27.975 -58.743,-27.91C-47.659,-27.639 -36.581,-27.158 -25.5,-26.753M-71.99,-17.841C-71.818,-35.248 -67.043,-49.038 -58.183,-61.506C-57.041,-63.112 -56.208,-63.115 -55.045,-61.754C-54.972,-61.668 -54.88,-61.597 -54.792,-61.523C-49.985,-57.47 -45.97,-57.114 -42.66,-60.449C-39.464,-63.671 -39.704,-67.625 -43.714,-72.301C-45.186,-74.018 -45.306,-74.749 -43.271,-76.147C-13.318,-96.711 23.661,-92.897 48.693,-66.663C50.461,-64.811 50.454,-63.837 48.666,-62.042C23.828,-37.095 -0.937,-12.076 -25.714,12.932C-31.828,19.102 -37.985,25.232 -43.977,31.52C-45.741,33.371 -46.774,33.693 -48.843,31.766C-63.851,17.773 -71.433,0.532 -71.99,-17.841" style="fill-rule:nonzero;"/>
        </g>
        <g transform="matrix(4.166667,0,0,4.166667,3028.238398,2558.79731)">
            <path d="M0,-28.144L0,-27.803C2.971,-27.803 5.955,-27.983 8.907,-27.75C11.581,-27.54 12.522,-28.185 12.286,-31.102C11.388,-42.209 7.625,-52.187 1.381,-61.366C-0.32,-63.866 -1.326,-63.502 -3.185,-61.598C-12.846,-51.697 -22.631,-41.916 -32.352,-32.072C-32.941,-31.474 -34.208,-31.033 -33.681,-29.962C-33.227,-29.039 -32.039,-29.471 -31.18,-29.434C-20.787,-28.983 -10.394,-28.568 0,-28.144M-45.872,-17.252C-46.843,-17.56 -47.201,-17.04 -47.579,-16.659C-59.325,-4.827 -71.037,7.041 -82.832,18.825C-84.54,20.531 -83.907,21.329 -82.297,22.444C-71.542,29.887 -59.645,33.496 -46.573,33.525C-43.833,33.532 -43.355,32.455 -43.485,30.041C-44.077,18.98 -44.512,7.911 -45.043,-3.154C-45.271,-7.893 -45.597,-12.627 -45.872,-17.252M-12.43,-19.796C-12.43,-20.09 -12.43,-20.385 -12.429,-20.679C-19.735,-20.679 -27.043,-20.627 -34.349,-20.715C-36.202,-20.738 -37.019,-20.377 -36.909,-18.28C-36.076,-2.305 -35.318,13.672 -34.607,29.653C-34.52,31.629 -33.765,31.942 -32.038,31.46C-26.947,30.043 -22.17,27.918 -17.521,25.428C-15.594,24.396 -15.224,23.366 -15.804,21.113C-18.984,8.773 -8.905,-1.97 3.683,0.292C5.687,0.651 6.314,-0.05 6.996,-1.573C9.059,-6.182 10.427,-10.983 11.534,-15.903C12.076,-18.311 11.416,-18.825 9.145,-18.887C1.95,-19.085 -5.239,-19.479 -12.43,-19.796M21.711,-28.793C21.671,-12.953 17.791,-0.379 10.575,11.272C9.173,13.538 8.226,13.488 6.466,11.89C5.126,10.674 3.606,9.564 1.723,9.278C-1.698,8.757 -4.34,10.07 -6.148,12.948C-8.063,15.995 -7.555,19.143 -4.788,22.344C-1.883,25.706 -1.883,25.706 -5.204,28.189C-33.489,49.337 -69.848,47.312 -95.904,23.224C-97.7,21.563 -97.691,20.647 -95.988,18.933C-64.739,-12.518 -33.544,-44.023 -2.371,-75.549C-1.045,-76.89 -0.322,-77.481 1.356,-75.734C14.542,-62.007 21.468,-45.745 21.711,-28.793" style="fill-rule:nonzero;"/>
        </g>
        <g transform="matrix(4.166667,0,0,4.166667,3010.180065,1272.898144)">
            <path d="M0,110.773C-4.156,106.869 -4.09,106.958 0.325,103.661C2.961,101.693 5.388,99.436 7.829,97.221C8.537,96.579 9.789,95.913 9.405,94.815C8.979,93.592 7.612,94.203 6.68,94.195C-0.61,94.133 -7.901,94.144 -15.191,94.132C-16.253,93.7 -17.315,93.268 -18.378,92.836C-20.71,90.575 -23.042,88.314 -25.375,86.054C-25.564,85.673 -25.754,85.293 -25.943,84.912C-13.374,84.886 -0.805,84.856 11.765,84.836C17.173,84.827 17.08,84.798 19.059,79.791C20.081,77.201 19.841,76.175 16.697,76.255C9.503,76.44 2.3,76.289 -4.899,76.32C-14.719,76.363 -24.538,76.448 -34.357,76.515C-34.808,76.499 -35.258,76.482 -35.708,76.466C-36.084,75.499 -36.472,74.54 -37.633,74.256C-39.916,71.946 -42.199,69.636 -44.483,67.326C-44.483,67.327 -44.504,67.356 -44.504,67.356C-43.308,66.79 -42.031,67.002 -40.785,67.001C-21.001,66.993 -1.217,66.936 18.566,67.066C21.382,67.084 22.363,66.238 22.496,63.492C23.388,45.024 14.473,25.298 -4.258,14.69C-12.377,10.092 -21.08,7.617 -30.406,7.593C-54.536,7.532 -78.665,7.554 -102.795,7.552C-103.444,7.552 -104.095,7.666 -105.649,7.811C-91.248,21.749 -77.361,35.19 -62.896,49.191L-85.286,49.191C-85.085,48.788 -85.015,48.431 -84.798,48.243C-80.651,44.638 -80.638,44.632 -84.692,40.707C-98.41,27.428 -112.139,14.159 -125.85,0.871C-126.392,0.346 -127.53,0.04 -127.246,-0.883C-126.884,-2.061 -125.682,-1.522 -124.858,-1.522C-93.524,-1.54 -62.188,-1.774 -30.857,-1.442C-3.361,-1.151 20.422,16.061 28.34,40.614C37.103,67.789 27.995,95.053 4.612,111.666C4.154,111.991 3.747,112.388 3.316,112.752C2.912,112.779 2.507,112.806 2.103,112.834C1.401,112.147 0.701,111.46 0,110.773" style="fill-rule:nonzero;"/>
        </g>
        <g transform="matrix(4.166667,0,0,4.166667,1780.329648,1823.42231)">
            <path d="M0,-109.136C0,-99.266 -0.007,-89.398 0.007,-79.531C0.009,-77.696 0.916,-77.995 1.893,-78.842C3.961,-80.634 6.077,-82.384 8.017,-84.309C9.644,-85.925 10.798,-86.004 12.438,-84.196C15.96,-80.311 19.71,-76.632 23.377,-72.879C28.234,-67.907 28.138,-68.017 33.191,-72.805C35.136,-74.646 34.888,-75.6 33.118,-77.339C22.949,-87.336 12.912,-97.467 2.803,-107.524C2.137,-108.187 1.681,-109.284 0,-109.136M0,-51.022C3.282,-53.899 5.947,-56.03 8.356,-58.421C9.9,-59.954 10.834,-59.756 12.226,-58.264C16.669,-53.498 21.329,-48.932 25.718,-44.117C27.486,-42.177 28.544,-41.87 30.491,-43.986C34.747,-48.609 39.303,-52.956 43.74,-57.412C48.453,-62.144 48.372,-62.059 43.718,-66.754C41.952,-68.534 40.888,-68.312 39.316,-66.615C36.288,-63.345 32.982,-60.331 29.97,-57.048C28.469,-55.411 27.532,-55.621 26.149,-57.126C23.056,-60.493 19.879,-63.789 16.613,-66.989C14.36,-69.197 12.645,-73.201 9.74,-73.159C6.922,-73.118 4.809,-69.469 2.411,-67.376C1.329,-66.432 -0.056,-65.724 -0.022,-63.895C0.05,-59.923 0,-55.948 0,-51.022M0.113,12.812C-2.35,16.339 -5.641,19.064 -8.742,21.973C-8.849,20.502 -9.051,19.031 -9.051,17.561C-9.067,-30.884 -9.07,-79.329 -9.03,-127.774C-9.029,-128.786 -9.831,-130.305 -8.407,-130.768C-7.358,-131.109 -6.773,-129.723 -6.071,-129.025C8.27,-114.772 22.594,-100.503 36.922,-86.238C38.604,-83.117 41.414,-81.039 43.918,-78.679C44.399,-78.338 44.881,-77.995 45.362,-77.653C52.473,-70.543 59.583,-63.433 66.694,-56.323C66.97,-55.619 67.246,-54.915 67.522,-54.211C65.763,-52.22 63.996,-50.237 61.834,-48.657C60.364,-50.091 58.757,-51.411 57.456,-52.985C55.551,-55.289 54.21,-55.578 51.889,-53.123C44.835,-45.664 37.42,-38.548 30.246,-31.2C28.621,-29.536 27.639,-29.318 25.93,-31.176C21.296,-36.212 16.37,-40.978 11.705,-45.987C10.251,-47.548 9.284,-47.556 7.825,-46.125C5.791,-44.131 3.616,-42.276 1.45,-40.422C0.415,-39.537 -0.019,-38.542 -0.013,-37.158C0.059,-20.502 0.079,-3.845 0.113,12.812" style="fill-rule:nonzero;"/>
        </g>
        <g transform="matrix(4.166667,0,0,4.166667,2046.157982,1164.298144)">
            <path d="M0,34.609C3.08,39.832 7.716,43.76 11.519,48.382C12.28,49.309 12.914,48.813 12.994,47.689C17.516,44.195 17.283,44.158 15.721,39.028C14.024,33.459 12.557,27.804 11.114,22.164C8.937,13.65 6.923,5.101 4.112,-3.236C3.986,-4.031 4.447,-5.023 2.937,-5.899C-1.505,10.816 -5.872,27.253 -10.459,44.52C-8.379,43.175 -8.231,41.829 -7.583,40.804C-6.152,40.824 -5.518,39.615 -4.559,38.885C-2.888,37.613 -2.054,35.461 0,34.609M-19.88,79.511C-22.385,77.151 -25.194,75.072 -26.877,71.952C-24.134,64.723 -22.781,57.105 -20.731,49.684C-17.624,38.431 -14.997,27.047 -12.103,15.735C-9.41,5.214 -6.63,-5.284 -3.898,-15.796C-1.794,-23.896 0.174,-32.035 2.495,-40.073C2.954,-41.664 1.413,-44.191 4.291,-44.902C4.056,-42.846 4.119,-40.848 4.735,-38.813C5.987,-34.681 7.112,-30.506 8.165,-26.318C11.964,-11.21 15.665,3.922 19.49,19.023C23.285,34.001 26.678,49.109 31.267,63.843C33.341,70.5 32.884,75.175 27.33,79.239C26.219,79.099 25.646,78.191 25.642,77.351C25.619,73.863 24.039,70.774 23.288,67.481C22.343,63.337 21.031,59.277 19.877,55.181C19.499,53.071 18.578,54.257 17.912,54.919C16.004,56.815 14.161,58.775 12.293,60.71C11.112,60.866 10.557,60.101 9.842,59.306C6.484,55.576 3.511,51.476 -0.495,48.358C-1.972,46.989 -2.611,48.62 -3.148,49.319C-6.017,53.061 -9.574,56.133 -12.799,59.525C-14.403,61.211 -15.499,63.059 -16.051,65.39C-17.173,70.133 -18.587,74.808 -19.88,79.511" style="fill-rule:nonzero;"/>
        </g>
        <g transform="matrix(4.166667,0,0,4.166667,2859.390482,1462.57981)">
            <path d="M0,-19.067C-5.271,-19.018 -9.658,-14.637 -9.602,-9.481C-9.545,-4.399 -4.964,-0.004 0.218,-0.059C5.368,-0.114 9.94,-4.687 9.845,-9.687C9.746,-14.83 5.248,-19.116 0,-19.067M0.051,-27.908C10.397,-27.924 18.68,-19.759 18.663,-9.558C18.646,0.574 10.214,8.857 -0.02,8.793C-10.078,8.731 -18.455,0.458 -18.504,-9.463C-18.554,-19.642 -10.255,-27.892 0.051,-27.908" style="fill-rule:nonzero;"/>
        </g>
        <g transform="matrix(4.166667,0,0,4.166667,2095.271315,2570.373977)">
            <path d="M0,9.059C-0.43,5.414 -1.16,1.795 -0.957,-1.904C6.179,-5.729 12.349,-5.137 17.951,0.881C22.059,5.294 25.951,5.117 30.014,0.83C36.695,-6.219 44.742,-6.003 52.132,0.74C54.161,2.591 55.866,4.794 59.098,4.32C60.243,4.151 60.655,5.046 60.659,6.098C60.662,6.784 60.664,7.469 60.666,8.155C60.682,13.815 59.522,14.684 54.001,13.181C51.14,12.403 48.962,10.611 46.909,8.575C42.011,3.712 39.912,3.551 35.286,8.52C28.994,15.278 19.001,15.222 12.809,8.723C7.908,3.58 6.514,3.705 1.147,8.323C0.806,8.617 0.384,8.816 0,9.059" style="fill-rule:nonzero;"/>
        </g>
        <g transform="matrix(4.166667,0,0,4.166667,2299.055482,2468.24481)">
            <path d="M0,12.988C-2.854,11.608 -5.627,10.782 -8.679,10.89C-12.883,11.039 -16.427,12.421 -19.432,15.415C-23.854,19.821 -25.999,19.817 -30.365,15.533C-32.023,13.905 -33.805,12.461 -36.039,11.819C-37.995,11.258 -38.098,10.059 -37.753,8.415C-36.005,0.071 -26.579,-6.833 -17.775,-6.182C-8.367,-5.487 -0.11,2.592 0.252,11.474C0.269,11.894 0.115,12.322 0,12.988" style="fill-rule:nonzero;"/>
        </g>
        <g transform="matrix(4.166667,0,0,4.166667,2058.222565,1597.570227)">
            <path d="M0,-2.119C1.019,-2.121 2.038,-2.124 3.056,-2.126C2.748,-0.945 1.671,-0.572 0.816,0.007C0.552,-0.711 0.275,-1.415 0,-2.119" style="fill:rgb(29,29,27);fill-rule:nonzero;"/>
        </g>
        <g transform="matrix(4.166667,0,0,4.166667,2146.442982,1511.643977)">
            <path d="M0,0.394C0.047,0.176 0.18,0.045 0.396,0C0.264,0.132 0.132,0.263 0,0.394" style="fill:rgb(29,29,27);fill-rule:nonzero;"/>
        </g>
        <g transform="matrix(4.166667,0,0,4.166667,2149.307565,1508.78731)">
            <path d="M0,0.396C0.047,0.177 0.18,0.044 0.398,0C0.265,0.133 0.133,0.265 0,0.396" style="fill:rgb(29,29,27);fill-rule:nonzero;"/>
        </g>
        <g transform="matrix(4.166667,0,0,4.166667,2155.028398,1503.072727)">
            <path d="M0,0.392C0.047,0.174 0.18,0.043 0.397,0C0.264,0.131 0.132,0.262 0,0.392" style="fill:rgb(29,29,27);fill-rule:nonzero;"/>
        </g>
        <g transform="matrix(4.166667,0,0,4.166667,2157.852565,1500.28356)">
            <path d="M0,0.37C0.023,0.169 0.133,0.046 0.328,0C0.327,0.001 0.303,0.307 0.303,0.307L0,0.37Z" style="fill:rgb(29,29,27);fill-rule:nonzero;"/>
        </g>
        <g transform="matrix(4.166667,0,0,4.166667,2112.132982,1545.966477)">
            <path d="M0,0.39C0.046,0.173 0.178,0.043 0.394,0C0.262,0.131 0.131,0.26 0,0.39" style="fill:rgb(29,29,27);fill-rule:nonzero;"/>
        </g>
        <g transform="matrix(4.166667,0,0,4.166667,2089.252982,1568.840227)">
            <path d="M0,0.391C0.047,0.174 0.179,0.043 0.396,0C0.263,0.131 0.132,0.261 0,0.391" style="fill:rgb(29,29,27);fill-rule:nonzero;"/>
        </g>
        <g transform="matrix(4.166667,0,0,4.166667,2092.113398,1565.97731)">
            <path d="M0,0.396C0.044,0.179 0.174,0.047 0.389,0C0.259,0.133 0.129,0.264 0,0.396" style="fill:rgb(29,29,27);fill-rule:nonzero;"/>
        </g>
        <g transform="matrix(4.166667,0,0,4.166667,2094.970065,1563.119394)">
            <path d="M0,0.39C0.046,0.174 0.177,0.044 0.393,0C0.261,0.131 0.13,0.26 0,0.39" style="fill:rgb(29,29,27);fill-rule:nonzero;"/>
        </g>
        <g transform="matrix(4.166667,0,0,4.166667,2097.834648,1560.260644)">
            <path d="M0,0.391C0.046,0.175 0.177,0.044 0.393,0C0.261,0.132 0.131,0.261 0,0.391" style="fill:rgb(29,29,27);fill-rule:nonzero;"/>
        </g>
        <g transform="matrix(4.166667,0,0,4.166667,2100.695065,1557.397727)">
            <path d="M0,0.394C0.043,0.178 0.173,0.046 0.387,0C0.258,0.132 0.129,0.263 0,0.394" style="fill:rgb(29,29,27);fill-rule:nonzero;"/>
        </g>
        <g transform="matrix(4.166667,0,0,4.166667,2103.551732,1554.543977)">
            <path d="M0,0.388C0.047,0.172 0.179,0.042 0.394,0C0.262,0.13 0.131,0.259 0,0.388" style="fill:rgb(29,29,27);fill-rule:nonzero;"/>
        </g>
        <g transform="matrix(4.166667,0,0,4.166667,2106.416315,1551.68481)">
            <path d="M0,0.393C0.046,0.175 0.177,0.044 0.394,0C0.262,0.132 0.131,0.263 0,0.393" style="fill:rgb(29,29,27);fill-rule:nonzero;"/>
        </g>
        <g transform="matrix(4.166667,0,0,4.166667,2109.276732,1548.824394)">
            <path d="M0,0.395C0.043,0.178 0.174,0.046 0.39,0C0.259,0.132 0.129,0.264 0,0.395" style="fill:rgb(29,29,27);fill-rule:nonzero;"/>
        </g>
        <g transform="matrix(4.166667,0,0,4.166667,2137.861315,1520.219394)">
            <path d="M0,0.394C0.048,0.176 0.181,0.045 0.398,0C0.265,0.132 0.132,0.263 0,0.394" style="fill:rgb(29,29,27);fill-rule:nonzero;"/>
        </g>
        <g transform="matrix(4.166667,0,0,4.166667,2114.997565,1543.10981)">
            <path d="M0,0.392C0.045,0.174 0.177,0.043 0.395,0C0.262,0.131 0.131,0.262 0,0.392" style="fill:rgb(29,29,27);fill-rule:nonzero;"/>
        </g>
        <g transform="matrix(4.166667,0,0,4.166667,2117.854232,1540.242727)">
            <path d="M0,0.396C0.043,0.179 0.173,0.046 0.389,0C0.259,0.133 0.129,0.265 0,0.396" style="fill:rgb(29,29,27);fill-rule:nonzero;"/>
        </g>
        <g transform="matrix(4.166667,0,0,4.166667,2120.710482,1537.388977)">
            <path d="M0,0.389C0.047,0.173 0.179,0.042 0.396,0C0.263,0.13 0.131,0.26 0,0.389" style="fill:rgb(29,29,27);fill-rule:nonzero;"/>
        </g>
        <g transform="matrix(4.166667,0,0,4.166667,2123.575065,1534.527727)">
            <path d="M0,0.394C0.046,0.176 0.177,0.044 0.395,0C0.263,0.133 0.132,0.264 0,0.394" style="fill:rgb(29,29,27);fill-rule:nonzero;"/>
        </g>
        <g transform="matrix(4.166667,0,0,4.166667,2126.435482,1531.665227)">
            <path d="M0,0.396C0.044,0.178 0.174,0.046 0.391,0C0.26,0.133 0.13,0.265 0,0.396" style="fill:rgb(29,29,27);fill-rule:nonzero;"/>
        </g>
        <g transform="matrix(4.166667,0,0,4.166667,2129.287982,1528.806894)">
            <path d="M0,0.392C0.047,0.175 0.179,0.043 0.396,0C0.263,0.131 0.132,0.262 0,0.392" style="fill:rgb(29,29,27);fill-rule:nonzero;"/>
        </g>
        <g transform="matrix(4.166667,0,0,4.166667,2132.152565,1525.946477)">
            <path d="M0,0.395C0.046,0.176 0.179,0.044 0.396,0C0.264,0.132 0.132,0.264 0,0.395" style="fill:rgb(29,29,27);fill-rule:nonzero;"/>
        </g>
        <g transform="matrix(4.166667,0,0,4.166667,2135.009232,1523.081477)">
            <path d="M0,0.399C0.044,0.18 0.175,0.047 0.392,0C0.261,0.133 0.13,0.266 0,0.399" style="fill:rgb(29,29,27);fill-rule:nonzero;"/>
        </g>
        <g transform="matrix(4.166667,0,0,4.166667,2072.114232,1586.010227)">
            <path d="M0,0.383C0.044,0.169 0.173,0.041 0.387,0C0.257,0.129 0.129,0.256 0,0.383" style="fill:rgb(29,29,27);fill-rule:nonzero;"/>
        </g>
        <g transform="matrix(4.166667,0,0,4.166667,2074.966732,1583.146894)">
            <path d="M0,0.39C0.042,0.175 0.17,0.044 0.384,0C0.255,0.131 0.128,0.26 0,0.39" style="fill:rgb(29,29,27);fill-rule:nonzero;"/>
        </g>
        <g transform="matrix(4.166667,0,0,4.166667,2152.167982,1505.932727)">
            <path d="M0,0.398C0.044,0.179 0.175,0.046 0.393,0C0.261,0.133 0.13,0.266 0,0.398" style="fill:rgb(29,29,27);fill-rule:nonzero;"/>
        </g>
        <g transform="matrix(4.166667,0,0,4.166667,2140.725898,1517.364394)">
            <path d="M0,0.397C0.047,0.178 0.18,0.045 0.398,0C0.265,0.133 0.132,0.265 0,0.397" style="fill:rgb(29,29,27);fill-rule:nonzero;"/>
        </g>
        <g transform="matrix(4.166667,0,0,4.166667,2080.683815,1577.423977)">
            <path d="M0,0.389C0.045,0.173 0.176,0.042 0.392,0C0.261,0.13 0.13,0.26 0,0.389" style="fill:rgb(29,29,27);fill-rule:nonzero;"/>
        </g>
        <g transform="matrix(4.166667,0,0,4.166667,2083.535898,1574.556894)">
            <path d="M0,0.395C0.044,0.178 0.173,0.046 0.388,0C0.258,0.133 0.129,0.264 0,0.395" style="fill:rgb(29,29,27);fill-rule:nonzero;"/>
        </g>
        <g transform="matrix(4.166667,0,0,4.166667,2143.582565,1514.503977)">
            <path d="M0,0.399C0.045,0.18 0.177,0.046 0.395,0C0.262,0.133 0.131,0.266 0,0.399" style="fill:rgb(29,29,27);fill-rule:nonzero;"/>
        </g>
        <g transform="matrix(4.166667,0,0,4.166667,2086.392565,1571.698977)">
            <path d="M0,0.389C0.046,0.174 0.177,0.044 0.392,0C0.261,0.131 0.13,0.26 0,0.389" style="fill:rgb(29,29,27);fill-rule:nonzero;"/>
        </g>
        <g transform="matrix(4.166667,0,0,4.166667,2077.819232,1580.282727)">
            <path d="M0,0.386C0.046,0.172 0.176,0.043 0.39,0C0.259,0.13 0.13,0.258 0,0.386" style="fill:rgb(29,29,27);fill-rule:nonzero;"/>
        </g>
        <g transform="matrix(4.166667,0,0,4.166667,1986.673398,2976.274394)">
            <path d="M0,-17.654L0,-19.697C0,-20.327 0.51,-20.838 1.141,-20.838L7.1,-20.838C7.573,-20.838 7.957,-20.455 7.957,-19.981L7.957,-18.136C7.957,-17.663 7.573,-17.279 7.1,-17.279L6.615,-17.279C6.142,-17.279 5.758,-16.896 5.758,-16.423L5.758,-1.232C5.758,-0.758 6.142,-0.375 6.615,-0.375L7.1,-0.375C7.573,-0.375 7.957,0.008 7.957,0.483L7.957,2.326C7.957,2.8 7.573,3.184 7.1,3.184L0.856,3.184C0.383,3.184 -0.001,2.8 -0.001,2.326L-0.001,0.483C-0.001,0.008 0.383,-0.375 0.856,-0.375L1.341,-0.375C1.814,-0.375 2.198,-0.758 2.198,-1.232L2.198,-10.159C2.198,-10.639 1.556,-10.801 1.327,-10.378L-3.159,-2.038C-3.482,-1.437 -4.346,-1.437 -4.669,-2.038L-9.156,-10.378C-9.384,-10.801 -10.027,-10.639 -10.027,-10.159L-10.027,-1.232C-10.027,-0.758 -9.644,-0.375 -9.17,-0.375L-8.685,-0.375C-8.211,-0.375 -7.827,0.009 -7.827,0.483L-7.827,2.326C-7.827,2.801 -8.211,3.184 -8.685,3.184L-14.929,3.184C-15.402,3.184 -15.786,2.801 -15.786,2.326L-15.786,0.483C-15.786,0.009 -15.402,-0.375 -14.929,-0.375L-14.443,-0.375C-13.97,-0.375 -13.587,-0.758 -13.587,-1.232L-13.587,-16.421C-13.587,-16.895 -13.97,-17.278 -14.443,-17.278L-14.929,-17.278C-15.402,-17.278 -15.786,-17.662 -15.786,-18.135L-15.786,-19.98C-15.786,-20.454 -15.402,-20.837 -14.929,-20.837L-8.969,-20.837C-8.339,-20.837 -7.828,-20.327 -7.828,-19.697L-7.828,-17.653C-7.828,-17.447 -7.996,-17.279 -8.202,-17.279C-8.485,-17.279 -8.667,-16.976 -8.532,-16.727L-4.242,-8.754C-4.103,-8.494 -3.728,-8.494 -3.588,-8.754L0.701,-16.727C0.835,-16.977 0.654,-17.279 0.372,-17.279C0.164,-17.279 -0.003,-17.447 0,-17.654" style="fill-rule:nonzero;"/>
        </g>
        <g transform="matrix(4.166667,0,0,4.166667,2111.583815,2932.71606)">
            <path d="M0,3.258L2.929,3.258C3.441,3.258 3.797,2.748 3.618,2.268L2.071,-1.909C1.863,-2.473 1.065,-2.473 0.856,-1.909L-0.69,2.268C-0.867,2.748 -0.512,3.258 0,3.258M10.043,9.369C10.201,9.796 10.607,10.079 11.062,10.079L11.934,10.079C12.533,10.079 13.02,10.565 13.02,11.165L13.02,12.551C13.02,13.152 12.533,13.638 11.934,13.638L6.149,13.638C5.549,13.638 5.062,13.152 5.062,12.551L5.062,10.674C5.062,10.346 5.329,10.079 5.657,10.079C6.072,10.079 6.358,9.666 6.215,9.278L5.566,7.527C5.408,7.1 5.002,6.817 4.547,6.817L-1.618,6.817C-2.073,6.817 -2.479,7.1 -2.638,7.527L-3.286,9.278C-3.43,9.666 -3.143,10.079 -2.729,10.079C-2.4,10.079 -2.134,10.346 -2.134,10.674L-2.134,12.551C-2.134,13.152 -2.62,13.638 -3.221,13.638L-9.005,13.638C-9.604,13.638 -10.092,13.152 -10.092,12.551L-10.092,11.165C-10.092,10.565 -9.604,10.079 -9.005,10.079L-8.133,10.079C-7.679,10.079 -7.271,9.796 -7.113,9.369L-0.069,-9.657C0.088,-10.08 0.489,-10.362 0.94,-10.367L1.955,-10.376C2.407,-10.38 2.813,-10.104 2.979,-9.684L3.169,-9.196L10.043,9.369Z" style="fill-rule:nonzero;"/>
        </g>
        <g transform="matrix(4.166667,0,0,4.166667,2269.095065,2978.285227)">
            <path d="M0,-18.619L0,-20.464C0,-20.937 0.384,-21.32 0.857,-21.32L7.101,-21.32C7.575,-21.32 7.958,-20.937 7.958,-20.464L7.958,-18.619C7.958,-18.145 7.575,-17.762 7.101,-17.762L6.616,-17.762C6.143,-17.762 5.759,-17.379 5.759,-16.905L5.759,-1.715C5.759,-1.241 6.143,-0.857 6.616,-0.857L7.101,-0.857C7.575,-0.857 7.958,-0.474 7.958,0L7.958,1.844C7.958,2.318 7.575,2.701 7.101,2.701L0.857,2.701C0.384,2.701 0,2.318 0,1.844L0,-0.588C0,-0.736 0.121,-0.857 0.271,-0.857C0.483,-0.857 0.613,-1.092 0.5,-1.272L-6.593,-12.566C-6.737,-12.797 -7.093,-12.694 -7.093,-12.422L-7.093,-1.715C-7.093,-1.241 -6.709,-0.857 -6.235,-0.857L-5.751,-0.857C-5.277,-0.857 -4.894,-0.474 -4.894,0L-4.894,1.844C-4.894,2.318 -5.277,2.701 -5.751,2.701L-11.994,2.701C-12.468,2.701 -12.852,2.318 -12.852,1.844L-12.852,0C-12.852,-0.474 -12.468,-0.857 -11.994,-0.857L-11.51,-0.857C-11.036,-0.857 -10.652,-1.241 -10.652,-1.715L-10.652,-16.905C-10.652,-17.379 -11.036,-17.762 -11.51,-17.762L-11.994,-17.762C-12.468,-17.762 -12.852,-18.145 -12.852,-18.619L-12.852,-20.464C-12.852,-20.937 -12.468,-21.32 -11.994,-21.32L-5.751,-21.32C-5.277,-21.32 -4.894,-20.937 -4.894,-20.464L-4.894,-18.032C-4.894,-17.883 -5.015,-17.762 -5.164,-17.762C-5.377,-17.762 -5.507,-17.527 -5.394,-17.348L1.699,-6.054C1.844,-5.823 2.199,-5.926 2.199,-6.198L2.199,-16.905C2.199,-17.379 1.815,-17.762 1.342,-17.762L0.857,-17.762C0.384,-17.762 0,-18.145 0,-18.619" style="fill-rule:nonzero;"/>
        </g>
        <g transform="matrix(4.166667,0,0,4.166667,2352.033815,2978.968144)">
            <path d="M0,-18.945L0,-20.465C0,-21.028 0.457,-21.484 1.021,-21.484L6.937,-21.484C7.502,-21.484 7.958,-21.027 7.958,-20.465L7.958,-18.946C7.958,-18.383 7.501,-17.925 6.937,-17.925L6.778,-17.925C6.214,-17.925 5.758,-17.468 5.758,-16.906L5.758,-2.041C5.758,-1.477 6.215,-1.021 6.778,-1.021L6.934,-1.021C7.498,-1.021 7.954,-0.563 7.954,-0.001L7.954,1.519C7.954,2.082 7.497,2.539 6.934,2.539L1.016,2.539C0.452,2.539 -0.004,2.081 -0.004,1.519L-0.004,-0.001C-0.004,-0.565 0.453,-1.021 1.016,-1.021L1.18,-1.021C1.743,-1.021 2.2,-1.477 2.2,-2.041L2.2,-16.906C2.2,-17.469 1.743,-17.925 1.18,-17.925L1.021,-17.925C0.456,-17.925 0,-18.383 0,-18.945" style="fill-rule:nonzero;"/>
        </g>
        <g transform="matrix(4.166667,0,0,4.166667,2439.436315,2989.46106)">
            <path d="M0,-24.019L0.708,-24.038L14.239,-24.038C14.846,-24.038 15.339,-23.544 15.339,-22.938L15.339,-21.746L15.065,-21.276L4.284,-4.136C4.121,-3.876 4.308,-3.539 4.614,-3.539L10.681,-3.539C11.287,-3.539 11.78,-4.031 11.78,-4.639L11.78,-6.187C11.78,-6.795 12.272,-7.288 12.881,-7.288L14.239,-7.288C14.848,-7.288 15.34,-6.795 15.34,-6.187L15.34,-1.093C15.34,-0.495 14.86,-0.005 14.262,0.006L13.561,0.019L0.03,0.019C-0.577,0.019 -1.07,-0.473 -1.07,-1.081L-1.07,-2.273L-0.796,-2.743L9.985,-19.88C10.148,-20.141 9.962,-20.479 9.654,-20.479L3.589,-20.479C2.981,-20.479 2.488,-19.986 2.488,-19.378L2.488,-17.817C2.488,-17.21 1.996,-16.718 1.389,-16.718L0.029,-16.718C-0.578,-16.718 -1.07,-17.21 -1.07,-17.817L-1.07,-22.919C-1.07,-23.515 -0.595,-24.003 0,-24.019" style="fill-rule:nonzero;"/>
        </g>
        <g transform="matrix(4.166667,0,0,4.166667,2595.100065,2932.71606)">
            <path d="M0,3.258L2.93,3.258C3.441,3.258 3.797,2.748 3.619,2.268L2.072,-1.909C1.863,-2.473 1.066,-2.473 0.857,-1.909L-0.689,2.268C-0.867,2.748 -0.512,3.258 0,3.258M10.043,9.369C10.2,9.796 10.607,10.079 11.063,10.079L11.934,10.079C12.534,10.079 13.021,10.565 13.021,11.165L13.021,12.551C13.021,13.152 12.534,13.638 11.934,13.638L6.149,13.638C5.55,13.638 5.062,13.152 5.062,12.551L5.062,10.674C5.062,10.346 5.329,10.079 5.657,10.079C6.071,10.079 6.358,9.666 6.215,9.278L5.566,7.527C5.408,7.1 5.002,6.817 4.547,6.817L-1.618,6.817C-2.072,6.817 -2.479,7.1 -2.638,7.527L-3.286,9.278C-3.43,9.666 -3.143,10.079 -2.729,10.079C-2.4,10.079 -2.134,10.346 -2.134,10.674L-2.134,12.551C-2.134,13.152 -2.62,13.638 -3.22,13.638L-9.005,13.638C-9.604,13.638 -10.091,13.152 -10.091,12.551L-10.091,11.165C-10.091,10.565 -9.604,10.079 -9.005,10.079L-8.133,10.079C-7.679,10.079 -7.271,9.796 -7.114,9.369L-0.069,-9.657C0.088,-10.08 0.489,-10.362 0.94,-10.367L1.956,-10.376C2.407,-10.38 2.813,-10.104 2.978,-9.684L3.17,-9.196L10.043,9.369Z" style="fill-rule:nonzero;"/>
        </g>
        <g transform="matrix(4.166667,0,0,4.166667,2755.045065,2908.53606)">
            <path d="M0,14.863L0,13.267C0,12.704 0.457,12.248 1.021,12.248L2.54,12.248C3.104,12.248 3.56,12.704 3.56,13.267L3.56,18.424C3.56,18.987 3.103,19.443 2.54,19.443L-12.415,19.443C-12.979,19.443 -13.435,18.986 -13.435,18.424L-13.435,16.904C-13.435,16.341 -12.979,15.884 -12.415,15.884L-12.251,15.884C-11.688,15.884 -11.231,15.426 -11.231,14.863L-11.231,-0C-11.231,-0.565 -11.688,-1.021 -12.251,-1.021L-12.411,-1.021C-12.976,-1.021 -13.432,-1.479 -13.432,-2.041L-13.432,-3.561C-13.432,-4.124 -12.974,-4.58 -12.411,-4.58L-6.493,-4.58C-5.93,-4.58 -5.473,-4.123 -5.473,-3.561L-5.473,-2.042C-5.473,-1.479 -5.931,-1.022 -6.493,-1.022L-6.653,-1.022C-7.217,-1.022 -7.673,-0.565 -7.673,-0.002L-7.673,14.863C-7.673,15.426 -7.217,15.883 -6.653,15.883L-1.019,15.883C-0.455,15.883 0.001,15.426 0.001,14.863L0,14.863Z" style="fill-rule:nonzero;"/>
        </g>
        <g transform="matrix(4.166667,0,0,4.166667,2826.810065,2954.20731)">
            <path d="M0,-7.062L0,-14.468C0,-15.061 0.48,-15.541 1.073,-15.541L13.02,-15.541C13.613,-15.541 14.093,-15.061 14.093,-14.468L14.093,-13.056C14.093,-12.463 13.612,-11.983 13.02,-11.983L4.632,-11.983C4.038,-11.983 3.559,-11.502 3.559,-10.91L3.559,-7.274C3.559,-6.681 4.039,-6.202 4.632,-6.202L8.474,-6.202C9.067,-6.202 9.547,-5.72 9.547,-5.128L9.547,-3.715C9.547,-3.122 9.065,-2.642 8.474,-2.642L4.632,-2.642C4.038,-2.642 3.559,-2.162 3.559,-1.569L3.559,3.848C3.559,4.441 4.039,4.921 4.632,4.921L13.02,4.921C13.613,4.921 14.093,5.402 14.093,5.995L14.093,7.406C14.093,7.999 13.612,8.479 13.02,8.479L1.073,8.479C0.479,8.479 0,7.998 0,7.406L0,-1.781C0,-2.256 -0.385,-2.642 -0.861,-2.642C-1.337,-2.642 -1.723,-3.027 -1.723,-3.502L-1.723,-5.338C-1.723,-5.814 -1.338,-6.2 -0.861,-6.2C-0.385,-6.2 0,-6.585 0,-7.062" style="fill-rule:nonzero;"/>
        </g>
        <g transform="matrix(4.166667,0,0,4.166667,2997.337982,2915.966894)">
            <path d="M0,10.855C0,14.735 -3.102,17.66 -7.216,17.66C-8.686,17.66 -10.104,17.166 -11.315,16.347C-11.315,16.593 -11.516,16.793 -11.761,16.793L-13.85,16.793C-14.416,16.793 -14.874,16.334 -14.874,15.768L-14.874,11.026C-14.874,10.46 -14.416,10.001 -13.85,10.001L-12.241,10.001C-11.759,10.001 -11.331,10.325 -11.215,10.793C-10.777,12.535 -8.982,14.099 -7.217,14.099C-5.456,14.099 -3.56,13.083 -3.56,10.853C-3.56,8.778 -4.979,8.002 -8.22,6.728C-11.185,5.561 -14.874,4.109 -14.874,-0.297C-14.874,-4.129 -11.907,-6.805 -7.658,-6.805C-6.322,-6.805 -5.074,-6.433 -4.002,-5.799L-4.002,-5.977C-4.002,-6.222 -3.803,-6.422 -3.557,-6.422L-1.467,-6.422C-0.901,-6.422 -0.442,-5.963 -0.442,-5.398L-0.442,-0.613C-0.442,-0.047 -0.901,0.412 -1.467,0.412L-3.102,0.412C-3.581,0.412 -3.985,0.072 -4.092,-0.396C-4.46,-2.026 -5.92,-3.247 -7.659,-3.247C-9.428,-3.247 -11.316,-2.472 -11.316,-0.297C-11.316,1.498 -9.976,2.212 -6.917,3.417C-3.998,4.564 -0.001,6.137 0,10.855" style="fill-rule:nonzero;"/>
        </g>
        <g transform="matrix(4.166667,0,0,4.166667,1789.257148,3096.164394)">
            <path d="M0,41.009L-1.521,43.658C-2.08,44.636 -3.266,45.035 -4.317,44.634C-7.165,43.551 -10.388,43.502 -13.268,44.536C-13.473,44.611 -13.688,44.693 -13.9,44.784L-14.09,44.859C-16.312,45.664 -18.645,46.071 -21.022,46.071C-23.951,46.071 -26.827,45.444 -29.466,44.241C-30.694,43.682 -31.123,42.14 -30.415,40.989L-28.811,38.386C-28.217,37.418 -27.014,37.07 -25.964,37.503C-23.057,38.707 -19.717,38.82 -16.751,37.77C-16.455,37.647 -16.155,37.53 -15.849,37.418C-11.069,35.693 -5.725,35.851 -1.067,37.78C0.187,38.298 0.673,39.833 0,41.009M-33.892,15.816C-35.434,4.583 -26.704,-5.062 -15.767,-5.062C-9.418,-5.062 -3.57,-1.755 -0.256,3.541C0.464,4.691 -0.056,6.221 -1.293,6.775L-4.088,8.025C-5.118,8.488 -6.295,8.097 -6.935,7.166C-8.915,4.29 -12.209,2.511 -15.768,2.511C-21.571,2.511 -26.312,7.14 -26.492,12.901C-26.653,18.052 -22.931,22.757 -17.875,23.761C-13.543,24.62 -9.303,22.751 -6.936,19.315C-6.297,18.384 -5.121,17.993 -4.09,18.454L-1.291,19.706C-0.06,20.258 0.464,21.78 -0.251,22.926C-4.485,29.706 -12.875,33.233 -21.151,30.741C-27.891,28.713 -32.939,22.784 -33.892,15.816" style="fill-rule:nonzero;"/>
        </g>
        <g transform="matrix(4.166667,0,0,4.166667,1941.507148,3209.23106)">
            <path d="M0,-13.254C0,-19.518 -5.097,-24.613 -11.36,-24.613L-13.043,-24.613C-19.308,-24.613 -24.403,-19.518 -24.403,-13.254L-24.403,0C-24.403,6.264 -19.308,11.359 -13.043,11.359L-11.36,11.359C-5.097,11.359 0,6.264 0,0L0,-13.254ZM7.573,-13.254L7.573,0C7.573,10.439 -0.921,18.933 -11.36,18.933L-13.043,18.933C-23.482,18.933 -31.977,10.439 -31.977,0L-31.977,-13.254C-31.977,-23.693 -23.482,-32.187 -13.043,-32.187L-11.36,-32.187C-0.921,-32.187 7.573,-23.693 7.573,-13.254" style="fill-rule:nonzero;"/>
        </g>
        <g transform="matrix(4.166667,0,0,4.166667,2130.695898,3259.896894)">
            <path d="M0,-37.571L0,-41.92C0,-43.259 1.085,-44.346 2.426,-44.346L15.109,-44.346C16.117,-44.346 16.934,-43.53 16.934,-42.522L16.934,-38.597C16.934,-37.59 16.117,-36.773 15.109,-36.773L14.077,-36.773C13.069,-36.773 12.253,-35.957 12.253,-34.949L12.253,-2.625C12.253,-1.616 13.069,-0.8 14.077,-0.8L15.109,-0.8C16.117,-0.8 16.934,0.016 16.934,1.025L16.934,4.949C16.934,5.957 16.117,6.773 15.109,6.773L1.822,6.773C0.813,6.773 -0.002,5.957 -0.002,4.949L-0.002,1.025C-0.002,0.016 0.813,-0.8 1.822,-0.8L2.854,-0.8C3.861,-0.8 4.678,-1.616 4.678,-2.625L4.678,-21.62C4.678,-22.643 3.31,-22.988 2.825,-22.087L-6.724,-4.34C-7.412,-3.06 -9.248,-3.06 -9.937,-4.34L-19.485,-22.087C-19.971,-22.988 -21.339,-22.643 -21.339,-21.62L-21.339,-2.623C-21.339,-1.615 -20.522,-0.799 -19.515,-0.799L-18.482,-0.799C-17.475,-0.799 -16.658,0.018 -16.658,1.026L-16.658,4.95C-16.658,5.959 -17.475,6.775 -18.482,6.775L-31.77,6.775C-32.778,6.775 -33.594,5.959 -33.594,4.95L-33.594,1.026C-33.594,0.018 -32.778,-0.799 -31.77,-0.799L-30.738,-0.799C-29.73,-0.799 -28.914,-1.615 -28.914,-2.623L-28.914,-34.947C-28.914,-35.956 -29.73,-36.772 -30.738,-36.772L-31.77,-36.772C-32.778,-36.772 -33.594,-37.589 -33.594,-38.595L-33.594,-42.521C-33.594,-43.529 -32.778,-44.345 -31.77,-44.345L-19.087,-44.345C-17.747,-44.345 -16.66,-43.259 -16.66,-41.918L-16.66,-37.569C-16.66,-37.131 -17.017,-36.773 -17.456,-36.773C-18.059,-36.773 -18.444,-36.129 -18.158,-35.598L-9.028,-18.632C-8.73,-18.077 -7.935,-18.077 -7.636,-18.632L1.492,-35.598C1.776,-36.131 1.393,-36.773 0.79,-36.773C0.35,-36.773 -0.006,-37.131 0,-37.571" style="fill-rule:nonzero;"/>
        </g>
        <g transform="matrix(4.166667,0,0,4.166667,2335.411732,3219.690644)">
            <path d="M0,-18.275C0.467,-23.072 -3.306,-27.124 -8.008,-27.124L-13.551,-27.124C-14.76,-27.124 -15.739,-26.144 -15.739,-24.936L-15.739,-13.217C-15.739,-12.009 -14.76,-11.03 -13.551,-11.03L-8.366,-11.03C-4.165,-11.03 -0.407,-14.093 0,-18.275M7.578,-20.145C8.186,-11.049 0.961,-3.457 -8.006,-3.457L-13.55,-3.457C-14.758,-3.457 -15.737,-2.477 -15.737,-1.269L-15.737,6.662C-15.737,7.87 -14.758,8.849 -13.55,8.849L-13.245,8.849C-12.036,8.849 -11.057,9.829 -11.057,11.037L-11.057,14.235C-11.057,15.443 -12.036,16.422 -13.245,16.422L-25.803,16.422C-27.012,16.422 -27.991,15.443 -27.991,14.235L-27.991,11.037C-27.991,9.829 -27.012,8.849 -25.803,8.849L-25.498,8.849C-24.29,8.849 -23.311,7.87 -23.311,6.662L-23.311,-24.936C-23.311,-26.144 -24.29,-27.124 -25.498,-27.124L-25.754,-27.124C-26.963,-27.124 -27.942,-28.103 -27.942,-29.312L-27.942,-32.509C-27.942,-33.718 -26.963,-34.697 -25.754,-34.697L-8.558,-34.697C-0.246,-34.697 7.022,-28.438 7.578,-20.145" style="fill-rule:nonzero;"/>
        </g>
        <g transform="matrix(4.166667,0,0,4.166667,2460.997982,3152.456894)">
            <path d="M0,10.241L9.207,10.241C10.818,10.241 11.934,8.638 11.375,7.129L6.513,-6.001C5.856,-7.774 3.351,-7.774 2.694,-6.001L-2.168,7.129C-2.725,8.638 -1.608,10.241 0,10.241M31.567,29.452C32.064,30.792 33.343,31.682 34.771,31.682L37.511,31.682C39.398,31.682 40.927,33.211 40.927,35.097L40.927,39.453C40.927,41.34 39.398,42.868 37.511,42.868L19.329,42.868C17.442,42.868 15.914,41.34 15.914,39.453L15.914,33.552C15.914,32.519 16.752,31.682 17.783,31.682C19.086,31.682 19.988,30.385 19.536,29.164L17.497,23.658C17,22.318 15.723,21.428 14.293,21.428L-5.087,21.428C-6.517,21.428 -7.794,22.318 -8.29,23.658L-10.329,29.164C-10.781,30.385 -9.879,31.682 -8.576,31.682C-7.545,31.682 -6.707,32.519 -6.707,33.552L-6.707,39.453C-6.707,41.34 -8.236,42.868 -10.123,42.868L-28.305,42.868C-30.191,42.868 -31.72,41.34 -31.72,39.453L-31.72,35.097C-31.72,33.211 -30.191,31.682 -28.305,31.682L-25.565,31.682C-24.136,31.682 -22.857,30.792 -22.36,29.452L-0.217,-30.356C0.275,-31.685 1.538,-32.573 2.955,-32.585L6.147,-32.615C7.566,-32.627 8.845,-31.763 9.361,-30.443L9.963,-28.906L31.567,29.452Z" style="fill-rule:nonzero;"/>
        </g>
        <g transform="matrix(4.166667,0,0,4.166667,2746.459232,3208.720644)">
            <path d="M0,-16.778L10.957,-16.778C16.59,-16.778 21.048,-21.935 19.85,-27.777C18.979,-32.026 15.031,-34.957 10.693,-34.957L-0.003,-34.957C-1.803,-34.957 -3.26,-33.498 -3.26,-31.701L-3.26,-20.035C-3.26,-18.237 -1.801,-16.778 0,-16.778M17.788,-2.939L28.085,16.451C28.648,17.512 29.755,18.179 30.961,18.179L34.818,18.179C36.619,18.179 38.075,19.638 38.075,21.435L38.075,26.109C38.075,27.908 36.616,29.365 34.818,29.365L16.317,29.365C14.517,29.365 13.061,27.906 13.061,26.109L13.061,19.41C13.061,18.73 13.612,18.179 14.291,18.179C15.218,18.179 15.813,17.192 15.377,16.371L4.631,-3.864C4.066,-4.927 2.96,-5.594 1.754,-5.594L-0.003,-5.594C-1.803,-5.594 -3.26,-4.134 -3.26,-2.338L-3.26,14.922C-3.26,16.722 -1.801,18.179 -0.003,18.179L0.397,18.179C2.196,18.179 3.653,19.638 3.653,21.435L3.653,26.109C3.653,27.908 2.194,29.365 0.397,29.365L-18.105,29.365C-19.905,29.365 -21.361,27.906 -21.361,26.109L-21.361,21.435C-21.361,19.635 -19.902,18.179 -18.105,18.179L-17.705,18.179C-15.905,18.179 -14.448,16.719 -14.448,14.922L-14.448,-31.701C-14.448,-33.5 -15.908,-34.957 -17.705,-34.957L-18.105,-34.957C-19.905,-34.957 -21.361,-36.416 -21.361,-38.214L-21.361,-42.886C-21.361,-44.687 -19.902,-46.143 -18.105,-46.143L10.611,-46.143C20.926,-46.143 29.872,-38.571 31.086,-28.33C32.18,-19.115 27.041,-10.946 19.345,-7.436C17.627,-6.653 16.901,-4.607 17.788,-2.939" style="fill-rule:nonzero;"/>
        </g>
        <g transform="matrix(4.166667,0,0,4.166667,2892.182565,3298.505227)">
            <path d="M0,-59.879L0,-64.316C0,-66.178 1.509,-67.69 3.373,-67.69L46.341,-67.69C48.203,-67.69 49.714,-66.181 49.714,-64.316L49.714,-59.876C49.714,-58.014 48.205,-56.503 46.341,-56.503L33.825,-56.503C31.963,-56.503 30.452,-54.994 30.452,-53.13L30.452,-6.745C30.452,-4.883 31.961,-3.372 33.825,-3.372L33.989,-3.372C35.852,-3.372 37.362,-1.863 37.362,0.001L37.362,4.438C37.362,6.301 35.854,7.811 33.989,7.811L15.723,7.811C13.861,7.811 12.35,6.303 12.35,4.438L12.35,0.001C12.35,-1.86 13.858,-3.372 15.723,-3.372L15.887,-3.372C17.749,-3.372 19.26,-4.881 19.26,-6.745L19.26,-53.132C19.26,-54.994 17.751,-56.505 15.887,-56.505L3.371,-56.505C1.509,-56.505 -0.003,-58.014 0,-59.879" style="fill-rule:nonzero;"/>
        </g>
        <g transform="matrix(4.166667,0,0,4.166667,3139.904232,3119.362727)">
            <path d="M0,26.123L0,-21.438C0,-23.234 1.457,-24.691 3.255,-24.691L33.115,-24.691C34.912,-24.691 36.368,-23.234 36.368,-21.438L36.368,-16.759C36.368,-14.961 34.912,-13.504 33.115,-13.504L14.44,-13.504C12.644,-13.504 11.187,-12.048 11.187,-10.251L11.187,-8.369C11.187,-6.571 12.644,-5.114 14.44,-5.114L18.614,-5.114C20.412,-5.114 21.869,-3.658 21.869,-1.86L21.869,2.817C21.869,4.615 20.412,6.071 18.614,6.071L14.44,6.071C12.644,6.071 11.187,7.528 11.187,9.325L11.187,14.936C11.187,16.733 12.644,18.19 14.44,18.19L33.115,18.19C34.912,18.19 36.368,19.647 36.368,21.444L36.368,26.123C36.368,27.92 34.912,29.377 33.115,29.377L3.255,29.377C1.454,29.377 0,27.92 0,26.123M39.59,45.659C38.315,47.887 35.683,48.976 33.224,48.242C29.358,47.089 25.135,47.173 21.326,48.548C21.023,48.657 20.705,48.779 20.392,48.913L20.111,49.022C16.829,50.213 13.385,50.814 9.872,50.814C6.652,50.814 3.476,50.301 0.453,49.306C-2.998,48.17 -4.504,44.123 -2.6,41.03L-2.592,41.018C-1.228,38.803 1.47,37.858 3.942,38.664C7.896,39.951 12.261,39.939 16.184,38.552C16.621,38.37 17.063,38.196 17.516,38.032C23.524,35.867 30.132,35.711 36.204,37.466C39.728,38.482 41.418,42.481 39.59,45.659" style="fill-rule:nonzero;"/>
        </g>
        <g transform="matrix(4.166667,0,0,4.166667,1717.923398,3406.583144)">
            <path d="M0,11.86L0,10.588C0,10.137 0.365,9.773 0.814,9.773L2.026,9.773C2.477,9.773 2.84,10.138 2.84,10.588L2.84,14.701C2.84,15.151 2.476,15.514 2.026,15.514L-9.906,15.514C-10.355,15.514 -10.72,15.15 -10.72,14.701L-10.72,13.489C-10.72,13.039 -10.355,12.674 -9.906,12.674L-9.775,12.674C-9.325,12.674 -8.961,12.31 -8.961,11.861L-8.961,0.001C-8.961,-0.45 -9.326,-0.813 -9.775,-0.813L-9.902,-0.813C-10.353,-0.813 -10.717,-1.178 -10.717,-1.627L-10.717,-2.839C-10.717,-3.289 -10.353,-3.654 -9.902,-3.654L-5.181,-3.654C-4.731,-3.654 -4.367,-3.288 -4.367,-2.839L-4.367,-1.628C-4.367,-1.178 -4.731,-0.814 -5.181,-0.814L-5.309,-0.814C-5.758,-0.814 -6.122,-0.45 -6.122,-0L-6.122,11.86C-6.122,12.31 -5.758,12.674 -5.309,12.674L-0.813,12.674C-0.363,12.674 0.001,12.309 0.001,11.86L0,11.86Z" style="fill-rule:nonzero;"/>
        </g>
        <g transform="matrix(4.166667,0,0,4.166667,1749.332148,3460.30106)">
            <path d="M0,-14.125C-0.469,-14.887 -0.138,-15.917 0.71,-16.201C2.339,-16.748 4.144,-16.744 5.764,-16.156L5.832,-16.13C5.91,-16.098 5.99,-16.066 6.07,-16.037C7.037,-15.687 8.108,-15.665 9.091,-15.959C9.716,-16.145 10.385,-15.867 10.709,-15.303L10.711,-15.297C11.153,-14.524 10.796,-13.509 9.944,-13.247C9.222,-13.025 8.467,-12.911 7.706,-12.911C6.814,-12.911 5.939,-13.064 5.107,-13.366C4.994,-13.406 4.881,-13.451 4.767,-13.498C3.771,-13.851 2.664,-13.854 1.66,-13.527C1.032,-13.323 0.346,-13.563 0,-14.125M13.817,0.632L13.817,1.774C13.817,2.243 13.438,2.623 12.968,2.623L8.316,2.623C7.848,2.623 7.468,2.243 7.468,1.774L7.468,0.632C7.468,0.163 7.848,-0.217 8.316,-0.217L8.362,-0.217L5.868,-5.284C5.657,-5.713 5.045,-5.713 4.834,-5.284L2.341,-0.217L2.387,-0.217C2.855,-0.217 3.235,0.163 3.235,0.632L3.235,1.774C3.235,2.243 2.855,2.623 2.387,2.623L-2.266,2.623C-2.733,2.623 -3.114,2.243 -3.114,1.774L-3.114,0.632C-3.114,0.163 -2.733,-0.217 -2.266,-0.217L-1.352,-0.217C-1.027,-0.217 -0.732,-0.4 -0.59,-0.69L4.024,-10.068C4.281,-10.582 4.787,-10.896 5.352,-10.896L5.36,-10.896L5.736,-10.894C6.048,-10.892 6.335,-10.718 6.481,-10.442L6.683,-10.063L11.294,-0.691C11.437,-0.4 11.732,-0.218 12.056,-0.218L12.969,-0.218C13.438,-0.218 13.817,0.163 13.817,0.632" style="fill-rule:nonzero;"/>
        </g>
        <g transform="matrix(4.166667,0,0,4.166667,1870.812148,3440.160227)">
            <path d="M0,-4.258L2.781,-4.258C4.211,-4.258 5.343,-5.567 5.038,-7.05C4.817,-8.128 3.815,-8.872 2.715,-8.872L-0.001,-8.872C-0.457,-8.872 -0.827,-8.502 -0.827,-8.045L-0.827,-5.085C-0.827,-4.628 -0.457,-4.258 0,-4.258M4.516,-0.745L7.129,4.177C7.272,4.446 7.553,4.615 7.859,4.615L8.838,4.615C9.295,4.615 9.665,4.985 9.665,5.441L9.665,6.628C9.665,7.085 9.295,7.454 8.838,7.454L4.142,7.454C3.685,7.454 3.315,7.085 3.315,6.628L3.315,4.928C3.315,4.755 3.455,4.615 3.627,4.615C3.863,4.615 4.014,4.364 3.903,4.157L1.176,-0.98C1.032,-1.25 0.752,-1.419 0.445,-1.419L-0.001,-1.419C-0.457,-1.419 -0.827,-1.049 -0.827,-0.593L-0.827,3.789C-0.827,4.245 -0.457,4.615 -0.001,4.615L0.101,4.615C0.558,4.615 0.928,4.985 0.928,5.441L0.928,6.628C0.928,7.085 0.557,7.454 0.101,7.454L-4.596,7.454C-5.053,7.454 -5.422,7.085 -5.422,6.628L-5.422,5.441C-5.422,4.984 -5.052,4.615 -4.596,4.615L-4.494,4.615C-4.037,4.615 -3.667,4.245 -3.667,3.789L-3.667,-8.045C-3.667,-8.503 -4.038,-8.872 -4.494,-8.872L-4.596,-8.872C-5.053,-8.872 -5.422,-9.243 -5.422,-9.699L-5.422,-10.885C-5.422,-11.342 -5.052,-11.712 -4.596,-11.712L2.693,-11.712C5.312,-11.712 7.583,-9.79 7.891,-7.19C8.168,-4.852 6.863,-2.778 4.91,-1.887C4.475,-1.688 4.29,-1.168 4.516,-0.745" style="fill-rule:nonzero;"/>
        </g>
        <g transform="matrix(4.166667,0,0,4.166667,1951.972565,3472.180644)">
            <path d="M0,-19.397L2.874,-19.397C3.352,-19.397 3.738,-19.012 3.741,-18.536L3.745,-17.977L3.745,-6.522C3.745,-2.91 0.685,0 -2.979,-0.245C-6.319,-0.468 -8.839,-3.396 -8.839,-6.745L-8.839,-15.69C-8.839,-16.168 -9.228,-16.556 -9.706,-16.556L-9.736,-16.556C-10.216,-16.556 -10.604,-16.945 -10.604,-17.424L-10.604,-18.53C-10.604,-19.009 -10.216,-19.397 -9.736,-19.397L-6.867,-19.397C-6.388,-19.397 -6,-19.009 -6,-18.53L-6,-6.522C-6,-4.504 -4.262,-2.885 -2.203,-3.085C-0.409,-3.26 0.905,-4.873 0.905,-6.675L0.905,-15.69C0.905,-16.168 0.517,-16.556 0.038,-16.556L-0.001,-16.556C-0.479,-16.556 -0.867,-16.945 -0.867,-17.424L-0.867,-18.53C-0.867,-19.009 -0.479,-19.397 0,-19.397" style="fill-rule:nonzero;"/>
        </g>
        <g transform="matrix(4.166667,0,0,4.166667,1974.201732,3462.95731)">
            <path d="M0,-15.2L0,-16.326C0,-16.799 0.383,-17.182 0.856,-17.182L11.763,-17.182C12.235,-17.182 12.619,-16.8 12.619,-16.326L12.619,-15.199C12.619,-14.726 12.236,-14.343 11.763,-14.343L8.586,-14.343C8.113,-14.343 7.729,-13.96 7.729,-13.487L7.729,-1.714C7.729,-1.24 8.112,-0.856 8.586,-0.856L8.628,-0.856C9.101,-0.856 9.484,-0.473 9.484,-0.001L9.484,1.126C9.484,1.598 9.101,1.982 8.628,1.982L3.991,1.982C3.519,1.982 3.135,1.599 3.135,1.126L3.135,-0.001C3.135,-0.473 3.518,-0.856 3.991,-0.856L4.033,-0.856C4.506,-0.856 4.889,-1.24 4.889,-1.714L4.889,-13.487C4.889,-13.96 4.506,-14.344 4.033,-14.344L0.855,-14.344C0.383,-14.344 -0.001,-14.726 0,-15.2" style="fill-rule:nonzero;"/>
        </g>
        <g transform="matrix(4.166667,0,0,4.166667,2059.268398,3425.875227)">
            <path d="M0,2.601L2.337,2.601C2.746,2.601 3.029,2.195 2.888,1.811L1.653,-1.522C1.487,-1.971 0.851,-1.971 0.685,-1.522L-0.55,1.811C-0.691,2.195 -0.408,2.601 0,2.601M8.013,7.478C8.14,7.818 8.464,8.043 8.826,8.043L9.521,8.043C10.001,8.043 10.389,8.432 10.389,8.911L10.389,10.016C10.389,10.495 10.001,10.882 9.521,10.882L4.906,10.882C4.428,10.882 4.04,10.495 4.04,10.016L4.04,8.518C4.04,8.255 4.252,8.043 4.514,8.043C4.845,8.043 5.074,7.714 4.959,7.404L4.441,6.006C4.315,5.666 3.991,5.44 3.628,5.44L-1.291,5.44C-1.653,5.44 -1.979,5.666 -2.104,6.006L-2.622,7.404C-2.736,7.714 -2.507,8.043 -2.177,8.043C-1.915,8.043 -1.702,8.255 -1.702,8.518L-1.702,10.016C-1.702,10.495 -2.091,10.882 -2.569,10.882L-7.185,10.882C-7.663,10.882 -8.052,10.495 -8.052,10.016L-8.052,8.911C-8.052,8.432 -7.663,8.043 -7.185,8.043L-6.489,8.043C-6.126,8.043 -5.802,7.818 -5.676,7.478L-0.055,-7.704C0.07,-8.041 0.391,-8.266 0.75,-8.269L1.561,-8.278C1.921,-8.281 2.245,-8.061 2.376,-7.726L2.529,-7.336L8.013,7.478Z" style="fill-rule:nonzero;"/>
        </g>
        <g transform="matrix(4.166667,0,0,4.166667,2190.807565,3435.80106)">
            <path d="M0,-2.164C0,-5.292 -2.535,-7.826 -5.662,-7.826L-5.866,-7.826C-6.32,-7.826 -6.688,-7.458 -6.688,-7.004L-6.688,4.839C-6.688,5.293 -6.32,5.662 -5.866,5.662L-5.662,5.662C-2.535,5.662 0,3.127 0,-0L0,-2.164ZM2.839,-2.163L2.839,-0C2.839,4.696 -0.967,8.502 -5.662,8.502L-10.441,8.502C-10.896,8.502 -11.265,8.134 -11.265,7.68L-11.265,6.484C-11.265,6.03 -10.896,5.662 -10.441,5.662L-10.351,5.662C-9.896,5.662 -9.527,5.293 -9.527,4.839L-9.527,-7.003C-9.527,-7.457 -9.896,-7.825 -10.351,-7.825L-10.441,-7.825C-10.896,-7.825 -11.265,-8.194 -11.265,-8.648L-11.265,-9.843C-11.265,-10.297 -10.896,-10.666 -10.441,-10.666L-5.662,-10.666C-0.967,-10.666 2.839,-6.859 2.839,-2.163" style="fill-rule:nonzero;"/>
        </g>
        <g transform="matrix(4.166667,0,0,4.166667,2212.918398,3417.490644)">
            <path d="M0,6.628L0,-5.443C0,-5.9 0.37,-6.269 0.826,-6.269L8.405,-6.269C8.861,-6.269 9.231,-5.9 9.231,-5.443L9.231,-4.256C9.231,-3.8 8.861,-3.431 8.405,-3.431L3.665,-3.431C3.209,-3.431 2.84,-3.06 2.84,-2.604L2.84,-2.126C2.84,-1.67 3.209,-1.301 3.665,-1.301L4.725,-1.301C5.181,-1.301 5.551,-0.931 5.551,-0.475L5.551,0.713C5.551,1.169 5.181,1.539 4.725,1.539L3.665,1.539C3.209,1.539 2.84,1.908 2.84,2.364L2.84,3.789C2.84,4.245 3.209,4.615 3.665,4.615L8.405,4.615C8.861,4.615 9.231,4.984 9.231,5.441L9.231,6.628C9.231,7.084 8.861,7.454 8.405,7.454L0.826,7.454C0.369,7.454 0,7.084 0,6.628M10.05,11.588C9.726,12.153 9.058,12.43 8.434,12.243C7.452,11.95 6.38,11.972 5.413,12.321C5.337,12.349 5.256,12.38 5.176,12.413L5.104,12.441C4.271,12.743 3.397,12.897 2.506,12.897C1.688,12.897 0.882,12.766 0.115,12.513C-0.761,12.225 -1.144,11.197 -0.66,10.413L-0.658,10.409C-0.312,9.848 0.373,9.607 1.001,9.812C2.004,10.139 3.112,10.136 4.107,9.783C4.219,9.737 4.331,9.693 4.446,9.651C5.971,9.102 7.648,9.063 9.189,9.508C10.084,9.766 10.513,10.781 10.05,11.588" style="fill-rule:nonzero;"/>
        </g>
        <g transform="matrix(4.166667,0,0,4.166667,2339.716732,3462.235644)">
            <path d="M0,-14.854L0,-16.327C0,-16.704 0.306,-17.01 0.684,-17.01L5.666,-17.01C6.043,-17.01 6.35,-16.704 6.35,-16.327L6.35,-14.854C6.35,-14.477 6.043,-14.17 5.666,-14.17L5.278,-14.17C4.9,-14.17 4.595,-13.865 4.595,-13.487L4.595,-1.367C4.595,-0.99 4.9,-0.683 5.278,-0.683L5.666,-0.683C6.043,-0.683 6.35,-0.377 6.35,-0L6.35,1.472C6.35,1.85 6.043,2.156 5.666,2.156L0.684,2.156C0.306,2.156 0,1.85 0,1.472L0,-0.467C0,-0.586 0.096,-0.683 0.216,-0.683C0.386,-0.683 0.488,-0.871 0.398,-1.013L-5.261,-10.025C-5.376,-10.208 -5.659,-10.127 -5.659,-9.91L-5.659,-1.367C-5.659,-0.99 -5.354,-0.683 -4.976,-0.683L-4.589,-0.683C-4.211,-0.683 -3.905,-0.377 -3.905,-0L-3.905,1.472C-3.905,1.85 -4.211,2.156 -4.589,2.156L-9.57,2.156C-9.948,2.156 -10.255,1.85 -10.255,1.472L-10.255,-0C-10.255,-0.377 -9.948,-0.683 -9.57,-0.683L-9.184,-0.683C-8.806,-0.683 -8.5,-0.99 -8.5,-1.367L-8.5,-13.487C-8.5,-13.865 -8.806,-14.17 -9.184,-14.17L-9.57,-14.17C-9.948,-14.17 -10.255,-14.477 -10.255,-14.854L-10.255,-16.327C-10.255,-16.704 -9.948,-17.01 -9.57,-17.01L-4.589,-17.01C-4.211,-17.01 -3.905,-16.704 -3.905,-16.327L-3.905,-14.386C-3.905,-14.267 -4.001,-14.17 -4.121,-14.17C-4.29,-14.17 -4.394,-13.984 -4.304,-13.839L1.355,-4.829C1.471,-4.645 1.755,-4.726 1.755,-4.944L1.755,-13.487C1.755,-13.865 1.448,-14.17 1.07,-14.17L0.684,-14.17C0.306,-14.17 0,-14.477 0,-14.854" style="fill-rule:nonzero;"/>
        </g>
        <g transform="matrix(4.166667,0,0,4.166667,2416.962982,3472.180644)">
            <path d="M0,-19.397L2.874,-19.397C3.351,-19.397 3.737,-19.012 3.741,-18.536L3.744,-17.977L3.744,-6.522C3.744,-2.91 0.685,0 -2.979,-0.245C-6.319,-0.468 -8.84,-3.396 -8.84,-6.745L-8.84,-15.69C-8.84,-16.168 -9.229,-16.556 -9.707,-16.556L-9.737,-16.556C-10.216,-16.556 -10.604,-16.945 -10.604,-17.424L-10.604,-18.53C-10.604,-19.009 -10.216,-19.397 -9.737,-19.397L-6.867,-19.397C-6.389,-19.397 -6.001,-19.009 -6.001,-18.53L-6.001,-6.522C-6.001,-4.504 -4.262,-2.885 -2.204,-3.085C-0.41,-3.26 0.904,-4.873 0.904,-6.675L0.904,-15.69C0.904,-16.168 0.517,-16.556 0.037,-16.556L-0.001,-16.556C-0.48,-16.556 -0.868,-16.945 -0.868,-17.424L-0.868,-18.53C-0.868,-19.009 -0.48,-19.397 0,-19.397" style="fill-rule:nonzero;"/>
        </g>
        <g transform="matrix(4.166667,0,0,4.166667,2444.917148,3443.020644)">
            <path d="M0,-5.632L0,-11.542C0,-12.016 0.383,-12.399 0.855,-12.399L10.389,-12.399C10.861,-12.399 11.244,-12.015 11.244,-11.542L11.244,-10.415C11.244,-9.942 10.86,-9.559 10.389,-9.559L3.695,-9.559C3.222,-9.559 2.839,-9.175 2.839,-8.702L2.839,-5.802C2.839,-5.329 3.223,-4.945 3.695,-4.945L6.761,-4.945C7.234,-4.945 7.616,-4.562 7.616,-4.09L7.616,-2.962C7.616,-2.488 7.232,-2.106 6.761,-2.106L3.695,-2.106C3.222,-2.106 2.839,-1.722 2.839,-1.249L2.839,3.072C2.839,3.546 3.223,3.929 3.695,3.929L10.389,3.929C10.861,3.929 11.244,4.312 11.244,4.785L11.244,5.911C11.244,6.384 10.86,6.767 10.389,6.767L0.855,6.767C0.383,6.767 0,6.384 0,5.911L0,-1.418C0,-1.798 -0.309,-2.106 -0.687,-2.106C-1.066,-2.106 -1.375,-2.413 -1.375,-2.793L-1.375,-4.257C-1.375,-4.637 -1.067,-4.945 -0.687,-4.945C-0.309,-4.945 0,-5.253 0,-5.632" style="fill-rule:nonzero;"/>
        </g>
        <g transform="matrix(4.166667,0,0,4.166667,2547.879232,3412.51481)">
            <path d="M0,8.662C0,11.758 -2.476,14.091 -5.758,14.091C-6.931,14.091 -8.063,13.697 -9.028,13.044C-9.028,13.24 -9.188,13.399 -9.385,13.399L-11.051,13.399C-11.502,13.399 -11.868,13.033 -11.868,12.582L-11.868,8.799C-11.868,8.347 -11.502,7.981 -11.051,7.981L-9.768,7.981C-9.383,7.981 -9.042,8.239 -8.948,8.612C-8.6,10.003 -7.167,11.251 -5.759,11.251C-4.354,11.251 -2.84,10.439 -2.84,8.66C-2.84,7.005 -3.974,6.386 -6.559,5.369C-8.924,4.438 -11.868,3.279 -11.868,-0.237C-11.868,-3.294 -9.501,-5.429 -6.11,-5.429C-5.045,-5.429 -4.049,-5.133 -3.193,-4.626L-3.193,-4.768C-3.193,-4.964 -3.035,-5.124 -2.838,-5.124L-1.172,-5.124C-0.72,-5.124 -0.354,-4.758 -0.354,-4.306L-0.354,-0.488C-0.354,-0.036 -0.72,0.329 -1.172,0.329L-2.475,0.329C-2.858,0.329 -3.18,0.058 -3.265,-0.316C-3.559,-1.616 -4.724,-2.589 -6.111,-2.589C-7.522,-2.589 -9.029,-1.971 -9.029,-0.237C-9.029,1.196 -7.959,1.766 -5.52,2.726C-3.19,3.642 -0.002,4.897 0,8.662" style="fill-rule:nonzero;"/>
        </g>
        <g transform="matrix(4.166667,0,0,4.166667,2554.471315,3462.95731)">
            <path d="M0,-15.2L0,-16.326C0,-16.799 0.383,-17.182 0.855,-17.182L11.763,-17.182C12.235,-17.182 12.619,-16.8 12.619,-16.326L12.619,-15.199C12.619,-14.726 12.236,-14.343 11.763,-14.343L8.586,-14.343C8.112,-14.343 7.729,-13.96 7.729,-13.487L7.729,-1.714C7.729,-1.24 8.112,-0.856 8.586,-0.856L8.628,-0.856C9.1,-0.856 9.483,-0.473 9.483,-0.001L9.483,1.126C9.483,1.598 9.101,1.982 8.628,1.982L3.99,1.982C3.519,1.982 3.135,1.599 3.135,1.126L3.135,-0.001C3.135,-0.473 3.518,-0.856 3.99,-0.856L4.032,-0.856C4.505,-0.856 4.889,-1.24 4.889,-1.714L4.889,-13.487C4.889,-13.96 4.506,-14.344 4.032,-14.344L0.855,-14.344C0.383,-14.344 -0.001,-14.726 0,-15.2" style="fill-rule:nonzero;"/>
        </g>
        <g transform="matrix(4.166667,0,0,4.166667,2636.302982,3440.160227)">
            <path d="M0,-4.258L2.781,-4.258C4.211,-4.258 5.343,-5.567 5.038,-7.05C4.817,-8.128 3.815,-8.872 2.714,-8.872L-0.001,-8.872C-0.458,-8.872 -0.827,-8.502 -0.827,-8.045L-0.827,-5.085C-0.827,-4.628 -0.457,-4.258 0,-4.258M4.515,-0.745L7.128,4.177C7.271,4.446 7.553,4.615 7.858,4.615L8.838,4.615C9.295,4.615 9.665,4.985 9.665,5.441L9.665,6.628C9.665,7.085 9.294,7.454 8.838,7.454L4.142,7.454C3.685,7.454 3.315,7.085 3.315,6.628L3.315,4.928C3.315,4.755 3.455,4.615 3.627,4.615C3.862,4.615 4.014,4.364 3.903,4.157L1.175,-0.98C1.032,-1.25 0.751,-1.419 0.445,-1.419L-0.001,-1.419C-0.458,-1.419 -0.827,-1.049 -0.827,-0.593L-0.827,3.789C-0.827,4.245 -0.457,4.615 -0.001,4.615L0.101,4.615C0.558,4.615 0.927,4.985 0.927,5.441L0.927,6.628C0.927,7.085 0.557,7.454 0.101,7.454L-4.596,7.454C-5.053,7.454 -5.423,7.085 -5.423,6.628L-5.423,5.441C-5.423,4.984 -5.052,4.615 -4.596,4.615L-4.494,4.615C-4.037,4.615 -3.668,4.245 -3.668,3.789L-3.668,-8.045C-3.668,-8.503 -4.038,-8.872 -4.494,-8.872L-4.596,-8.872C-5.053,-8.872 -5.423,-9.243 -5.423,-9.699L-5.423,-10.885C-5.423,-11.342 -5.052,-11.712 -4.596,-11.712L2.693,-11.712C5.312,-11.712 7.582,-9.79 7.891,-7.19C8.168,-4.852 6.864,-2.778 4.91,-1.887C4.474,-1.688 4.29,-1.168 4.515,-0.745" style="fill-rule:nonzero;"/>
        </g>
        <g transform="matrix(4.166667,0,0,4.166667,2716.755482,3425.875227)">
            <path d="M0,2.601L2.338,2.601C2.746,2.601 3.029,2.195 2.888,1.811L1.653,-1.522C1.487,-1.971 0.851,-1.971 0.685,-1.522L-0.55,1.811C-0.691,2.195 -0.408,2.601 0,2.601M8.014,7.478C8.14,7.818 8.464,8.043 8.826,8.043L9.522,8.043C10.001,8.043 10.389,8.432 10.389,8.911L10.389,10.016C10.389,10.495 10.001,10.882 9.522,10.882L4.907,10.882C4.428,10.882 4.04,10.495 4.04,10.016L4.04,8.518C4.04,8.255 4.253,8.043 4.515,8.043C4.846,8.043 5.074,7.714 4.96,7.404L4.441,6.006C4.315,5.666 3.991,5.44 3.629,5.44L-1.291,5.44C-1.653,5.44 -1.978,5.666 -2.104,6.006L-2.621,7.404C-2.736,7.714 -2.507,8.043 -2.177,8.043C-1.915,8.043 -1.702,8.255 -1.702,8.518L-1.702,10.016C-1.702,10.495 -2.09,10.882 -2.569,10.882L-7.184,10.882C-7.663,10.882 -8.051,10.495 -8.051,10.016L-8.051,8.911C-8.051,8.432 -7.663,8.043 -7.184,8.043L-6.489,8.043C-6.126,8.043 -5.802,7.818 -5.676,7.478L-0.055,-7.704C0.07,-8.041 0.391,-8.266 0.751,-8.269L1.561,-8.278C1.921,-8.281 2.245,-8.061 2.377,-7.726L2.529,-7.336L8.014,7.478Z" style="fill-rule:nonzero;"/>
        </g>
        <g transform="matrix(4.166667,0,0,4.166667,2841.450482,3462.252727)">
            <path d="M0,-14.86L0,-16.325C0,-16.704 0.308,-17.012 0.687,-17.012L5.662,-17.012C6.041,-17.012 6.349,-16.705 6.349,-16.325L6.349,-14.86C6.349,-14.481 6.042,-14.173 5.662,-14.173L5.281,-14.173C4.901,-14.173 4.594,-13.866 4.594,-13.486L4.594,-1.374C4.594,-0.995 4.901,-0.686 5.281,-0.686L5.662,-0.686C6.041,-0.686 6.349,-0.38 6.349,0L6.349,1.465C6.349,1.844 6.042,2.152 5.662,2.152L0.687,2.152C0.308,2.152 0,1.845 0,1.465L0,0C0,-0.379 0.308,-0.686 0.687,-0.686L1.067,-0.686C1.447,-0.686 1.755,-0.994 1.755,-1.374L1.755,-6.1C1.755,-6.479 1.447,-6.788 1.067,-6.788L-4.341,-6.788C-4.72,-6.788 -5.027,-6.48 -5.027,-6.1L-5.027,-1.374C-5.027,-0.995 -4.721,-0.686 -4.341,-0.686L-3.96,-0.686C-3.581,-0.686 -3.273,-0.38 -3.273,0L-3.273,1.465C-3.273,1.844 -3.58,2.152 -3.96,2.152L-8.936,2.152C-9.313,2.152 -9.622,1.845 -9.622,1.465L-9.622,0C-9.622,-0.379 -9.314,-0.686 -8.936,-0.686L-8.555,-0.686C-8.175,-0.686 -7.867,-0.994 -7.867,-1.374L-7.867,-13.486C-7.867,-13.866 -8.175,-14.173 -8.555,-14.173L-8.936,-14.173C-9.313,-14.173 -9.622,-14.481 -9.622,-14.86L-9.622,-16.325C-9.622,-16.704 -9.314,-17.012 -8.936,-17.012L-3.96,-17.012C-3.581,-17.012 -3.273,-16.705 -3.273,-16.325L-3.273,-14.86C-3.273,-14.481 -3.58,-14.173 -3.96,-14.173L-4.341,-14.173C-4.72,-14.173 -5.027,-13.866 -5.027,-13.486L-5.027,-10.315C-5.027,-9.936 -4.721,-9.628 -4.341,-9.628L1.067,-9.628C1.447,-9.628 1.755,-9.935 1.755,-10.315L1.755,-13.486C1.755,-13.866 1.447,-14.173 1.067,-14.173L0.687,-14.173C0.308,-14.173 0,-14.481 0,-14.86" style="fill-rule:nonzero;"/>
        </g>
        <g transform="matrix(4.166667,0,0,4.166667,2912.067982,3444.13981)">
            <path d="M0,-6.384L0,-5.223C0,-4.759 -0.375,-4.384 -0.838,-4.384L-0.916,-4.384C-1.379,-4.384 -1.754,-4.008 -1.754,-3.545L-1.754,2.823C-1.754,3.286 -1.379,3.661 -0.916,3.661L-0.838,3.661C-0.375,3.661 0,4.037 0,4.5L0,5.663C0,6.126 -0.375,6.501 -0.838,6.501L-5.51,6.501C-5.973,6.501 -6.349,6.126 -6.349,5.663L-6.349,4.5C-6.349,4.037 -5.973,3.661 -5.51,3.661L-5.433,3.661C-4.97,3.661 -4.594,3.286 -4.594,2.823L-4.594,-3.545C-4.594,-4.008 -4.97,-4.384 -5.433,-4.384L-5.51,-4.384C-5.973,-4.384 -6.349,-4.759 -6.349,-5.223L-6.349,-6.384C-6.349,-6.848 -5.973,-7.223 -5.51,-7.223L-0.838,-7.223C-0.375,-7.223 0,-6.848 0,-6.384M2.136,-9.56C1.203,-9.169 0.197,-8.964 -0.82,-8.964C-1.712,-8.964 -2.586,-9.117 -3.419,-9.419C-3.532,-9.46 -3.646,-9.505 -3.762,-9.552C-4.883,-9.948 -6.136,-9.904 -7.227,-9.448C-7.612,-9.286 -8.056,-9.415 -8.275,-9.773L-8.891,-10.77C-9.153,-11.197 -8.989,-11.768 -8.532,-11.975C-6.732,-12.789 -4.63,-12.885 -2.764,-12.211L-2.688,-12.181C-2.58,-12.135 -2.471,-12.095 -2.359,-12.058C-1.269,-11.695 -0.115,-11.847 0.991,-12.156C1.358,-12.258 1.751,-12.108 1.943,-11.771L2.528,-10.751C2.777,-10.318 2.597,-9.754 2.136,-9.56" style="fill-rule:nonzero;"/>
        </g>
        <g transform="matrix(4.166667,0,0,4.166667,2979.112982,3412.51481)">
            <path d="M0,8.662C0,11.758 -2.476,14.091 -5.758,14.091C-6.931,14.091 -8.063,13.697 -9.028,13.044C-9.028,13.24 -9.188,13.399 -9.385,13.399L-11.051,13.399C-11.502,13.399 -11.868,13.033 -11.868,12.582L-11.868,8.799C-11.868,8.347 -11.502,7.981 -11.051,7.981L-9.768,7.981C-9.383,7.981 -9.042,8.239 -8.948,8.612C-8.6,10.003 -7.167,11.251 -5.759,11.251C-4.354,11.251 -2.84,10.439 -2.84,8.66C-2.84,7.005 -3.974,6.386 -6.559,5.369C-8.924,4.438 -11.868,3.279 -11.868,-0.237C-11.868,-3.294 -9.501,-5.429 -6.11,-5.429C-5.045,-5.429 -4.05,-5.133 -3.194,-4.626L-3.194,-4.768C-3.194,-4.964 -3.035,-5.124 -2.838,-5.124L-1.172,-5.124C-0.72,-5.124 -0.354,-4.758 -0.354,-4.306L-0.354,-0.488C-0.354,-0.036 -0.72,0.329 -1.172,0.329L-2.475,0.329C-2.858,0.329 -3.18,0.058 -3.265,-0.316C-3.559,-1.616 -4.724,-2.589 -6.111,-2.589C-7.522,-2.589 -9.029,-1.971 -9.029,-0.237C-9.029,1.196 -7.959,1.766 -5.52,2.726C-3.19,3.642 -0.002,4.897 0,8.662" style="fill-rule:nonzero;"/>
        </g>
        <g transform="matrix(4.166667,0,0,4.166667,2985.700898,3462.95731)">
            <path d="M0,-15.2L0,-16.326C0,-16.799 0.383,-17.182 0.855,-17.182L11.763,-17.182C12.235,-17.182 12.619,-16.8 12.619,-16.326L12.619,-15.199C12.619,-14.726 12.236,-14.343 11.763,-14.343L8.586,-14.343C8.113,-14.343 7.729,-13.96 7.729,-13.487L7.729,-1.714C7.729,-1.24 8.112,-0.856 8.586,-0.856L8.628,-0.856C9.1,-0.856 9.483,-0.473 9.483,-0.001L9.483,1.126C9.483,1.598 9.101,1.982 8.628,1.982L3.991,1.982C3.519,1.982 3.135,1.599 3.135,1.126L3.135,-0.001C3.135,-0.473 3.518,-0.856 3.991,-0.856L4.032,-0.856C4.505,-0.856 4.889,-1.24 4.889,-1.714L4.889,-13.487C4.889,-13.96 4.506,-14.344 4.032,-14.344L0.855,-14.344C0.383,-14.344 -0.001,-14.726 0,-15.2" style="fill-rule:nonzero;"/>
        </g>
        <g transform="matrix(4.166667,0,0,4.166667,3094.892565,3441.633144)">
            <path d="M0,-4.966C0,-7.316 -1.91,-9.226 -4.259,-9.226L-4.891,-9.226C-7.238,-9.226 -9.148,-7.316 -9.148,-4.966L-9.148,0.003C-9.148,2.351 -7.238,4.262 -4.891,4.262L-4.259,4.262C-1.91,4.262 0,2.351 0,0.003L0,-4.966ZM2.84,-4.966L2.84,0.003C2.84,3.917 -0.345,7.1 -4.259,7.1L-4.891,7.1C-8.804,7.1 -11.988,3.917 -11.988,0.003L-11.988,-4.966C-11.988,-8.881 -8.804,-12.066 -4.891,-12.066L-4.259,-12.066C-0.345,-12.066 2.84,-8.881 2.84,-4.966" style="fill-rule:nonzero;"/>
        </g>
        <g transform="matrix(4.166667,0,0,4.166667,3135.928815,3440.160227)">
            <path d="M0,-4.258L2.781,-4.258C4.211,-4.258 5.343,-5.567 5.038,-7.05C4.817,-8.128 3.815,-8.872 2.715,-8.872L0,-8.872C-0.458,-8.872 -0.827,-8.502 -0.827,-8.045L-0.827,-5.085C-0.827,-4.628 -0.457,-4.258 0,-4.258M4.516,-0.745L7.129,4.177C7.272,4.446 7.553,4.615 7.859,4.615L8.839,4.615C9.295,4.615 9.665,4.985 9.665,5.441L9.665,6.628C9.665,7.085 9.295,7.454 8.839,7.454L4.142,7.454C3.686,7.454 3.315,7.085 3.315,6.628L3.315,4.928C3.315,4.755 3.455,4.615 3.628,4.615C3.863,4.615 4.014,4.364 3.903,4.157L1.176,-0.98C1.032,-1.25 0.752,-1.419 0.445,-1.419L0,-1.419C-0.458,-1.419 -0.827,-1.049 -0.827,-0.593L-0.827,3.789C-0.827,4.245 -0.457,4.615 0,4.615L0.101,4.615C0.558,4.615 0.928,4.985 0.928,5.441L0.928,6.628C0.928,7.085 0.557,7.454 0.101,7.454L-4.596,7.454C-5.052,7.454 -5.422,7.085 -5.422,6.628L-5.422,5.441C-5.422,4.984 -5.052,4.615 -4.596,4.615L-4.493,4.615C-4.037,4.615 -3.667,4.245 -3.667,3.789L-3.667,-8.045C-3.667,-8.503 -4.037,-8.872 -4.493,-8.872L-4.596,-8.872C-5.052,-8.872 -5.422,-9.243 -5.422,-9.699L-5.422,-10.885C-5.422,-11.342 -5.052,-11.712 -4.596,-11.712L2.694,-11.712C5.312,-11.712 7.583,-9.79 7.891,-7.19C8.168,-4.852 6.864,-2.778 4.91,-1.887C4.475,-1.688 4.29,-1.168 4.516,-0.745" style="fill-rule:nonzero;"/>
        </g>
        <g transform="matrix(4.166667,0,0,4.166667,3182.852565,3462.78606)">
            <path d="M0,-15.116L0,-16.328C0,-16.778 0.365,-17.142 0.814,-17.142L5.536,-17.142C5.985,-17.142 6.35,-16.777 6.35,-16.328L6.35,-15.117C6.35,-14.667 5.985,-14.303 5.536,-14.303L5.408,-14.303C4.958,-14.303 4.595,-13.938 4.595,-13.489L4.595,-1.629C4.595,-1.178 4.959,-0.814 5.408,-0.814L5.533,-0.814C5.982,-0.814 6.347,-0.45 6.347,-0.001L6.347,1.212C6.347,1.661 5.982,2.026 5.533,2.026L0.811,2.026C0.361,2.026 -0.003,1.661 -0.003,1.212L-0.003,-0.001C-0.003,-0.451 0.361,-0.814 0.811,-0.814L0.941,-0.814C1.392,-0.814 1.755,-1.179 1.755,-1.629L1.755,-13.489C1.755,-13.939 1.391,-14.303 0.941,-14.303L0.814,-14.303C0.364,-14.303 0,-14.667 0,-15.116" style="fill-rule:nonzero;"/>
        </g>
        <g transform="matrix(4.166667,0,0,4.166667,3228.905482,3460.30106)">
            <path d="M0,-14.125C-0.469,-14.887 -0.138,-15.917 0.71,-16.201C2.339,-16.748 4.144,-16.744 5.764,-16.156L5.832,-16.13C5.911,-16.098 5.99,-16.066 6.07,-16.037C7.037,-15.687 8.108,-15.665 9.091,-15.959C9.715,-16.145 10.384,-15.867 10.709,-15.303L10.711,-15.297C11.153,-14.524 10.796,-13.509 9.943,-13.247C9.222,-13.025 8.467,-12.911 7.706,-12.911C6.814,-12.911 5.939,-13.064 5.106,-13.366C4.994,-13.406 4.88,-13.451 4.766,-13.498C3.771,-13.851 2.664,-13.854 1.66,-13.527C1.032,-13.323 0.346,-13.563 0,-14.125M13.816,0.632L13.816,1.774C13.816,2.243 13.438,2.623 12.968,2.623L8.316,2.623C7.848,2.623 7.468,2.243 7.468,1.774L7.468,0.632C7.468,0.163 7.848,-0.217 8.316,-0.217L8.362,-0.217L5.868,-5.284C5.657,-5.713 5.045,-5.713 4.835,-5.284L2.341,-0.217L2.387,-0.217C2.855,-0.217 3.235,0.163 3.235,0.632L3.235,1.774C3.235,2.243 2.855,2.623 2.387,2.623L-2.266,2.623C-2.733,2.623 -3.114,2.243 -3.114,1.774L-3.114,0.632C-3.114,0.163 -2.733,-0.217 -2.266,-0.217L-1.352,-0.217C-1.028,-0.217 -0.732,-0.4 -0.59,-0.69L4.024,-10.068C4.281,-10.582 4.787,-10.896 5.352,-10.896L5.36,-10.896L5.736,-10.894C6.048,-10.892 6.335,-10.718 6.481,-10.442L6.682,-10.063L11.293,-0.691C11.437,-0.4 11.732,-0.218 12.056,-0.218L12.969,-0.218C13.438,-0.218 13.817,0.163 13.816,0.632" style="fill-rule:nonzero;"/>
        </g>
    </g>
</svg>
